<?xml version="1.0" standalone="no"?>
<!DOCTYPE svg PUBLIC "-//W3C//DTD SVG 1.1//EN" "http://www.w3.org/Graphics/SVG/1.1/DTD/svg11.dtd" >
<svg xmlns="http://www.w3.org/2000/svg" xmlns:xlink="http://www.w3.org/1999/xlink" version="1.1">
<metadata>
Created by FontForge 20170731 at Tue Feb  4 18:20:18 2014
 By Aleksey,,,
(c) Copyright (c) 2010. All rights reserved. Fakt is a design by Thomas Thiemich, published by OurType. www.ourtype.com
</metadata>
<defs>
<font id="FaktPro-Black" horiz-adv-x="568" >
  <font-face 
    font-family="Fakt Pro Blk"
    font-weight="900"
    font-stretch="normal"
    units-per-em="1000"
    panose-1="2 0 0 0 0 0 0 0 0 0"
    ascent="748"
    descent="-252"
    x-height="488"
    cap-height="688"
    bbox="-180 -312 1300 1012"
    underline-thickness="50"
    underline-position="-150"
    unicode-range="U+0020-FB04"
  />
<missing-glyph horiz-adv-x="712" 
d="M0 0v720h712v-720h-712zM232 184l126 129l126 -129l52 52l-127 130l127 130l-52 52l-126 -129l-126 129l-52 -52l126 -130l-126 -130z" />
    <glyph glyph-name="ff" unicode="ff" horiz-adv-x="708" 
d="M92 0v364h-92v124h92v32q0 114 46.5 163t169.5 49h48v-128h-12q-43 0 -59.5 -15.5t-16.5 -56.5v-44h152v32q0 114 46.5 163t169.5 49h80v-128h-44q-43 0 -59.5 -15.5t-16.5 -56.5v-44h104v-124h-104v-364h-176v364h-152v-364h-176z" />
    <glyph glyph-name="fi" unicode="fi" horiz-adv-x="660" 
d="M420 0v364h-152v-364h-176v364h-92v124h92v32q0 114 46.5 163t169.5 49h48v-128h-12q-43 0 -59.5 -15.5t-16.5 -56.5v-44h328v-488h-176zM416 588v144h184v-144h-184z" />
    <glyph glyph-name="fl" unicode="fl" horiz-adv-x="660" 
d="M92 0v364h-92v124h92v32q0 114 46.5 163t169.5 49h288v-732h-176v604h-76q-43 0 -59.5 -15.5t-16.5 -56.5v-44h84v-124h-84v-364h-176z" />
    <glyph glyph-name="ffi" unicode="ffi" horiz-adv-x="988" 
d="M420 0v364h-152v-364h-176v364h-92v124h92v32q0 114 46.5 163t169.5 49h48v-128h-12q-43 0 -59.5 -15.5t-16.5 -56.5v-44h152v32q0 114 46.5 163t169.5 49h48v-128h-12q-43 0 -59.5 -15.5t-16.5 -56.5v-44h328v-488h-176v364h-152v-364h-176zM744 588v144h184v-144h-184z
" />
    <glyph glyph-name="ffl" unicode="ffl" horiz-adv-x="988" 
d="M420 0v364h-152v-364h-176v364h-92v124h92v32q0 114 46.5 163t169.5 49h48v-128h-12q-43 0 -59.5 -15.5t-16.5 -56.5v-44h152v32q0 114 46.5 163t169.5 49h288v-732h-176v604h-76q-43 0 -59.5 -15.5t-16.5 -56.5v-44h84v-124h-84v-364h-176z" />
    <glyph glyph-name="f_b" unicode="fb" horiz-adv-x="1008" 
d="M420 0v604h-76q-43 0 -59.5 -15.5t-16.5 -56.5v-44h84v-124h-84v-364h-176v364h-92v124h92v32q0 114 46.5 163t169.5 49h288v-144q0 -98 -8 -164h4q41 76 156 76q96 0 160 -66t64 -186q0 -122 -66 -191t-166 -69q-107 0 -148 76h-4v-64h-168zM596 244q0 -59 26.5 -95.5
t73.5 -36.5q46 0 71 38t25 98q0 59 -24.5 93.5t-71.5 34.5q-46 0 -72 -35t-28 -92v-5z" />
    <glyph glyph-name="f_h" unicode="fh" horiz-adv-x="996" 
d="M420 0v604h-76q-43 0 -59.5 -15.5t-16.5 -56.5v-44h84v-124h-84v-364h-176v364h-92v124h92v32q0 114 46.5 163t169.5 49h288v-148q0 -94 -8 -164h4q21 38 60 59t88 21q86 0 141 -49t55 -156v-295h-176v276q0 96 -76 96q-39 0 -63.5 -28.5t-24.5 -81.5v-262h-176z" />
    <glyph glyph-name="f_j" unicode="fj" horiz-adv-x="660" 
d="M332 -92h28q34 0 47 18t13 58v380h-152v-364h-176v364h-92v124h92v32q0 114 46.5 163t169.5 49h48v-128h-12q-43 0 -59.5 -15.5t-16.5 -56.5v-44h328v-504q0 -107 -45.5 -155.5t-166.5 -48.5h-52v128zM416 588v144h184v-144h-184z" />
    <glyph glyph-name="f_k" unicode="fk" horiz-adv-x="960" 
d="M420 0v604h-76q-43 0 -59.5 -15.5t-16.5 -56.5v-44h84v-124h-84v-364h-176v364h-92v124h92v32q0 114 46.5 163t169.5 49h288v-408l148 164h196l-184 -195l200 -293h-200l-114 171l-46 -49v-122h-176z" />
    <glyph glyph-name="f_t" unicode="ft" horiz-adv-x="732" 
d="M420 196v168h-152v-364h-176v364h-92v124h92v32q0 114 46.5 163t169.5 49h48v-128h-12q-43 0 -59.5 -15.5t-16.5 -56.5v-44h152v148h176v-148h112v-124h-112v-156q0 -41 13.5 -56.5t54.5 -15.5h44v-136h-85q-121 0 -162 40.5t-41 155.5z" />
    <glyph glyph-name="f_f_b" unicode="ffb" horiz-adv-x="1336" 
d="M420 0v364h-152v-364h-176v364h-92v124h92v32q0 114 46.5 163t169.5 49h48v-128h-12q-43 0 -59.5 -15.5t-16.5 -56.5v-44h152v32q0 114 46.5 163t169.5 49h288v-144q0 -100 -8 -164h4q41 76 156 76q96 0 160 -66t64 -186q0 -122 -66 -191t-166 -69q-107 0 -148 76h-4v-64
h-168v604h-76q-43 0 -59.5 -15.5t-16.5 -56.5v-44h84v-124h-84v-364h-176zM924 244v-6q2 -56 28 -91t72 -35t71 38t25 98q0 59 -24.5 93.5t-71.5 34.5t-73.5 -36.5t-26.5 -95.5z" />
    <glyph glyph-name="f_f_h" unicode="ffh" horiz-adv-x="1324" 
d="M420 0v364h-152v-364h-176v364h-92v124h92v32q0 114 46.5 163t169.5 49h48v-128h-12q-43 0 -59.5 -15.5t-16.5 -56.5v-44h152v32q0 114 46.5 163t169.5 49h288v-148q0 -94 -8 -164h4q21 38 60 59t88 21q86 0 141 -49t55 -156v-295h-176v276q0 96 -76 96q-40 0 -64 -29.5
t-24 -82.5v-260h-176v604h-76q-43 0 -59.5 -15.5t-16.5 -56.5v-44h84v-124h-84v-364h-176z" />
    <glyph glyph-name="f_f_j" unicode="ffj" horiz-adv-x="988" 
d="M420 0v364h-152v-364h-176v364h-92v124h92v32q0 114 46.5 163t169.5 49h48v-128h-12q-43 0 -59.5 -15.5t-16.5 -56.5v-44h152v32q0 114 46.5 163t169.5 49h48v-128h-12q-43 0 -59.5 -15.5t-16.5 -56.5v-44h328v-504q0 -107 -45.5 -155.5t-166.5 -48.5h-52v128h28
q34 0 47 18t13 58v380h-152v-364h-176zM744 588v144h184v-144h-184z" />
    <glyph glyph-name="f_f_k" unicode="ffk" horiz-adv-x="1288" 
d="M420 0v364h-152v-364h-176v364h-92v124h92v32q0 114 46.5 163t169.5 49h48v-128h-12q-43 0 -59.5 -15.5t-16.5 -56.5v-44h152v32q0 114 46.5 163t169.5 49h288v-408l148 164h196l-184 -195l200 -293h-200l-114 171l-46 -49v-122h-176v604h-76q-43 0 -59.5 -15.5
t-16.5 -56.5v-44h84v-124h-84v-364h-176z" />
    <glyph glyph-name="f_f_t" unicode="fft" horiz-adv-x="1060" 
d="M420 0v364h-152v-364h-176v364h-92v124h92v32q0 114 46.5 163t169.5 49h48v-128h-12q-43 0 -59.5 -15.5t-16.5 -56.5v-44h152v32q0 114 46.5 163t169.5 49h48v-128h-12q-43 0 -59.5 -15.5t-16.5 -56.5v-44h152v148h176v-148h112v-124h-112v-156q0 -41 13.5 -56.5
t54.5 -15.5h44v-136h-85q-121 0 -162 40.5t-41 155.5v168h-152v-364h-176z" />
    <glyph glyph-name=".notdef" horiz-adv-x="712" 
d="M0 0v720h712v-720h-712zM232 184l126 129l126 -129l52 52l-127 130l127 130l-52 52l-126 -129l-126 129l-52 -52l126 -130l-126 -130z" />
    <glyph glyph-name=".null" horiz-adv-x="0" 
 />
    <glyph glyph-name="nonmarkingreturn" horiz-adv-x="333" 
 />
    <glyph glyph-name="space" unicode=" " horiz-adv-x="220" 
 />
    <glyph glyph-name="exclam" unicode="!" horiz-adv-x="296" 
d="M96 220l-40 284v184h184v-184l-40 -284h-104zM64 0v160h168v-160h-168z" />
    <glyph glyph-name="quotedbl" unicode="&#x22;" horiz-adv-x="476" 
d="M72 372l-20 200v116h152v-116l-20 -200h-112zM292 372l-20 200v116h152v-116l-20 -200h-112z" />
    <glyph glyph-name="numbersign" unicode="#" horiz-adv-x="648" 
d="M64 428v112h114l26 148h132l-26 -148h100l26 148h132l-26 -148h94v-112h-114l-30 -172h92l-4 -112h-107l-25 -144h-132l25 144h-100l-25 -144h-132l25 144h-97v112h116l30 172h-94zM290 428l-30 -172h100l30 172h-100z" />
    <glyph glyph-name="dollar" unicode="$" 
d="M20 200h172q6 -88 88 -88q37 0 60.5 19.5t23.5 56.5q0 23 -13.5 38t-28 20.5t-42.5 13.5l-76 20q-172 45 -172 204q0 82 49.5 138.5t138.5 72.5v109h120v-109q82 -14 131 -64t53 -123h-172q-4 32 -23.5 48t-48.5 16q-32 0 -52 -16t-20 -48t17.5 -46.5t58.5 -25.5l76 -20
q87 -23 133.5 -70t46.5 -130q0 -90 -52.5 -149.5t-147.5 -73.5v-113h-120v112q-95 13 -146.5 67t-53.5 141z" />
    <glyph glyph-name="percent" unicode="%" horiz-adv-x="852" 
d="M192 336q-84 0 -130 49.5t-46 130.5t46 130.5t130 49.5t130 -49.5t46 -130.5t-46 -130.5t-130 -49.5zM192 432q52 0 52 84t-52 84t-52 -84t52 -84zM204 -12l348 712h96l-348 -712h-96zM660 -8q-84 0 -130 49.5t-46 130.5t46 130.5t130 49.5t130 -49.5t46 -130.5
t-46 -130.5t-130 -49.5zM660 88q52 0 52 84t-52 84t-52 -84t52 -84z" />
    <glyph glyph-name="ampersand" unicode="&#x26;" horiz-adv-x="748" 
d="M28 180q0 115 143 190q-42 47 -54.5 78.5t-12.5 71.5q0 77 58.5 128.5t169.5 51.5t169.5 -43.5t58.5 -120.5q0 -65 -43 -107t-119 -79l121 -117q13 41 13 90v21h152v-20q0 -112 -57 -196l133 -128h-212l-32 30q-79 -42 -188 -42q-147 0 -223.5 51.5t-76.5 140.5zM328 112
q48 0 89 14l-158 153q-55 -37 -55 -83q0 -40 36 -62t88 -22zM268 524q0 -39 45 -89q83 43 83 89q0 30 -17.5 47t-46.5 17t-46.5 -18t-17.5 -46z" />
    <glyph glyph-name="quotesingle" unicode="'" horiz-adv-x="256" 
d="M72 372l-20 200v116h152v-116l-20 -200h-112z" />
    <glyph glyph-name="parenleft" unicode="(" horiz-adv-x="340" 
d="M4 260q0 144 49.5 270.5t114.5 213.5h160q-56 -73 -108 -207.5t-52 -276.5q0 -141 52 -275.5t108 -212.5h-160q-65 86 -114.5 215t-49.5 273z" />
    <glyph glyph-name="parenright" unicode=")" horiz-adv-x="340" 
d="M12 -228q56 78 108 212.5t52 275.5q0 142 -52 276.5t-108 207.5h160q65 -87 114.5 -213.5t49.5 -270.5t-49.5 -273t-114.5 -215h-160z" />
    <glyph glyph-name="asterisk" unicode="*" horiz-adv-x="488" 
d="M182 696h122l-14 -109l99 47l39 -117l-108 -21l74 -79l-98 -73l-54 96l-51 -95l-100 71l74 80l-106 21l37 117l99 -47z" />
    <glyph glyph-name="plus" unicode="+" 
d="M60 192v128h156v160h136v-160h156v-128h-156v-160h-136v160h-156z" />
    <glyph glyph-name="comma" unicode="," horiz-adv-x="304" 
d="M139 0h-79v168h184v-158l-68 -194h-76z" />
    <glyph glyph-name="hyphen" unicode="-" horiz-adv-x="396" 
d="M44 180v144h308v-144h-308z" />
    <glyph glyph-name="period" unicode="." horiz-adv-x="304" 
d="M60 0v168h184v-168h-184z" />
    <glyph glyph-name="slash" unicode="/" horiz-adv-x="456" 
d="M0 -12l308 712h148l-308 -712h-148z" />
    <glyph glyph-name="zero" unicode="0" 
d="M284 -12q-135 0 -199.5 97.5t-64.5 258.5t64.5 258.5t199.5 97.5t199.5 -97.5t64.5 -258.5t-64.5 -258.5t-199.5 -97.5zM284 124q43 0 63.5 52.5t20.5 167.5q0 116 -20 168t-64 52q-43 0 -63.5 -52.5t-20.5 -167.5q0 -116 20 -168t64 -52z" />
    <glyph glyph-name="one" unicode="1" 
d="M112 404l-68 120l244 164h104v-552h144v-136h-472v136h152v337z" />
    <glyph glyph-name="two" unicode="2" 
d="M32 0q3 134 34.5 208.5t117.5 123.5l84 48q43 24 63.5 49t20.5 59q0 76 -72 76q-34 0 -53 -24t-19 -68h-176q2 80 39 133t91 74t122 21q112 0 180 -55t68 -149q0 -78 -32 -130t-112 -98l-84 -48q-41 -23 -53.5 -38.5t-15.5 -45.5h292l1 -136h-496z" />
    <glyph glyph-name="three" unicode="3" 
d="M24 208h176q0 -48 22.5 -72t57.5 -24q37 0 58.5 22t21.5 66q0 40 -22 64t-58 24h-56v132h56q32 0 54 21.5t22 58.5q0 35 -21.5 55.5t-54.5 20.5q-34 0 -55 -21.5t-21 -62.5h-160q0 100 67.5 154t168.5 54q106 0 175 -50.5t69 -137.5q0 -50 -27.5 -92t-72.5 -60v-4
q55 -18 85.5 -62t30.5 -106q0 -96 -71 -148t-189 -52q-256 0 -256 220z" />
    <glyph glyph-name="four" unicode="4" 
d="M16 124v104l312 460h152v-428h72v-136h-72v-124h-176v124h-288zM181 260h123v181z" />
    <glyph glyph-name="five" unicode="5" 
d="M32 184h172q15 -68 74 -68q34 0 54 26.5t20 73.5q0 44 -20.5 70t-53.5 26q-53 0 -70 -56l-160 24l24 408h420v-136h-268l-10 -136h6q34 24 96 24q98 0 155 -57.5t57 -162.5q0 -115 -68.5 -173.5t-179.5 -58.5q-116 0 -177.5 52t-70.5 144z" />
    <glyph glyph-name="six" unicode="6" 
d="M28 328q0 194 77 283t199 89q104 0 159.5 -49.5t64.5 -134.5h-168q-4 17 -9 27.5t-18 19.5t-33 9q-78 0 -90 -179q36 47 122 47q38 0 74 -12t67.5 -37t51 -69t19.5 -102q0 -108 -72 -170t-176 -62q-123 0 -195.5 80.5t-72.5 259.5zM294 312q-34 0 -54 -26t-20 -72t20 -72
t54 -26t54 26.5t20 73.5q0 45 -20 70.5t-54 25.5z" />
    <glyph glyph-name="seven" unicode="7" 
d="M100 0l252 540h-316v148h504v-96l-260 -592h-180z" />
    <glyph glyph-name="eight" unicode="8" 
d="M24 188q0 62 30.5 106t85.5 62v4q-45 15 -72.5 56t-27.5 92q0 90 68 141t176 51t176 -51t68 -141q0 -51 -27.5 -92t-72.5 -56v-4q55 -18 85.5 -62t30.5 -106q0 -96 -71 -148t-189 -52t-189 52t-71 148zM204 200q0 -43 22.5 -65.5t57.5 -22.5t57.5 22.5t22.5 65.5
q0 40 -22 64t-58 24t-58 -24t-22 -64zM284 420q33 0 54.5 21t21.5 59q0 35 -21.5 55.5t-54.5 20.5t-54.5 -20.5t-21.5 -55.5q0 -38 21.5 -59t54.5 -21z" />
    <glyph glyph-name="nine" unicode="9" 
d="M536 360q0 -372 -272 -372q-104 0 -161.5 49.5t-66.5 134.5h168q2 -56 64 -56q41 0 61.5 40t24.5 139q-36 -47 -118 -47q-86 0 -151 54.5t-65 165.5q0 108 72 170t176 62q123 0 195.5 -80.5t72.5 -259.5zM270 376q34 0 54 26t20 72t-20 72t-54 26t-54 -26.5t-20 -73.5
q0 -45 20 -70.5t54 -25.5z" />
    <glyph glyph-name="colon" unicode=":" horiz-adv-x="304" 
d="M60 320v168h184v-168h-184zM60 0v168h184v-168h-184z" />
    <glyph glyph-name="semicolon" unicode=";" horiz-adv-x="304" 
d="M60 320v168h184v-168h-184zM139 0h-79v168h184v-158l-68 -194h-76z" />
    <glyph glyph-name="less" unicode="&#x3c;" 
d="M72 188v136l424 172v-144l-267 -96l267 -100v-144z" />
    <glyph glyph-name="equal" unicode="=" 
d="M56 304v128h456v-128h-456zM56 76v128h456v-128h-456z" />
    <glyph glyph-name="greater" unicode="&#x3e;" 
d="M496 320v-136l-424 -172v144l267 95l-267 101v144z" />
    <glyph glyph-name="question" unicode="?" horiz-adv-x="532" 
d="M176 220v20q0 48 17.5 83.5t43 56t51 37t43 36t17.5 43.5q0 29 -20.5 48.5t-59.5 19.5q-49 0 -70.5 -24t-21.5 -60h-164q0 94 62.5 157t193.5 63q117 0 184.5 -51t67.5 -145q0 -47 -19 -81.5t-46 -55t-54 -38t-46 -41t-19 -52.5v-16h-160zM172 0v160h168v-160h-168z" />
    <glyph glyph-name="at" unicode="@" horiz-adv-x="1036" 
d="M260 128q0 63 41.5 99.5t130.5 48.5l92 12q38 5 49 14t11 30q0 23 -17 39.5t-51 16.5q-70 0 -76 -64h-164q9 91 73.5 133.5t166.5 42.5q123 0 183.5 -46t60.5 -142v-147q0 -44 10 -66.5t38 -22.5q80 0 80 196q0 157 -103.5 248.5t-264.5 91.5q-168 0 -270 -111.5
t-102 -276.5q0 -177 94.5 -270.5t241.5 -93.5q78 0 127.5 13.5t84.5 46.5h128q-106 -148 -340 -148q-121 0 -218.5 51t-157.5 155.5t-60 245.5q0 130 57.5 238t166.5 173t248 65q203 0 335.5 -118t132.5 -310q0 -143 -62 -213.5t-162 -70.5q-120 0 -158 71q-57 -71 -178 -71
q-84 0 -126 38t-42 102zM488 96q39 0 67.5 22.5t28.5 69.5v39q-13 -18 -44 -23l-56 -8q-52 -7 -52 -52q0 -22 16.5 -35t39.5 -13z" />
    <glyph glyph-name="A" unicode="A" horiz-adv-x="736" 
d="M4 0l256 688h216l256 -688h-195l-40 124h-264l-41 -124h-188zM365 524l-86 -260h173l-83 260h-4z" />
    <glyph glyph-name="B" unicode="B" horiz-adv-x="744" 
d="M72 0v688h372q116 0 174 -47t58 -133q0 -52 -26.5 -89t-81.5 -51v-4q64 -11 100 -55t36 -105q0 -91 -63 -147.5t-177 -56.5h-392zM424 292h-168v-156h167q93 0 93 80q0 36 -23.5 56t-68.5 20zM408 552h-152v-136h148q88 0 88 71q0 65 -84 65z" />
    <glyph glyph-name="C" unicode="C" horiz-adv-x="756" 
d="M44 344q0 154 96.5 255t259.5 101q135 0 218.5 -66t101.5 -186h-180q-28 100 -140 100q-79 0 -123.5 -56t-44.5 -148q0 -91 46 -147.5t126 -56.5q108 0 136 100h180q-18 -120 -101.5 -186t-218.5 -66q-170 0 -263 99.5t-93 256.5z" />
    <glyph glyph-name="D" unicode="D" horiz-adv-x="772" 
d="M72 0v688h284q179 0 275.5 -95t96.5 -249t-96.5 -249t-275.5 -95h-284zM336 540h-80v-392h80q105 0 154.5 54t49.5 142t-49.5 142t-154.5 54z" />
    <glyph glyph-name="E" unicode="E" horiz-adv-x="672" 
d="M72 0v688h540v-148h-356v-120h292v-136h-292v-136h368v-148h-552z" />
    <glyph glyph-name="F" unicode="F" horiz-adv-x="636" 
d="M72 0v688h524v-148h-340v-160h276v-144h-276v-236h-184z" />
    <glyph glyph-name="G" unicode="G" horiz-adv-x="792" 
d="M608 0l-12 62h-4q-69 -74 -196 -74q-163 0 -257.5 100.5t-94.5 255.5q0 158 99.5 257t268.5 99q133 0 218 -65t98 -163h-180q-10 33 -44.5 54.5t-91.5 21.5q-82 0 -131 -54.5t-49 -149.5q0 -96 48 -150t132 -54q65 0 107 29.5t48 82.5h-155v128h312v-380h-116z" />
    <glyph glyph-name="H" unicode="H" horiz-adv-x="784" 
d="M72 0v688h184v-264h272v264h184v-688h-184v272h-272v-272h-184z" />
    <glyph glyph-name="I" unicode="I" horiz-adv-x="328" 
d="M72 0v688h184v-688h-184z" />
    <glyph glyph-name="J" unicode="J" horiz-adv-x="608" 
d="M36 219v29h180v-32q0 -80 72 -80t72 92v460h184v-448q0 -252 -256 -252q-117 0 -184.5 56.5t-67.5 174.5z" />
    <glyph glyph-name="K" unicode="K" horiz-adv-x="748" 
d="M72 0v688h184v-275l252 275h212l-274 -291l294 -397h-212l-200 271l-72 -76v-195h-184z" />
    <glyph glyph-name="L" unicode="L" horiz-adv-x="620" 
d="M72 0v688h184v-536h320v-152h-504z" />
    <glyph glyph-name="M" unicode="M" horiz-adv-x="976" 
d="M72 0v688h260l156 -436h4l160 436h252v-688h-184l12 456h-4l-172 -456h-136l-172 456h-4l12 -456h-184z" />
    <glyph glyph-name="N" unicode="N" horiz-adv-x="792" 
d="M72 0v688h160l304 -376h4l-4 376h184v-688h-156l-308 380h-4l4 -380h-184z" />
    <glyph glyph-name="O" unicode="O" horiz-adv-x="824" 
d="M44 344q0 156 100 256t268 100q165 0 266.5 -100t101.5 -256t-101.5 -256t-266.5 -100q-168 0 -268 100t-100 256zM232 344q0 -91 50 -147.5t130 -56.5t130 57.5t50 146.5t-50 146.5t-130 57.5t-130 -56.5t-50 -147.5z" />
    <glyph glyph-name="P" unicode="P" horiz-adv-x="720" 
d="M72 0v688h340q127 0 197.5 -64.5t70.5 -171.5q0 -110 -70.5 -177t-197.5 -67h-156v-208h-184zM380 548h-124v-200h124q54 0 83 26t29 74t-29 74t-83 26z" />
    <glyph glyph-name="Q" unicode="Q" horiz-adv-x="824" 
d="M44 344q0 156 100 256t268 100q165 0 266.5 -100t101.5 -256q0 -151 -95 -249l123 -127l-108 -104l-141 149q-69 -25 -147 -25q-168 0 -268 100t-100 256zM232 344q0 -91 50 -147.5t130 -56.5t130 57.5t50 146.5t-50 146.5t-130 57.5t-130 -56.5t-50 -147.5z" />
    <glyph glyph-name="R" unicode="R" horiz-adv-x="744" 
d="M72 0v688h336q131 0 201.5 -60t70.5 -166q0 -72 -36 -127t-103 -83l167 -252h-200l-143 228h-109v-228h-184zM392 548h-136v-184h136q47 0 73.5 26t26.5 70q0 41 -26 64.5t-74 23.5z" />
    <glyph glyph-name="S" unicode="S" horiz-adv-x="692" 
d="M44 196h176q0 -40 33 -60t87 -20q57 0 90.5 20t33.5 56q0 31 -30 46.5t-86 25.5l-48 8q-41 7 -69.5 14t-64.5 22.5t-57.5 36.5t-37 57t-15.5 82q0 93 78 154.5t210 61.5q130 0 205 -55t75 -145h-176q0 35 -28.5 53.5t-75.5 18.5q-49 0 -78.5 -18t-29.5 -50
q0 -33 33.5 -49t98.5 -27l48 -8q50 -8 84.5 -19t71.5 -33t56.5 -60t19.5 -92q0 -104 -80.5 -166t-227.5 -62q-146 0 -221 54t-75 154z" />
    <glyph glyph-name="T" unicode="T" horiz-adv-x="648" 
d="M8 536v152h632v-152h-224v-536h-184v536h-224z" />
    <glyph glyph-name="U" unicode="U" horiz-adv-x="768" 
d="M64 280v408h184v-404q0 -71 34.5 -107.5t101.5 -36.5t101.5 36.5t34.5 107.5v404h184v-408q0 -82 -23 -140t-67.5 -90.5t-100.5 -47t-129 -14.5t-129 14.5t-100.5 47t-67.5 90.5t-23 140z" />
    <glyph glyph-name="V" unicode="V" horiz-adv-x="728" 
d="M252 0l-244 688h195l160 -524h4l165 524h188l-244 -688h-224z" />
    <glyph glyph-name="W" unicode="W" horiz-adv-x="1028" 
d="M176 0l-168 688h200l96 -488h4l120 488h172l128 -488h4l92 488h196l-168 -688h-224l-114 440h-4l-110 -440h-224z" />
    <glyph glyph-name="X" unicode="X" horiz-adv-x="724" 
d="M8 0l246 352l-238 336h212l136 -206l132 206h204l-234 -336l250 -352h-212l-148 222l-144 -222h-204z" />
    <glyph glyph-name="Y" unicode="Y" horiz-adv-x="732" 
d="M272 0v255l-264 433h208l150 -264h4l158 264h196l-268 -433v-255h-184z" />
    <glyph glyph-name="Z" unicode="Z" horiz-adv-x="644" 
d="M40 540v148h572v-100l-331 -440h331v-148h-580v100l334 440h-326z" />
    <glyph glyph-name="bracketleft" unicode="[" horiz-adv-x="368" 
d="M220 -96h136v-132h-296v972h296v-132h-136v-708z" />
    <glyph glyph-name="backslash" unicode="\" horiz-adv-x="456" 
d="M308 -12l-308 712h148l308 -712h-148z" />
    <glyph glyph-name="bracketright" unicode="]" horiz-adv-x="368" 
d="M12 -96h136v708h-136v132h296v-972h-296v132z" />
    <glyph glyph-name="asciicircum" unicode="^" 
d="M36 352l176 336h136l176 -336h-144l-100 197l-100 -197h-144z" />
    <glyph glyph-name="underscore" unicode="_" horiz-adv-x="500" 
d="M0 -72h500v-144h-500v144z" />
    <glyph glyph-name="grave" unicode="`" horiz-adv-x="616" 
d="M252 568l-152 164h172l96 -164h-116z" />
    <glyph glyph-name="a" unicode="a" horiz-adv-x="596" 
d="M36 128q0 63 41.5 99.5t130.5 48.5l92 12q36 4 48 13t12 31q0 23 -17 39.5t-51 16.5q-70 0 -76 -64h-164q8 90 75 133t165 43q123 0 183.5 -43t60.5 -133v-324h-168v58h-4q-50 -70 -160 -70q-84 0 -126 38t-42 102zM264 100q39 0 67.5 22t28.5 66v39q-13 -18 -44 -23
l-56 -8q-52 -7 -52 -48q0 -48 56 -48z" />
    <glyph glyph-name="b" unicode="b" horiz-adv-x="652" 
d="M64 0v732h176v-144q0 -100 -8 -164h4q41 76 156 76q96 0 160 -66t64 -186q0 -122 -66 -191t-166 -69q-107 0 -148 76h-4v-64h-168zM240 244q0 -59 26.5 -95.5t73.5 -36.5q46 0 71 38t25 98q0 59 -24.5 93.5t-71.5 34.5t-73.5 -36.5t-26.5 -95.5z" />
    <glyph glyph-name="c" unicode="c" horiz-adv-x="596" 
d="M32 244q0 122 75 189t205 67q117 0 183.5 -54t72.5 -134h-172q-4 25 -25.5 44.5t-58.5 19.5q-47 0 -73.5 -36.5t-26.5 -95.5t26.5 -95.5t73.5 -36.5q38 0 58 19t26 45h172q-6 -81 -71.5 -134.5t-184.5 -53.5q-132 0 -206 65t-74 191z" />
    <glyph glyph-name="d" unicode="d" horiz-adv-x="652" 
d="M36 240q0 122 66 191t166 69q107 0 148 -76h4q-8 64 -8 164v144h176v-732h-168v64h-4q-41 -76 -156 -76q-96 0 -160 66t-64 186zM216 240q0 -59 24.5 -93.5t71.5 -34.5t73.5 36.5t26.5 95.5t-26.5 95.5t-73.5 36.5q-46 0 -71 -38t-25 -98z" />
    <glyph glyph-name="e" unicode="e" horiz-adv-x="612" 
d="M32 240q0 122 74.5 191t201.5 69t197.5 -66.5t70.5 -189.5v-36h-366q12 -104 102 -104q60 0 88 44h168q-13 -69 -82.5 -114.5t-177.5 -45.5q-132 0 -204 63t-72 189zM308 388q-77 0 -95 -84h182q-13 84 -87 84z" />
    <glyph glyph-name="f" unicode="f" horiz-adv-x="380" 
d="M92 0v364h-92v124h92v32q0 114 46.5 163t169.5 49h80v-128h-44q-43 0 -59.5 -15.5t-16.5 -56.5v-44h104v-124h-104v-364h-176z" />
    <glyph glyph-name="g" unicode="g" horiz-adv-x="652" 
d="M52 -60h164q3 -25 27 -40.5t65 -15.5q64 0 88 34t24 110v36h-4q-41 -76 -156 -76q-96 0 -160 66t-64 186q0 122 66 191t166 69q107 0 148 -76h4v64h168v-460q0 -134 -69 -195t-211 -61q-245 0 -256 168zM216 240q0 -59 24.5 -93.5t71.5 -34.5t73.5 36.5t26.5 95.5
t-26.5 95.5t-73.5 36.5q-46 0 -71 -38t-25 -98z" />
    <glyph glyph-name="h" unicode="h" horiz-adv-x="640" 
d="M64 0v732h176v-148q0 -98 -8 -164h4q21 38 60 59t88 21q86 0 141 -49t55 -156v-295h-176v276q0 96 -76 96q-39 0 -63.5 -28t-24.5 -79v-265h-176z" />
    <glyph glyph-name="i" unicode="i" horiz-adv-x="304" 
d="M60 588v144h184v-144h-184zM64 0v488h176v-488h-176z" />
    <glyph glyph-name="j" unicode="j" horiz-adv-x="304" 
d="M60 588v144h184v-144h-184zM64 -16v504h176v-504q0 -107 -45.5 -155.5t-166.5 -48.5h-52v128h28q34 0 47 18t13 58z" />
    <glyph glyph-name="k" unicode="k" horiz-adv-x="604" 
d="M64 0v732h176v-408l148 164h196l-184 -195l200 -293h-200l-114 171l-46 -49v-122h-176z" />
    <glyph glyph-name="l" unicode="l" horiz-adv-x="304" 
d="M64 0v732h176v-732h-176z" />
    <glyph glyph-name="m" unicode="m" horiz-adv-x="964" 
d="M64 0v488h168v-68h4q21 38 60 59t88 21q123 0 166 -92q50 92 166 92q85 0 136.5 -48.5t51.5 -156.5v-295h-176v280q0 92 -72 92q-37 0 -60.5 -27t-23.5 -78v-267h-176v280q0 92 -72 92q-37 0 -60.5 -27t-23.5 -79v-266h-176z" />
    <glyph glyph-name="n" unicode="n" horiz-adv-x="640" 
d="M64 0v488h168v-68h4q21 38 60 59t88 21q86 0 141 -49t55 -156v-295h-176v276q0 96 -76 96q-40 0 -64 -29.5t-24 -82.5v-260h-176z" />
    <glyph glyph-name="o" unicode="o" horiz-adv-x="632" 
d="M36 244q0 120 78 188t202 68q127 0 203.5 -66.5t76.5 -189.5q0 -120 -78 -188t-202 -68q-127 0 -203.5 66.5t-76.5 189.5zM216 244q0 -63 26.5 -97.5t73.5 -34.5t73.5 34.5t26.5 97.5q0 62 -26.5 96.5t-73.5 34.5t-73.5 -34.5t-26.5 -96.5z" />
    <glyph glyph-name="p" unicode="p" horiz-adv-x="652" 
d="M240 -101v-119h-176v708h168v-64h4q41 76 156 76q96 0 160 -66t64 -186q0 -122 -66 -191t-166 -69q-107 0 -148 76h-4q8 -64 8 -165zM436 248q0 59 -24.5 93.5t-71.5 34.5q-46 0 -72 -35t-28 -92v-5q0 -59 26.5 -95.5t73.5 -36.5q46 0 71 38t25 98z" />
    <glyph glyph-name="q" unicode="q" horiz-adv-x="652" 
d="M412 -100q0 100 8 164h-4q-41 -76 -156 -76q-96 0 -160 66t-64 186q0 122 66 191t166 69q107 0 148 -76h4v64h168v-708h-176v120zM216 240q0 -59 24.5 -93.5t71.5 -34.5t73.5 36.5t26.5 95.5t-26.5 95.5t-73.5 36.5q-46 0 -71 -38t-25 -98z" />
    <glyph glyph-name="r" unicode="r" horiz-adv-x="436" 
d="M64 0v488h168v-72h3q41 84 129 84q39 0 68 -20l-24 -148q-32 16 -60 16q-53 0 -80.5 -36.5t-27.5 -100.5v-211h-176z" />
    <glyph glyph-name="s" unicode="s" 
d="M28 140h164q0 -48 84 -48t84 40q0 21 -15.5 30t-52.5 14l-84 12q-82 12 -123 46t-41 98q0 82 65.5 125t174.5 43q110 0 173 -38.5t63 -109.5h-160q0 44 -78 44q-33 0 -51.5 -10.5t-18.5 -25.5q0 -19 14 -28t54 -15l84 -12q49 -7 84 -20.5t61.5 -45t26.5 -79.5
q0 -86 -71 -129t-189 -43q-115 0 -181.5 37t-66.5 115z" />
    <glyph glyph-name="t" unicode="t" horiz-adv-x="400" 
d="M88 196v168h-92v124h92v148h176v-148h112v-124h-112v-156q0 -41 13.5 -56.5t54.5 -15.5h44v-136h-85q-121 0 -162 40.5t-41 155.5z" />
    <glyph glyph-name="u" unicode="u" horiz-adv-x="636" 
d="M56 193v295h176v-276q0 -96 76 -96q40 0 64 29.5t24 82.5v260h176v-488h-168v68h-4q-21 -38 -60 -59t-88 -21q-86 0 -141 49t-55 156z" />
    <glyph glyph-name="v" unicode="v" horiz-adv-x="576" 
d="M180 0l-176 488h192l96 -324h4l96 324h180l-168 -488h-224z" />
    <glyph glyph-name="w" unicode="w" horiz-adv-x="836" 
d="M152 0l-144 488h172l76 -320h4l84 320h152l84 -320h4l76 320h168l-144 -488h-188l-76 304h-4l-76 -304h-188z" />
    <glyph glyph-name="x" unicode="x" horiz-adv-x="552" 
d="M4 0l174 246l-170 242h192l84 -131l80 131h180l-171 -241l175 -247h-192l-89 136l-83 -136h-180z" />
    <glyph glyph-name="y" unicode="y" horiz-adv-x="576" 
d="M180 0l-176 488h192l96 -324h4l96 324h180l-180 -530q-63 -186 -224 -186h-72v132h28q45 0 71.5 17t40.5 63l5 16h-61z" />
    <glyph glyph-name="z" unicode="z" horiz-adv-x="520" 
d="M32 360v128h452v-92l-227 -268h231v-128h-456v92l229 268h-229z" />
    <glyph glyph-name="braceleft" unicode="{" horiz-adv-x="416" 
d="M116 -57v121q0 76 -22.5 104t-89.5 28v132q67 0 89.5 28t22.5 104v113q0 97 45 134t155 37h88v-132h-56q-43 0 -57.5 -16t-14.5 -64v-140q0 -55 -22.5 -84t-77.5 -44v-4q55 -15 77.5 -44t22.5 -84v-148q0 -48 14.5 -64t57.5 -16h56v-132h-88q-110 0 -155 37t-45 134z" />
    <glyph glyph-name="bar" unicode="|" horiz-adv-x="320" 
d="M88 -240v1000h144v-1000h-144z" />
    <glyph glyph-name="braceright" unicode="}" horiz-adv-x="416" 
d="M12 -96h56q43 0 57.5 16t14.5 64v148q0 55 22.5 84t77.5 44v4q-55 15 -77.5 44t-22.5 84v140q0 48 -14.5 64t-57.5 16h-56v132h88q110 0 155 -37t45 -134v-113q0 -76 22.5 -104t89.5 -28v-132q-67 0 -89.5 -28t-22.5 -104v-121q0 -97 -45 -134t-155 -37h-88v132z" />
    <glyph glyph-name="asciitilde" unicode="~" 
d="M40 164q0 101 43.5 150.5t104.5 49.5q51 0 108 -32t76 -32q44 0 44 72h116q0 -101 -43.5 -150.5t-104.5 -49.5q-51 0 -108 32t-76 32q-44 0 -44 -72h-116z" />
    <glyph glyph-name="uni00A0" unicode="&#xa0;" horiz-adv-x="220" 
 />
    <glyph glyph-name="exclamdown" unicode="&#xa1;" horiz-adv-x="296" 
d="M64 328v160h168v-160h-168zM60 -16l36 284h104l36 -284v-184h-176v184z" />
    <glyph glyph-name="cent" unicode="&#xa2;" 
d="M236 -12v109q-97 17 -152.5 83.5t-55.5 167.5t57 168t155 83v101h120v-101q84 -14 133 -64.5t55 -118.5h-172q-4 25 -23 44.5t-53 19.5q-44 0 -68 -36.5t-24 -95.5t24 -95.5t68 -36.5q62 0 76 64h172q-6 -70 -55 -120.5t-137 -63.5v-108h-120z" />
    <glyph glyph-name="sterling" unicode="&#xa3;" 
d="M60 308v88h70q-34 72 -34 128q0 81 58.5 128.5t161.5 47.5q198 0 204 -176h-152q-4 64 -52 64q-23 0 -37.5 -14.5t-14.5 -41.5q0 -51 36 -136h148v-88h-115q11 -44 11 -76q0 -48 -17 -99q37 -25 57 -25q48 0 48 80h124q0 -98 -33 -149t-111 -51q-69 0 -135 59
q-54 -59 -137 -59q-60 0 -100 28.5t-40 87.5q0 53 35.5 86.5t96.5 33.5q25 0 52 -8v12q0 37 -15 80h-109zM136 64q36 0 44 67q-23 13 -44 13q-18 0 -29 -12t-11 -28q0 -17 10 -28.5t30 -11.5z" />
    <glyph glyph-name="currency" unicode="&#xa4;" 
d="M144 130l-72 70l62 62q-22 36 -22 82q0 42 21 78l-57 58l72 70l59 -60q36 18 77 18q40 0 76 -18l60 60l72 -70l-57 -58q21 -36 21 -78q0 -46 -22 -82l62 -62l-72 -70l-67 66q-34 -16 -73 -16q-40 0 -74 16zM284 272q30 0 49 19.5t19 52.5t-19 52.5t-49 19.5t-49 -19.5
t-19 -52.5t19 -52.5t49 -19.5z" />
    <glyph glyph-name="yen" unicode="&#xa5;" 
d="M76 216v80h114l-206 392h204l96 -224h4l104 224h192l-207 -392h115v-80h-120v-52h120v-80h-120v-84h-176v84h-120v80h120v52h-120z" />
    <glyph glyph-name="brokenbar" unicode="&#xa6;" horiz-adv-x="320" 
d="M88 336v352h144v-352h-144zM88 -164v352h144v-352h-144z" />
    <glyph glyph-name="section" unicode="&#xa7;" horiz-adv-x="580" 
d="M40 -72h160q1 -25 27 -38.5t57 -13.5q88 0 88 60q0 26 -19.5 41t-64.5 27l-108 28q-69 18 -106.5 62.5t-37.5 105.5q0 50 29.5 94t82.5 68q-96 48 -96 150q0 82 61 135t183 53q103 0 170.5 -42.5t73.5 -113.5h-160q-1 25 -27 38.5t-57 13.5q-88 0 -88 -60q0 -26 19.5 -41
t64.5 -27l108 -28q69 -18 106.5 -62.5t37.5 -105.5q0 -50 -30 -94t-82 -68q96 -50 96 -150q0 -82 -61 -135t-183 -53q-103 0 -170.5 42.5t-73.5 113.5zM316 312l-52 13q-34 -9 -53 -33t-19 -52q0 -62 72 -80l52 -14q33 9 52.5 33.5t19.5 52.5q0 62 -72 80z" />
    <glyph glyph-name="dieresis" unicode="&#xa8;" horiz-adv-x="616" 
d="M352 588v144h152v-144h-152zM112 588v144h152v-144h-152z" />
    <glyph glyph-name="copyright" unicode="&#xa9;" horiz-adv-x="776" 
d="M32 348q0 151 100.5 251.5t255.5 100.5q152 0 254 -100.5t102 -251.5q0 -152 -101 -256t-255 -104t-255 104t-101 256zM124 348q0 -122 74 -203t190 -81q114 0 189 81.5t75 202.5q0 120 -73.5 196t-190.5 76t-190.5 -76t-73.5 -196zM212 347q0 77 48.5 126.5t131.5 49.5
q64 0 108 -34t52 -90h-104q-18 36 -56 36q-31 0 -49.5 -24.5t-18.5 -63.5t18.5 -63.5t49.5 -24.5q38 0 56 36h104q-8 -56 -52 -90t-108 -34q-83 0 -131.5 49.5t-48.5 126.5z" />
    <glyph glyph-name="ordfeminine" unicode="&#xaa;" horiz-adv-x="426" 
d="M148 336q-57 0 -86.5 25.5t-29.5 70.5q0 48 27.5 74.5t88.5 33.5l64 8q27 4 35.5 10.5t8.5 21.5q0 32 -44 32q-48 0 -52 -44h-116q4 65 51 96.5t117 31.5q87 0 129.5 -34t42.5 -106v-212h-124v35h-4q-36 -43 -108 -43zM256 464v35q-7 -12 -28 -15l-32 -4q-36 -4 -36 -32
q0 -32 40 -32q22 0 39 12.5t17 35.5z" />
    <glyph glyph-name="guillemotleft" unicode="&#xab;" horiz-adv-x="620" 
d="M292 252l140 204h144l-108 -204l108 -204h-144zM184 48l-140 204l140 204h144l-108 -204l108 -204h-144z" />
    <glyph glyph-name="logicalnot" unicode="&#xac;" 
d="M60 192v128h448v-292h-136v164h-312z" />
    <glyph glyph-name="uni00AD" unicode="&#xad;" horiz-adv-x="396" 
d="M44 180v144h308v-144h-308z" />
    <glyph glyph-name="registered" unicode="&#xae;" horiz-adv-x="776" 
d="M32 348q0 151 100.5 251.5t255.5 100.5q152 0 254 -100.5t102 -251.5q0 -152 -101 -256t-255 -104t-255 104t-101 256zM124 348q0 -122 74 -203t190 -81q114 0 189 81.5t75 202.5q0 120 -73.5 196t-190.5 76t-190.5 -76t-73.5 -196zM232 176v344h180q68 0 104 -31t36 -85
q0 -75 -71 -107l83 -121h-116l-66 108h-42v-108h-108zM404 436h-64v-72h64q18 0 29 10t11 26t-11 26t-29 10z" />
    <glyph glyph-name="macron" unicode="&#xaf;" horiz-adv-x="616" 
d="M144 596v108h324v-108h-324z" />
    <glyph glyph-name="degree" unicode="&#xb0;" horiz-adv-x="440" 
d="M220 364q-79 0 -129.5 46.5t-50.5 121.5t50.5 121.5t129.5 46.5t129.5 -46.5t50.5 -121.5t-50.5 -121.5t-129.5 -46.5zM220 604q-28 0 -48 -19.5t-20 -52.5t20 -52.5t48 -19.5t48 19.5t20 52.5t-20 52.5t-48 19.5z" />
    <glyph glyph-name="plusminus" unicode="&#xb1;" 
d="M64 340v128h152v144h136v-144h160v-128h-160v-144h-136v144h-152zM56 0v128h456v-128h-456z" />
    <glyph glyph-name="twosuperior" unicode="&#xb2;" horiz-adv-x="384" 
d="M24 496q0 79 33.5 121.5t96.5 67.5l10 4q43 17 57.5 25.5t14.5 21.5q0 28 -40 28q-44 0 -44 -44h-124q1 62 48.5 95t115.5 33q78 0 123 -30t45 -78q0 -43 -20.5 -67t-77.5 -46l-10 -4q-10 -4 -21 -8.5t-17 -6.5t-12.5 -5t-10 -4.5t-6.5 -3.5t-4 -3.5t-1 -3.5h176v-92
h-332z" />
    <glyph glyph-name="threesuperior" unicode="&#xb3;" horiz-adv-x="384" 
d="M36 604h116q0 -44 40 -44q19 0 29.5 10.5t10.5 27.5q0 38 -48 38h-12v68h12q44 0 44 36t-36 36t-36 -40h-112q3 54 43 83t105 29q72 0 114 -27t42 -73q0 -60 -60 -76v-4q68 -14 68 -76q0 -104 -164 -104q-76 0 -114.5 28t-41.5 88z" />
    <glyph glyph-name="acute" unicode="&#xb4;" horiz-adv-x="616" 
d="M248 568l96 164h172l-152 -164h-116z" />
    <glyph glyph-name="mu" unicode="&#xb5;" horiz-adv-x="628" 
d="M404 0v68h-4q-40 -80 -144 -80q-20 0 -36 6q12 -94 12 -170v-44h-176v708h176v-281q0 -91 76 -91q39 0 63.5 29t24.5 83v260h176v-488h-168z" />
    <glyph glyph-name="paragraph" unicode="&#xb6;" horiz-adv-x="628" 
d="M436 0v688h148v-688h-148zM228 0v249q-89 17 -138.5 72.5t-49.5 146.5q0 100 67.5 160t184.5 60h84v-688h-148z" />
    <glyph glyph-name="periodcentered" unicode="&#xb7;" horiz-adv-x="304" 
d="M60 172v164h184v-164h-184z" />
    <glyph glyph-name="cedilla" unicode="&#xb8;" horiz-adv-x="616" 
d="M248 -92l36 92h52v-40q44 -1 68 -24t24 -60q0 -42 -30 -69t-90 -27h-80v68h56q40 0 40 32q0 28 -40 28h-36z" />
    <glyph glyph-name="onesuperior" unicode="&#xb9;" horiz-adv-x="384" 
d="M84 664l-48 84l160 92h76v-252h92v-92h-316v92h92v107z" />
    <glyph glyph-name="ordmasculine" unicode="&#xba;" horiz-adv-x="449" 
d="M224 336q-92 0 -144 48.5t-52 131.5t52 131.5t144 48.5t144 -48.5t52 -131.5t-52 -131.5t-144 -48.5zM224 436q31 0 47.5 22.5t16.5 57.5t-16.5 57.5t-47.5 22.5t-47.5 -22.5t-16.5 -57.5t16.5 -57.5t47.5 -22.5z" />
    <glyph glyph-name="guillemotright" unicode="&#xbb;" horiz-adv-x="620" 
d="M292 48l108 204l-108 204h144l140 -204l-140 -204h-144zM44 48l108 204l-108 204h144l140 -204l-140 -204h-144z" />
    <glyph glyph-name="onequarter" unicode="&#xbc;" horiz-adv-x="852" 
d="M484 52v64l188 232h112v-208h44v-88h-44v-52h-128v52h-172zM84 512l-48 84l160 92h76v-252h92v-92h-316v92h92v107zM244 -12l348 712h96l-348 -712h-96zM596 140h60v77z" />
    <glyph glyph-name="onehalf" unicode="&#xbd;" horiz-adv-x="852" 
d="M492 0q0 79 33.5 121.5t96.5 67.5l10 4q43 17 57.5 25.5t14.5 21.5q0 28 -40 28q-44 0 -44 -44h-124q1 62 48.5 95t115.5 33q78 0 123 -30t45 -78q0 -43 -20.5 -67t-77.5 -46l-10 -4q-10 -4 -21 -8.5t-17 -6.5t-12.5 -5t-10 -4.5t-6.5 -3.5t-4 -3.5t-1 -3.5h176v-92h-332
zM84 512l-48 84l160 92h76v-252h92v-92h-316v92h92v107zM224 -12l348 712h96l-348 -712h-96z" />
    <glyph glyph-name="threequarters" unicode="&#xbe;" horiz-adv-x="852" 
d="M484 52v64l188 232h112v-208h44v-88h-44v-52h-128v52h-172zM36 452h116q0 -44 40 -44q19 0 29.5 10.5t10.5 27.5q0 38 -48 38h-12v68h12q44 0 44 36t-36 36t-36 -40h-112q3 54 43 83t105 29q72 0 114 -27t42 -73q0 -60 -60 -76v-4q68 -14 68 -76q0 -104 -164 -104
q-76 0 -114.5 28t-41.5 88zM220 -12l348 712h96l-348 -712h-96zM596 140h60v77z" />
    <glyph glyph-name="questiondown" unicode="&#xbf;" horiz-adv-x="532" 
d="M192 328v160h168v-160h-168zM12 -16q0 46 19 81t46 55.5t54 38t46 41t19 52.5v16h160v-20q0 -48 -17.5 -83.5t-43 -56t-51 -37t-43 -36t-17.5 -43.5q0 -29 20.5 -48.5t59.5 -19.5q49 0 70.5 24t21.5 60h164q0 -94 -62.5 -157t-193.5 -63q-117 0 -184.5 51t-67.5 145z" />
    <glyph glyph-name="Agrave" unicode="&#xc0;" horiz-adv-x="736" 
d="M4 0l256 688h216l256 -688h-195l-40 124h-264l-41 -124h-188zM365 524l-86 -260h173l-83 260h-4zM312 768l-152 164h172l96 -164h-116z" />
    <glyph glyph-name="Aacute" unicode="&#xc1;" horiz-adv-x="736" 
d="M4 0l256 688h216l256 -688h-195l-40 124h-264l-41 -124h-188zM365 524l-86 -260h173l-83 260h-4zM308 768l96 164h172l-152 -164h-116z" />
    <glyph glyph-name="Acircumflex" unicode="&#xc2;" horiz-adv-x="736" 
d="M4 0l256 688h216l256 -688h-195l-40 124h-264l-41 -124h-188zM365 524l-86 -260h173l-83 260h-4zM180 768l128 164h119l129 -164h-132l-56 84l-56 -84h-132z" />
    <glyph glyph-name="Atilde" unicode="&#xc3;" horiz-adv-x="736" 
d="M4 0l256 688h216l256 -688h-195l-40 124h-264l-41 -124h-188zM365 524l-86 -260h173l-83 260h-4zM180 768q0 144 112 144q33 0 85 -20t71 -20q32 0 32 48h76q0 -144 -112 -144q-33 0 -85 20t-71 20q-32 0 -32 -48h-76z" />
    <glyph glyph-name="Adieresis" unicode="&#xc4;" horiz-adv-x="736" 
d="M4 0l256 688h216l256 -688h-195l-40 124h-264l-41 -124h-188zM365 524l-86 -260h173l-83 260h-4zM412 768v144h152v-144h-152zM172 768v144h152v-144h-152z" />
    <glyph glyph-name="Aring" unicode="&#xc5;" horiz-adv-x="736" 
d="M4 0l256 688h216l256 -688h-195l-40 124h-264l-41 -124h-188zM365 524l-86 -260h173l-83 260h-4zM368 744q-51 0 -83.5 31t-32.5 77q0 48 33 78t83 30t83 -30t33 -78q0 -46 -32.5 -77t-83.5 -31zM368 808q18 0 31 12t13 32t-13 32t-31 12t-31 -12t-13 -32t13 -32t31 -12z
" />
    <glyph glyph-name="AE" unicode="&#xc6;" horiz-adv-x="1180" 
d="M-4 0l500 688h624v-148h-360v-120h296v-136h-296v-136h372v-148h-556v148h-268l-104 -148h-208zM572 524l-169 -240h173v240h-4z" />
    <glyph glyph-name="Ccedilla" unicode="&#xc7;" horiz-adv-x="756" 
d="M344 -92l31 81q-159 7 -245 105.5t-86 249.5q0 154 96.5 255t259.5 101q135 0 218.5 -66t101.5 -186h-180q-28 100 -140 100q-79 0 -123.5 -56t-44.5 -148q0 -91 46 -147.5t126 -56.5q108 0 136 100h180q-17 -112 -92 -177.5t-196 -73.5v-29q44 -1 68 -24t24 -60
q0 -42 -30 -69t-90 -27h-80v68h56q40 0 40 32q0 28 -40 28h-36z" />
    <glyph glyph-name="Egrave" unicode="&#xc8;" horiz-adv-x="672" 
d="M72 0v688h540v-148h-356v-120h292v-136h-292v-136h368v-148h-552zM288 768l-152 164h172l96 -164h-116z" />
    <glyph glyph-name="Eacute" unicode="&#xc9;" horiz-adv-x="672" 
d="M72 0v688h540v-148h-356v-120h292v-136h-292v-136h368v-148h-552zM284 768l96 164h172l-152 -164h-116z" />
    <glyph glyph-name="Ecircumflex" unicode="&#xca;" horiz-adv-x="672" 
d="M72 0v688h540v-148h-356v-120h292v-136h-292v-136h368v-148h-552zM156 768l128 164h119l129 -164h-132l-56 84l-56 -84h-132z" />
    <glyph glyph-name="Edieresis" unicode="&#xcb;" horiz-adv-x="672" 
d="M72 0v688h540v-148h-356v-120h292v-136h-292v-136h368v-148h-552zM388 768v144h152v-144h-152zM148 768v144h152v-144h-152z" />
    <glyph glyph-name="Igrave" unicode="&#xcc;" horiz-adv-x="328" 
d="M72 0v688h184v-688h-184zM108 768l-152 164h172l96 -164h-116z" />
    <glyph glyph-name="Iacute" unicode="&#xcd;" horiz-adv-x="328" 
d="M72 0v688h184v-688h-184zM104 768l96 164h172l-152 -164h-116z" />
    <glyph glyph-name="Icircumflex" unicode="&#xce;" horiz-adv-x="328" 
d="M72 0v688h184v-688h-184zM-24 768l128 164h119l129 -164h-132l-56 84l-56 -84h-132z" />
    <glyph glyph-name="Idieresis" unicode="&#xcf;" horiz-adv-x="328" 
d="M72 0v688h184v-688h-184zM208 768v144h152v-144h-152zM-32 768v144h152v-144h-152z" />
    <glyph glyph-name="Eth" unicode="&#xd0;" horiz-adv-x="772" 
d="M4 300v88h68v300h284q179 0 275.5 -95t96.5 -249t-96.5 -249t-275.5 -95h-284v300h-68zM336 540h-80v-152h136v-88h-136v-152h80q105 0 154.5 54t49.5 142t-49.5 142t-154.5 54z" />
    <glyph glyph-name="Ntilde" unicode="&#xd1;" horiz-adv-x="792" 
d="M72 0v688h160l304 -376h4l-4 376h184v-688h-156l-308 380h-4l4 -380h-184zM208 768q0 144 112 144q33 0 85 -20t71 -20q32 0 32 48h76q0 -144 -112 -144q-33 0 -85 20t-71 20q-32 0 -32 -48h-76z" />
    <glyph glyph-name="Ograve" unicode="&#xd2;" horiz-adv-x="824" 
d="M44 344q0 156 100 256t268 100q165 0 266.5 -100t101.5 -256t-101.5 -256t-266.5 -100q-168 0 -268 100t-100 256zM232 344q0 -91 50 -147.5t130 -56.5t130 57.5t50 146.5t-50 146.5t-130 57.5t-130 -56.5t-50 -147.5zM356 768l-152 164h172l96 -164h-116z" />
    <glyph glyph-name="Oacute" unicode="&#xd3;" horiz-adv-x="824" 
d="M44 344q0 156 100 256t268 100q165 0 266.5 -100t101.5 -256t-101.5 -256t-266.5 -100q-168 0 -268 100t-100 256zM232 344q0 -91 50 -147.5t130 -56.5t130 57.5t50 146.5t-50 146.5t-130 57.5t-130 -56.5t-50 -147.5zM352 768l96 164h172l-152 -164h-116z" />
    <glyph glyph-name="Ocircumflex" unicode="&#xd4;" horiz-adv-x="824" 
d="M44 344q0 156 100 256t268 100q165 0 266.5 -100t101.5 -256t-101.5 -256t-266.5 -100q-168 0 -268 100t-100 256zM232 344q0 -91 50 -147.5t130 -56.5t130 57.5t50 146.5t-50 146.5t-130 57.5t-130 -56.5t-50 -147.5zM224 768l128 164h119l129 -164h-132l-56 84l-56 -84
h-132z" />
    <glyph glyph-name="Otilde" unicode="&#xd5;" horiz-adv-x="824" 
d="M44 344q0 156 100 256t268 100q165 0 266.5 -100t101.5 -256t-101.5 -256t-266.5 -100q-168 0 -268 100t-100 256zM232 344q0 -91 50 -147.5t130 -56.5t130 57.5t50 146.5t-50 146.5t-130 57.5t-130 -56.5t-50 -147.5zM224 768q0 144 112 144q33 0 85 -20t71 -20
q32 0 32 48h76q0 -144 -112 -144q-33 0 -85 20t-71 20q-32 0 -32 -48h-76z" />
    <glyph glyph-name="Odieresis" unicode="&#xd6;" horiz-adv-x="824" 
d="M44 344q0 156 100 256t268 100q165 0 266.5 -100t101.5 -256t-101.5 -256t-266.5 -100q-168 0 -268 100t-100 256zM232 344q0 -91 50 -147.5t130 -56.5t130 57.5t50 146.5t-50 146.5t-130 57.5t-130 -56.5t-50 -147.5zM456 768v144h152v-144h-152zM216 768v144h152v-144
h-152z" />
    <glyph glyph-name="multiply" unicode="&#xd7;" 
d="M56 388l96 94l132 -133l132 133l96 -94l-134 -134l138 -138l-96 -94l-136 137l-136 -137l-96 94l137 138z" />
    <glyph glyph-name="Oslash" unicode="&#xd8;" horiz-adv-x="824" 
d="M60 -12l84 100q-100 97 -100 256q0 156 100 256t268 100q115 0 204 -53l44 53h104l-85 -101q101 -99 101 -255t-101.5 -256t-266.5 -100q-118 0 -205 51l-43 -51h-104zM232 344q0 -68 28 -118l248 294q-42 28 -96 28q-80 0 -130 -56.5t-50 -147.5zM592 344q0 68 -29 117
l-248 -294q43 -27 97 -27q80 0 130 57.5t50 146.5z" />
    <glyph glyph-name="Ugrave" unicode="&#xd9;" horiz-adv-x="768" 
d="M64 280v408h184v-404q0 -71 34.5 -107.5t101.5 -36.5t101.5 36.5t34.5 107.5v404h184v-408q0 -82 -23 -140t-67.5 -90.5t-100.5 -47t-129 -14.5t-129 14.5t-100.5 47t-67.5 90.5t-23 140zM328 768l-152 164h172l96 -164h-116z" />
    <glyph glyph-name="Uacute" unicode="&#xda;" horiz-adv-x="768" 
d="M64 280v408h184v-404q0 -71 34.5 -107.5t101.5 -36.5t101.5 36.5t34.5 107.5v404h184v-408q0 -82 -23 -140t-67.5 -90.5t-100.5 -47t-129 -14.5t-129 14.5t-100.5 47t-67.5 90.5t-23 140zM324 768l96 164h172l-152 -164h-116z" />
    <glyph glyph-name="Ucircumflex" unicode="&#xdb;" horiz-adv-x="768" 
d="M64 280v408h184v-404q0 -71 34.5 -107.5t101.5 -36.5t101.5 36.5t34.5 107.5v404h184v-408q0 -82 -23 -140t-67.5 -90.5t-100.5 -47t-129 -14.5t-129 14.5t-100.5 47t-67.5 90.5t-23 140zM196 768l128 164h119l129 -164h-132l-56 84l-56 -84h-132z" />
    <glyph glyph-name="Udieresis" unicode="&#xdc;" horiz-adv-x="768" 
d="M64 280v408h184v-404q0 -71 34.5 -107.5t101.5 -36.5t101.5 36.5t34.5 107.5v404h184v-408q0 -82 -23 -140t-67.5 -90.5t-100.5 -47t-129 -14.5t-129 14.5t-100.5 47t-67.5 90.5t-23 140zM428 768v144h152v-144h-152zM188 768v144h152v-144h-152z" />
    <glyph glyph-name="Yacute" unicode="&#xdd;" horiz-adv-x="732" 
d="M272 0v255l-264 433h208l150 -264h4l158 264h196l-268 -433v-255h-184zM306 768l96 164h172l-152 -164h-116z" />
    <glyph glyph-name="Thorn" unicode="&#xde;" horiz-adv-x="720" 
d="M72 0v688h184v-100h156q127 0 197.5 -64.5t70.5 -171.5q0 -110 -70.5 -177t-197.5 -67h-156v-108h-184zM380 448h-124v-200h124q54 0 83 26t29 74t-29 74t-83 26z" />
    <glyph glyph-name="germandbls" unicode="&#xdf;" horiz-adv-x="668" 
d="M64 0v488q0 121 72.5 188.5t203.5 67.5q125 0 182.5 -48t57.5 -120q0 -33 -12.5 -61t-27.5 -44t-27.5 -34.5t-12.5 -32.5q0 -17 22 -37.5t48 -38.5t48 -55t22 -85q0 -92 -56.5 -140t-135.5 -48h-132v132h104q44 0 44 40q0 17 -14 32t-34 28.5t-40 30.5t-34 46t-14 67
q0 34 13 63t29 45.5t29 37t13 38.5q0 27 -20 43.5t-56 16.5q-41 0 -68.5 -29t-27.5 -91v-500h-176z" />
    <glyph glyph-name="agrave" unicode="&#xe0;" horiz-adv-x="596" 
d="M36 128q0 63 41.5 99.5t130.5 48.5l92 12q36 4 48 13t12 31q0 23 -17 39.5t-51 16.5q-70 0 -76 -64h-164q8 90 75 133t165 43q123 0 183.5 -43t60.5 -133v-324h-168v58h-4q-50 -70 -160 -70q-84 0 -126 38t-42 102zM264 100q39 0 67.5 22t28.5 66v39q-13 -18 -44 -23
l-56 -8q-52 -7 -52 -48q0 -48 56 -48zM244 568l-152 164h172l96 -164h-116z" />
    <glyph glyph-name="aacute" unicode="&#xe1;" horiz-adv-x="596" 
d="M36 128q0 63 41.5 99.5t130.5 48.5l92 12q36 4 48 13t12 31q0 23 -17 39.5t-51 16.5q-70 0 -76 -64h-164q8 90 75 133t165 43q123 0 183.5 -43t60.5 -133v-324h-168v58h-4q-50 -70 -160 -70q-84 0 -126 38t-42 102zM264 100q39 0 67.5 22t28.5 66v39q-13 -18 -44 -23
l-56 -8q-52 -7 -52 -48q0 -48 56 -48zM224 568l96 164h172l-152 -164h-116z" />
    <glyph glyph-name="acircumflex" unicode="&#xe2;" horiz-adv-x="596" 
d="M36 128q0 63 41.5 99.5t130.5 48.5l92 12q36 4 48 13t12 31q0 23 -17 39.5t-51 16.5q-70 0 -76 -64h-164q8 90 75 133t165 43q123 0 183.5 -43t60.5 -133v-324h-168v58h-4q-50 -70 -160 -70q-84 0 -126 38t-42 102zM264 100q39 0 67.5 22t28.5 66v39q-13 -18 -44 -23
l-56 -8q-52 -7 -52 -48q0 -48 56 -48zM104 568l128 164h119l129 -164h-132l-56 84l-56 -84h-132z" />
    <glyph glyph-name="atilde" unicode="&#xe3;" horiz-adv-x="596" 
d="M36 128q0 63 41.5 99.5t130.5 48.5l92 12q36 4 48 13t12 31q0 23 -17 39.5t-51 16.5q-70 0 -76 -64h-164q8 90 75 133t165 43q123 0 183.5 -43t60.5 -133v-324h-168v58h-4q-50 -70 -160 -70q-84 0 -126 38t-42 102zM264 100q39 0 67.5 22t28.5 66v39q-13 -18 -44 -23
l-56 -8q-52 -7 -52 -48q0 -48 56 -48zM104 576q0 144 112 144q33 0 85 -20t71 -20q32 0 32 48h76q0 -144 -112 -144q-33 0 -85 20t-71 20q-32 0 -32 -48h-76z" />
    <glyph glyph-name="adieresis" unicode="&#xe4;" horiz-adv-x="596" 
d="M36 128q0 63 41.5 99.5t130.5 48.5l92 12q36 4 48 13t12 31q0 23 -17 39.5t-51 16.5q-70 0 -76 -64h-164q8 90 75 133t165 43q123 0 183.5 -43t60.5 -133v-324h-168v58h-4q-50 -70 -160 -70q-84 0 -126 38t-42 102zM264 100q39 0 67.5 22t28.5 66v39q-13 -18 -44 -23
l-56 -8q-52 -7 -52 -48q0 -48 56 -48zM336 588v144h152v-144h-152zM96 588v144h152v-144h-152z" />
    <glyph glyph-name="aring" unicode="&#xe5;" horiz-adv-x="596" 
d="M36 128q0 63 41.5 99.5t130.5 48.5l92 12q36 4 48 13t12 31q0 23 -17 39.5t-51 16.5q-70 0 -76 -64h-164q8 90 75 133t165 43q123 0 183.5 -43t60.5 -133v-324h-168v58h-4q-50 -70 -160 -70q-84 0 -126 38t-42 102zM264 100q39 0 67.5 22t28.5 66v39q-13 -18 -44 -23
l-56 -8q-52 -7 -52 -48q0 -48 56 -48zM292 544q-51 0 -83.5 31t-32.5 77q0 48 33 78t83 30t83 -30t33 -78q0 -46 -32.5 -77t-83.5 -31zM292 608q18 0 31 12t13 32t-13 32t-31 12t-31 -12t-13 -32t13 -32t31 -12z" />
    <glyph glyph-name="ae" unicode="&#xe6;" horiz-adv-x="896" 
d="M52 324q6 90 72.5 133t167.5 43q112 0 165 -45q59 45 147 45q119 0 187.5 -66.5t68.5 -189.5v-36h-343q12 -104 91 -104q48 0 76 44h168q-13 -68 -80.5 -114t-167.5 -46q-125 0 -188 85q-56 -85 -188 -85q-98 0 -145 37.5t-47 102.5q0 126 172 148l92 12q38 5 49 14
t11 30q0 23 -17 39.5t-51 16.5q-70 0 -76 -64h-164zM264 100q39 0 67.5 22.5t28.5 69.5v35q-13 -18 -44 -23l-56 -8q-52 -7 -52 -48q0 -48 56 -48zM604 388q-70 0 -84 -88h163q-3 43 -20.5 65.5t-58.5 22.5z" />
    <glyph glyph-name="ccedilla" unicode="&#xe7;" horiz-adv-x="596" 
d="M252 -92l31 81q-119 7 -185 71t-66 184q0 122 75 189t205 67q117 0 183.5 -54t72.5 -134h-172q-4 25 -25.5 44.5t-58.5 19.5q-47 0 -73.5 -36.5t-26.5 -95.5t26.5 -95.5t73.5 -36.5q38 0 58 19t26 45h172q-6 -76 -64 -128t-164 -59v-29q44 -1 68 -24t24 -60
q0 -42 -30 -69t-90 -27h-80v68h56q40 0 40 32q0 28 -40 28h-36z" />
    <glyph glyph-name="egrave" unicode="&#xe8;" horiz-adv-x="612" 
d="M32 240q0 122 74.5 191t201.5 69t197.5 -66.5t70.5 -189.5v-36h-366q12 -104 102 -104q60 0 88 44h168q-13 -69 -82.5 -114.5t-177.5 -45.5q-132 0 -204 63t-72 189zM308 388q-77 0 -95 -84h182q-13 84 -87 84zM252 568l-152 164h172l96 -164h-116z" />
    <glyph glyph-name="eacute" unicode="&#xe9;" horiz-adv-x="612" 
d="M32 240q0 122 74.5 191t201.5 69t197.5 -66.5t70.5 -189.5v-36h-366q12 -104 102 -104q60 0 88 44h168q-13 -69 -82.5 -114.5t-177.5 -45.5q-132 0 -204 63t-72 189zM308 388q-77 0 -95 -84h182q-13 84 -87 84zM248 568l96 164h172l-152 -164h-116z" />
    <glyph glyph-name="ecircumflex" unicode="&#xea;" horiz-adv-x="612" 
d="M32 240q0 122 74.5 191t201.5 69t197.5 -66.5t70.5 -189.5v-36h-366q12 -104 102 -104q60 0 88 44h168q-13 -69 -82.5 -114.5t-177.5 -45.5q-132 0 -204 63t-72 189zM308 388q-77 0 -95 -84h182q-13 84 -87 84zM120 568l128 164h119l129 -164h-132l-56 84l-56 -84h-132z
" />
    <glyph glyph-name="edieresis" unicode="&#xeb;" horiz-adv-x="612" 
d="M32 240q0 122 74.5 191t201.5 69t197.5 -66.5t70.5 -189.5v-36h-366q12 -104 102 -104q60 0 88 44h168q-13 -69 -82.5 -114.5t-177.5 -45.5q-132 0 -204 63t-72 189zM308 388q-77 0 -95 -84h182q-13 84 -87 84zM352 588v144h152v-144h-152zM112 588v144h152v-144h-152z
" />
    <glyph glyph-name="igrave" unicode="&#xec;" horiz-adv-x="304" 
d="M64 0v488h176v-488h-176zM96 568l-152 164h172l96 -164h-116z" />
    <glyph glyph-name="iacute" unicode="&#xed;" horiz-adv-x="304" 
d="M64 0v488h176v-488h-176zM92 568l96 164h172l-152 -164h-116z" />
    <glyph glyph-name="icircumflex" unicode="&#xee;" horiz-adv-x="304" 
d="M64 0v488h176v-488h-176zM-36 568l128 164h119l129 -164h-132l-56 84l-56 -84h-132z" />
    <glyph glyph-name="idieresis" unicode="&#xef;" horiz-adv-x="304" 
d="M64 0v488h176v-488h-176zM196 588v144h152v-144h-152zM-44 588v144h152v-144h-152z" />
    <glyph glyph-name="eth" unicode="&#xf0;" horiz-adv-x="648" 
d="M224 484l-48 64l63 44l-83 32l48 120q99 -30 165 -62l83 58l48 -64l-54 -38q79 -55 116.5 -137t37.5 -209v-24q0 -280 -280 -280q-131 0 -203.5 64t-72.5 176q0 109 69 174.5t179 65.5q75 0 120 -40h5q-22 77 -97 123zM220 228q0 -52 26.5 -84t73.5 -32t73.5 32t26.5 84
t-26.5 84t-73.5 32t-73.5 -32t-26.5 -84z" />
    <glyph glyph-name="ntilde" unicode="&#xf1;" horiz-adv-x="640" 
d="M64 0v488h168v-68h4q21 38 60 59t88 21q86 0 141 -49t55 -156v-295h-176v276q0 96 -76 96q-40 0 -64 -29.5t-24 -82.5v-260h-176zM136 576q0 144 112 144q33 0 85 -20t71 -20q32 0 32 48h76q0 -144 -112 -144q-33 0 -85 20t-71 20q-32 0 -32 -48h-76z" />
    <glyph glyph-name="ograve" unicode="&#xf2;" horiz-adv-x="632" 
d="M36 244q0 120 78 188t202 68q127 0 203.5 -66.5t76.5 -189.5q0 -120 -78 -188t-202 -68q-127 0 -203.5 66.5t-76.5 189.5zM216 244q0 -63 26.5 -97.5t73.5 -34.5t73.5 34.5t26.5 97.5q0 62 -26.5 96.5t-73.5 34.5t-73.5 -34.5t-26.5 -96.5zM260 568l-152 164h172l96 -164
h-116z" />
    <glyph glyph-name="oacute" unicode="&#xf3;" horiz-adv-x="632" 
d="M36 244q0 120 78 188t202 68q127 0 203.5 -66.5t76.5 -189.5q0 -120 -78 -188t-202 -68q-127 0 -203.5 66.5t-76.5 189.5zM216 244q0 -63 26.5 -97.5t73.5 -34.5t73.5 34.5t26.5 97.5q0 62 -26.5 96.5t-73.5 34.5t-73.5 -34.5t-26.5 -96.5zM256 568l96 164h172l-152 -164
h-116z" />
    <glyph glyph-name="ocircumflex" unicode="&#xf4;" horiz-adv-x="632" 
d="M36 244q0 120 78 188t202 68q127 0 203.5 -66.5t76.5 -189.5q0 -120 -78 -188t-202 -68q-127 0 -203.5 66.5t-76.5 189.5zM216 244q0 -63 26.5 -97.5t73.5 -34.5t73.5 34.5t26.5 97.5q0 62 -26.5 96.5t-73.5 34.5t-73.5 -34.5t-26.5 -96.5zM128 568l128 164h119l129 -164
h-132l-56 84l-56 -84h-132z" />
    <glyph glyph-name="otilde" unicode="&#xf5;" horiz-adv-x="632" 
d="M36 244q0 120 78 188t202 68q127 0 203.5 -66.5t76.5 -189.5q0 -120 -78 -188t-202 -68q-127 0 -203.5 66.5t-76.5 189.5zM216 244q0 -63 26.5 -97.5t73.5 -34.5t73.5 34.5t26.5 97.5q0 62 -26.5 96.5t-73.5 34.5t-73.5 -34.5t-26.5 -96.5zM128 576q0 144 112 144
q33 0 85 -20t71 -20q32 0 32 48h76q0 -144 -112 -144q-33 0 -85 20t-71 20q-32 0 -32 -48h-76z" />
    <glyph glyph-name="odieresis" unicode="&#xf6;" horiz-adv-x="632" 
d="M36 244q0 120 78 188t202 68q127 0 203.5 -66.5t76.5 -189.5q0 -120 -78 -188t-202 -68q-127 0 -203.5 66.5t-76.5 189.5zM216 244q0 -63 26.5 -97.5t73.5 -34.5t73.5 34.5t26.5 97.5q0 62 -26.5 96.5t-73.5 34.5t-73.5 -34.5t-26.5 -96.5zM360 588v144h152v-144h-152z
M120 588v144h152v-144h-152z" />
    <glyph glyph-name="divide" unicode="&#xf7;" 
d="M216 380v136h136v-136h-136zM56 192v128h456v-128h-456zM216 -4v136h136v-136h-136z" />
    <glyph glyph-name="oslash" unicode="&#xf8;" horiz-adv-x="624" 
d="M60 -12l54 64q-82 69 -82 192q0 116 78 186t202 70q86 0 152 -34l28 34h88l-61 -72q73 -70 73 -184q0 -116 -78 -186t-202 -70q-79 0 -141 28l-23 -28h-88zM212 244q0 -38 10 -64l148 175q-25 20 -58 20q-46 0 -73 -35.5t-27 -95.5zM412 244q0 28 -6 50l-143 -169
q20 -13 49 -13q46 0 73 36t27 96z" />
    <glyph glyph-name="ugrave" unicode="&#xf9;" horiz-adv-x="636" 
d="M56 193v295h176v-276q0 -96 76 -96q40 0 64 29.5t24 82.5v260h176v-488h-168v68h-4q-21 -38 -60 -59t-88 -21q-86 0 -141 49t-55 156zM262 568l-152 164h172l96 -164h-116z" />
    <glyph glyph-name="uacute" unicode="&#xfa;" horiz-adv-x="636" 
d="M56 193v295h176v-276q0 -96 76 -96q40 0 64 29.5t24 82.5v260h176v-488h-168v68h-4q-21 -38 -60 -59t-88 -21q-86 0 -141 49t-55 156zM258 568l96 164h172l-152 -164h-116z" />
    <glyph glyph-name="ucircumflex" unicode="&#xfb;" horiz-adv-x="636" 
d="M56 193v295h176v-276q0 -96 76 -96q40 0 64 29.5t24 82.5v260h176v-488h-168v68h-4q-21 -38 -60 -59t-88 -21q-86 0 -141 49t-55 156zM130 568l128 164h119l129 -164h-132l-56 84l-56 -84h-132z" />
    <glyph glyph-name="udieresis" unicode="&#xfc;" horiz-adv-x="636" 
d="M56 193v295h176v-276q0 -96 76 -96q40 0 64 29.5t24 82.5v260h176v-488h-168v68h-4q-21 -38 -60 -59t-88 -21q-86 0 -141 49t-55 156zM362 588v144h152v-144h-152zM122 588v144h152v-144h-152z" />
    <glyph glyph-name="yacute" unicode="&#xfd;" horiz-adv-x="576" 
d="M180 0l-176 488h192l96 -324h4l96 324h180l-180 -530q-63 -186 -224 -186h-72v132h28q45 0 71.5 17t40.5 63l5 16h-61zM228 568l96 164h172l-152 -164h-116z" />
    <glyph glyph-name="thorn" unicode="&#xfe;" horiz-adv-x="652" 
d="M616 248q0 -122 -66 -191t-166 -69q-107 0 -148 76h-4q8 -66 8 -164v-120h-176v952h176v-144q0 -98 -8 -164h4q41 76 156 76q96 0 160 -66t64 -186zM436 248q0 59 -24.5 93.5t-71.5 34.5q-46 0 -72 -35t-28 -92v-5q0 -59 26.5 -95.5t73.5 -36.5q46 0 71 38t25 98z" />
    <glyph glyph-name="ydieresis" unicode="&#xff;" horiz-adv-x="576" 
d="M180 0l-176 488h192l96 -324h4l96 324h180l-180 -530q-63 -186 -224 -186h-72v132h28q45 0 71.5 17t40.5 63l5 16h-61zM332 588v144h152v-144h-152zM92 588v144h152v-144h-152z" />
    <glyph glyph-name="Amacron" unicode="&#x100;" horiz-adv-x="736" 
d="M4 0l256 688h216l256 -688h-195l-40 124h-264l-41 -124h-188zM365 524l-86 -260h173l-83 260h-4zM204 776v108h324v-108h-324z" />
    <glyph glyph-name="amacron" unicode="&#x101;" horiz-adv-x="596" 
d="M36 128q0 63 41.5 99.5t130.5 48.5l92 12q36 4 48 13t12 31q0 23 -17 39.5t-51 16.5q-70 0 -76 -64h-164q8 90 75 133t165 43q123 0 183.5 -43t60.5 -133v-324h-168v58h-4q-50 -70 -160 -70q-84 0 -126 38t-42 102zM264 100q39 0 67.5 22t28.5 66v39q-13 -18 -44 -23
l-56 -8q-52 -7 -52 -48q0 -48 56 -48zM128 596v108h324v-108h-324z" />
    <glyph glyph-name="Abreve" unicode="&#x102;" horiz-adv-x="736" 
d="M4 0l256 688h216l256 -688h-195l-40 124h-264l-41 -124h-188zM365 524l-86 -260h173l-83 260h-4zM368 768q-71 0 -117 39t-51 125h88q6 -35 27.5 -53.5t52.5 -18.5q30 0 52 19.5t28 52.5h88q-5 -86 -51 -125t-117 -39z" />
    <glyph glyph-name="abreve" unicode="&#x103;" horiz-adv-x="596" 
d="M36 128q0 63 41.5 99.5t130.5 48.5l92 12q36 4 48 13t12 31q0 23 -17 39.5t-51 16.5q-70 0 -76 -64h-164q8 90 75 133t165 43q123 0 183.5 -43t60.5 -133v-324h-168v58h-4q-50 -70 -160 -70q-84 0 -126 38t-42 102zM264 100q39 0 67.5 22t28.5 66v39q-13 -18 -44 -23
l-56 -8q-52 -7 -52 -48q0 -48 56 -48zM292 568q-71 0 -117 39t-51 125h88q6 -35 27.5 -53.5t52.5 -18.5q30 0 52 19.5t28 52.5h88q-5 -86 -51 -125t-117 -39z" />
    <glyph glyph-name="Aogonek" unicode="&#x104;" horiz-adv-x="736" 
d="M568 -128q0 34 19.5 61.5t64.5 66.5h-115l-40 124h-264l-41 -124h-188l256 688h216l256 -688q-60 -63 -60 -96q0 -36 44 -36h32v-88h-40q-76 0 -108 22.5t-32 69.5zM365 524l-86 -260h173l-83 260h-4z" />
    <glyph glyph-name="aogonek" unicode="&#x105;" horiz-adv-x="596" 
d="M368 -128q0 34 19.5 61.5t64.5 66.5h-84v58h-4q-50 -70 -160 -70q-84 0 -126 38t-42 102q0 63 41.5 99.5t130.5 48.5l92 12q36 4 48 13t12 31q0 23 -17 39.5t-51 16.5q-70 0 -76 -64h-164q8 90 75 133t165 43q123 0 183.5 -43t60.5 -133v-324h-4q-60 -63 -60 -96
q0 -36 44 -36h32v-88h-40q-76 0 -108 22.5t-32 69.5zM264 100q39 0 67.5 22t28.5 66v39q-13 -18 -44 -23l-56 -8q-52 -7 -52 -48q0 -48 56 -48z" />
    <glyph glyph-name="Cacute" unicode="&#x106;" horiz-adv-x="756" 
d="M44 344q0 154 96.5 255t259.5 101q135 0 218.5 -66t101.5 -186h-180q-28 100 -140 100q-79 0 -123.5 -56t-44.5 -148q0 -91 46 -147.5t126 -56.5q108 0 136 100h180q-18 -120 -101.5 -186t-218.5 -66q-170 0 -263 99.5t-93 256.5zM340 768l96 164h172l-152 -164h-116z
" />
    <glyph glyph-name="cacute" unicode="&#x107;" horiz-adv-x="596" 
d="M32 244q0 122 75 189t205 67q117 0 183.5 -54t72.5 -134h-172q-4 25 -25.5 44.5t-58.5 19.5q-47 0 -73.5 -36.5t-26.5 -95.5t26.5 -95.5t73.5 -36.5q38 0 58 19t26 45h172q-6 -81 -71.5 -134.5t-184.5 -53.5q-132 0 -206 65t-74 191zM252 568l96 164h172l-152 -164h-116z
" />
    <glyph glyph-name="Ccircumflex" unicode="&#x108;" horiz-adv-x="756" 
d="M44 344q0 154 96.5 255t259.5 101q135 0 218.5 -66t101.5 -186h-180q-28 100 -140 100q-79 0 -123.5 -56t-44.5 -148q0 -91 46 -147.5t126 -56.5q108 0 136 100h180q-18 -120 -101.5 -186t-218.5 -66q-170 0 -263 99.5t-93 256.5zM212 768l128 164h119l129 -164h-132
l-56 84l-56 -84h-132z" />
    <glyph glyph-name="ccircumflex" unicode="&#x109;" horiz-adv-x="596" 
d="M32 244q0 122 75 189t205 67q117 0 183.5 -54t72.5 -134h-172q-4 25 -25.5 44.5t-58.5 19.5q-47 0 -73.5 -36.5t-26.5 -95.5t26.5 -95.5t73.5 -36.5q38 0 58 19t26 45h172q-6 -81 -71.5 -134.5t-184.5 -53.5q-132 0 -206 65t-74 191zM124 568l128 164h119l129 -164h-132
l-56 84l-56 -84h-132z" />
    <glyph glyph-name="Cdotaccent" unicode="&#x10a;" horiz-adv-x="756" 
d="M44 344q0 154 96.5 255t259.5 101q135 0 218.5 -66t101.5 -186h-180q-28 100 -140 100q-79 0 -123.5 -56t-44.5 -148q0 -91 46 -147.5t126 -56.5q108 0 136 100h180q-18 -120 -101.5 -186t-218.5 -66q-170 0 -263 99.5t-93 256.5zM324 768v144h152v-144h-152z" />
    <glyph glyph-name="cdotaccent" unicode="&#x10b;" horiz-adv-x="596" 
d="M32 244q0 122 75 189t205 67q117 0 183.5 -54t72.5 -134h-172q-4 25 -25.5 44.5t-58.5 19.5q-47 0 -73.5 -36.5t-26.5 -95.5t26.5 -95.5t73.5 -36.5q38 0 58 19t26 45h172q-6 -81 -71.5 -134.5t-184.5 -53.5q-132 0 -206 65t-74 191zM236 588v144h152v-144h-152z" />
    <glyph glyph-name="Ccaron" unicode="&#x10c;" horiz-adv-x="756" 
d="M44 344q0 154 96.5 255t259.5 101q135 0 218.5 -66t101.5 -186h-180q-28 100 -140 100q-79 0 -123.5 -56t-44.5 -148q0 -91 46 -147.5t126 -56.5q108 0 136 100h180q-18 -120 -101.5 -186t-218.5 -66q-170 0 -263 99.5t-93 256.5zM340 768l-128 164h132l56 -84l56 84h132
l-129 -164h-119z" />
    <glyph glyph-name="ccaron" unicode="&#x10d;" horiz-adv-x="596" 
d="M32 244q0 122 75 189t205 67q117 0 183.5 -54t72.5 -134h-172q-4 25 -25.5 44.5t-58.5 19.5q-47 0 -73.5 -36.5t-26.5 -95.5t26.5 -95.5t73.5 -36.5q38 0 58 19t26 45h172q-6 -81 -71.5 -134.5t-184.5 -53.5q-132 0 -206 65t-74 191zM252 568l-128 164h132l56 -84l56 84
h132l-129 -164h-119z" />
    <glyph glyph-name="Dcaron" unicode="&#x10e;" horiz-adv-x="772" 
d="M72 0v688h284q179 0 275.5 -95t96.5 -249t-96.5 -249t-275.5 -95h-284zM336 540h-80v-392h80q105 0 154.5 54t49.5 142t-49.5 142t-154.5 54zM300 768l-128 164h132l56 -84l56 84h132l-129 -164h-119z" />
    <glyph glyph-name="dcaron" unicode="&#x10f;" horiz-adv-x="652" 
d="M36 240q0 122 66 191t166 69q107 0 148 -76h3q-7 66 -7 164v144h176v-732h-168v64h-4q-41 -76 -156 -76q-96 0 -160 66t-64 186zM216 240q0 -59 24.5 -93.5t71.5 -34.5t73.5 36.5t26.5 95.5t-26.5 95.5t-73.5 36.5q-46 0 -71 -38t-25 -98zM672 516l44 100h-64v116h152
v-100l-64 -116h-68z" />
    <glyph glyph-name="Dcroat" unicode="&#x110;" horiz-adv-x="772" 
d="M4 300v88h68v300h284q179 0 275.5 -95t96.5 -249t-96.5 -249t-275.5 -95h-284v300h-68zM336 540h-80v-152h136v-88h-136v-152h80q105 0 154.5 54t49.5 142t-49.5 142t-154.5 54z" />
    <glyph glyph-name="dcroat" unicode="&#x111;" horiz-adv-x="652" 
d="M272 584v80h140v68h176v-68h64v-80h-64v-584h-168v64h-4q-41 -76 -156 -76q-96 0 -160 66t-64 186q0 122 66 191t166 69q107 0 148 -76h3q-7 64 -7 160h-140zM216 240q0 -59 24.5 -93.5t71.5 -34.5q45 0 71.5 35t28.5 91v6q0 59 -26.5 95.5t-73.5 36.5q-46 0 -71 -38
t-25 -98z" />
    <glyph glyph-name="Emacron" unicode="&#x112;" horiz-adv-x="672" 
d="M72 0v688h540v-148h-356v-120h292v-136h-292v-136h368v-148h-552zM180 776v108h324v-108h-324z" />
    <glyph glyph-name="emacron" unicode="&#x113;" horiz-adv-x="612" 
d="M32 240q0 122 74.5 191t201.5 69t197.5 -66.5t70.5 -189.5v-36h-366q12 -104 102 -104q60 0 88 44h168q-13 -69 -82.5 -114.5t-177.5 -45.5q-132 0 -204 63t-72 189zM308 388q-77 0 -95 -84h182q-13 84 -87 84zM144 596v108h324v-108h-324z" />
    <glyph glyph-name="Ebreve" unicode="&#x114;" horiz-adv-x="672" 
d="M72 0v688h540v-148h-356v-120h292v-136h-292v-136h368v-148h-552zM344 768q-71 0 -117 39t-51 125h88q6 -35 27.5 -53.5t52.5 -18.5q30 0 52 19.5t28 52.5h88q-5 -86 -51 -125t-117 -39z" />
    <glyph glyph-name="ebreve" unicode="&#x115;" horiz-adv-x="612" 
d="M32 240q0 122 74.5 191t201.5 69t197.5 -66.5t70.5 -189.5v-36h-366q12 -104 102 -104q60 0 88 44h168q-13 -69 -82.5 -114.5t-177.5 -45.5q-132 0 -204 63t-72 189zM308 388q-77 0 -95 -84h182q-13 84 -87 84zM308 568q-71 0 -117 39t-51 125h88q6 -35 27.5 -53.5
t52.5 -18.5q30 0 52 19.5t28 52.5h88q-5 -86 -51 -125t-117 -39z" />
    <glyph glyph-name="Edotaccent" unicode="&#x116;" horiz-adv-x="672" 
d="M72 0v688h540v-148h-356v-120h292v-136h-292v-136h368v-148h-552zM268 768v144h152v-144h-152z" />
    <glyph glyph-name="edotaccent" unicode="&#x117;" horiz-adv-x="612" 
d="M32 240q0 122 74.5 191t201.5 69t197.5 -66.5t70.5 -189.5v-36h-366q12 -104 102 -104q60 0 88 44h168q-13 -69 -82.5 -114.5t-177.5 -45.5q-132 0 -204 63t-72 189zM308 388q-77 0 -95 -84h182q-13 84 -87 84zM232 588v144h152v-144h-152z" />
    <glyph glyph-name="Eogonek" unicode="&#x118;" horiz-adv-x="672" 
d="M72 0v688h540v-148h-356v-120h292v-136h-292v-136h368v-148q-60 -63 -60 -96q0 -36 44 -36h32v-88h-40q-76 0 -108 22.5t-32 69.5q0 34 19.5 61.5t64.5 66.5h-472z" />
    <glyph glyph-name="eogonek" unicode="&#x119;" horiz-adv-x="612" 
d="M229 -120q0 67 72 108q-128 2 -198.5 67t-70.5 185q0 117 75 188.5t201 71.5q127 0 197.5 -66.5t70.5 -189.5v-36h-366q12 -104 102 -104q60 0 88 44h168q-16 -84 -107 -128q-128 -62 -128 -116q0 -36 44 -36h32v-88h-40q-140 0 -140 100zM308 388q-77 0 -95 -84h182
q-13 84 -87 84z" />
    <glyph glyph-name="Ecaron" unicode="&#x11a;" horiz-adv-x="672" 
d="M72 0v688h540v-148h-356v-120h292v-136h-292v-136h368v-148h-552zM284 768l-128 164h132l56 -84l56 84h132l-129 -164h-119z" />
    <glyph glyph-name="ecaron" unicode="&#x11b;" horiz-adv-x="612" 
d="M32 240q0 122 74.5 191t201.5 69t197.5 -66.5t70.5 -189.5v-36h-366q12 -104 102 -104q60 0 88 44h168q-13 -69 -82.5 -114.5t-177.5 -45.5q-132 0 -204 63t-72 189zM308 388q-77 0 -95 -84h182q-13 84 -87 84zM248 568l-128 164h132l56 -84l56 84h132l-129 -164h-119z
" />
    <glyph glyph-name="Gcircumflex" unicode="&#x11c;" horiz-adv-x="792" 
d="M608 0l-12 62h-4q-69 -74 -196 -74q-163 0 -257.5 100.5t-94.5 255.5q0 158 99.5 257t268.5 99q133 0 218 -65t98 -163h-180q-10 33 -44.5 54.5t-91.5 21.5q-82 0 -131 -54.5t-49 -149.5q0 -96 48 -150t132 -54q65 0 107 29.5t48 82.5h-155v128h312v-380h-116zM224 768
l128 164h119l129 -164h-132l-56 84l-56 -84h-132z" />
    <glyph glyph-name="gcircumflex" unicode="&#x11d;" horiz-adv-x="652" 
d="M52 -60h164q3 -25 27 -40.5t65 -15.5q64 0 88 34t24 110v36h-4q-41 -76 -156 -76q-96 0 -160 66t-64 186q0 122 66 191t166 69q107 0 148 -76h4v64h168v-460q0 -134 -69 -195t-211 -61q-245 0 -256 168zM216 240q0 -59 24.5 -93.5t71.5 -34.5t73.5 36.5t26.5 95.5
t-26.5 95.5t-73.5 36.5q-46 0 -71 -38t-25 -98zM124 568l128 164h119l129 -164h-132l-56 84l-56 -84h-132z" />
    <glyph glyph-name="Gbreve" unicode="&#x11e;" horiz-adv-x="792" 
d="M608 0l-12 62h-4q-69 -74 -196 -74q-163 0 -257.5 100.5t-94.5 255.5q0 158 99.5 257t268.5 99q133 0 218 -65t98 -163h-180q-10 33 -44.5 54.5t-91.5 21.5q-82 0 -131 -54.5t-49 -149.5q0 -96 48 -150t132 -54q65 0 107 29.5t48 82.5h-155v128h312v-380h-116zM412 768
q-71 0 -117 39t-51 125h88q6 -35 27.5 -53.5t52.5 -18.5q30 0 52 19.5t28 52.5h88q-5 -86 -51 -125t-117 -39z" />
    <glyph glyph-name="gbreve" unicode="&#x11f;" horiz-adv-x="652" 
d="M52 -60h164q3 -25 27 -40.5t65 -15.5q64 0 88 34t24 110v36h-4q-41 -76 -156 -76q-96 0 -160 66t-64 186q0 122 66 191t166 69q107 0 148 -76h4v64h168v-460q0 -134 -69 -195t-211 -61q-245 0 -256 168zM216 240q0 -59 24.5 -93.5t71.5 -34.5t73.5 36.5t26.5 95.5
t-26.5 95.5t-73.5 36.5q-46 0 -71 -38t-25 -98zM312 568q-71 0 -117 39t-51 125h88q6 -35 27.5 -53.5t52.5 -18.5q30 0 52 19.5t28 52.5h88q-5 -86 -51 -125t-117 -39z" />
    <glyph glyph-name="Gdotaccent" unicode="&#x120;" horiz-adv-x="792" 
d="M608 0l-12 62h-4q-69 -74 -196 -74q-163 0 -257.5 100.5t-94.5 255.5q0 158 99.5 257t268.5 99q133 0 218 -65t98 -163h-180q-10 33 -44.5 54.5t-91.5 21.5q-82 0 -131 -54.5t-49 -149.5q0 -96 48 -150t132 -54q65 0 107 29.5t48 82.5h-155v128h312v-380h-116zM336 768
v144h152v-144h-152z" />
    <glyph glyph-name="gdotaccent" unicode="&#x121;" horiz-adv-x="652" 
d="M52 -60h164q3 -25 27 -40.5t65 -15.5q64 0 88 34t24 110v36h-4q-41 -76 -156 -76q-96 0 -160 66t-64 186q0 122 66 191t166 69q107 0 148 -76h4v64h168v-460q0 -134 -69 -195t-211 -61q-245 0 -256 168zM216 240q0 -59 24.5 -93.5t71.5 -34.5t73.5 36.5t26.5 95.5
t-26.5 95.5t-73.5 36.5q-46 0 -71 -38t-25 -98zM236 588v144h152v-144h-152z" />
    <glyph glyph-name="Gcommaaccent" unicode="&#x122;" horiz-adv-x="792" 
d="M608 0l-12 62h-4q-69 -74 -196 -74q-163 0 -257.5 100.5t-94.5 255.5q0 158 99.5 257t268.5 99q133 0 218 -65t98 -163h-180q-10 33 -44.5 54.5t-91.5 21.5q-82 0 -131 -54.5t-49 -149.5q0 -96 48 -150t132 -54q65 0 107 29.5t48 82.5h-155v128h312v-380h-116zM320 -52
h152v-100l-64 -116h-68l44 100h-64v116z" />
    <glyph glyph-name="gcommaaccent" unicode="&#x123;" horiz-adv-x="652" 
d="M52 -60h164q3 -25 27 -40.5t65 -15.5q64 0 88 34t24 110v36h-4q-41 -76 -156 -76q-96 0 -160 66t-64 186q0 122 66 191t166 69q107 0 148 -76h4v64h168v-460q0 -134 -69 -195t-211 -61q-245 0 -256 168zM216 240q0 -59 24.5 -93.5t71.5 -34.5t73.5 36.5t26.5 95.5
t-26.5 95.5t-73.5 36.5q-46 0 -71 -38t-25 -98zM236 568v100l64 116h68l-44 -100h64v-116h-152z" />
    <glyph glyph-name="Hcircumflex" unicode="&#x124;" horiz-adv-x="784" 
d="M72 0v688h184v-264h272v264h184v-688h-184v272h-272v-272h-184zM204 768l128 164h119l129 -164h-132l-56 84l-56 -84h-132z" />
    <glyph glyph-name="hcircumflex" unicode="&#x125;" horiz-adv-x="640" 
d="M64 0v732h176v-148q0 -98 -8 -164h4q21 38 60 59t88 21q86 0 141 -49t55 -156v-295h-176v276q0 96 -76 96q-39 0 -63.5 -28t-24.5 -79v-265h-176zM-36 800l128 164h119l129 -164h-132l-56 84l-56 -84h-132z" />
    <glyph glyph-name="Hbar" unicode="&#x126;" horiz-adv-x="784" 
d="M4 516v88h68v84h184v-84h272v84h184v-84h68v-88h-68v-516h-184v272h-272v-272h-184v516h-68zM256 516v-92h272v92h-272z" />
    <glyph glyph-name="hbar" unicode="&#x127;" horiz-adv-x="640" 
d="M0 584v80h64v68h176v-68h140v-80h-140q0 -98 -8 -164h4q21 38 60 59t88 21q86 0 141 -49t55 -156v-295h-176v276q0 96 -76 96q-39 0 -63.5 -28.5t-24.5 -81.5v-262h-176v584h-64z" />
    <glyph glyph-name="Itilde" unicode="&#x128;" horiz-adv-x="328" 
d="M72 0v688h184v-688h-184zM-24 768q0 144 112 144q33 0 85 -20t71 -20q32 0 32 48h76q0 -144 -112 -144q-33 0 -85 20t-71 20q-32 0 -32 -48h-76z" />
    <glyph glyph-name="itilde" unicode="&#x129;" horiz-adv-x="304" 
d="M64 0v488h176v-488h-176zM-36 576q0 144 112 144q33 0 85 -20t71 -20q32 0 32 48h76q0 -144 -112 -144q-33 0 -85 20t-71 20q-32 0 -32 -48h-76z" />
    <glyph glyph-name="Imacron" unicode="&#x12a;" horiz-adv-x="328" 
d="M72 0v688h184v-688h-184zM0 776v108h324v-108h-324z" />
    <glyph glyph-name="imacron" unicode="&#x12b;" horiz-adv-x="304" 
d="M64 0v488h176v-488h-176zM-12 596v108h324v-108h-324z" />
    <glyph glyph-name="Ibreve" unicode="&#x12c;" horiz-adv-x="328" 
d="M72 0v688h184v-688h-184zM164 768q-71 0 -117 39t-51 125h88q6 -35 27.5 -53.5t52.5 -18.5q30 0 52 19.5t28 52.5h88q-5 -86 -51 -125t-117 -39z" />
    <glyph glyph-name="ibreve" unicode="&#x12d;" horiz-adv-x="304" 
d="M64 0v488h176v-488h-176zM152 568q-71 0 -117 39t-51 125h88q6 -35 27.5 -53.5t52.5 -18.5q30 0 52 19.5t28 52.5h88q-5 -86 -51 -125t-117 -39z" />
    <glyph glyph-name="Iogonek" unicode="&#x12e;" horiz-adv-x="328" 
d="M72 0v688h184v-688h-4q-60 -63 -60 -96q0 -36 44 -36h32v-88h-40q-76 0 -108 22.5t-32 69.5q0 34 19.5 61.5t64.5 66.5h-100z" />
    <glyph glyph-name="iogonek" unicode="&#x12f;" horiz-adv-x="304" 
d="M64 0v488h176v-488q-60 -63 -60 -96q0 -36 44 -36h32v-88h-40q-76 0 -108 22.5t-32 69.5q0 34 19.5 61.5t64.5 66.5h-96zM60 588v144h184v-144h-184z" />
    <glyph glyph-name="Idotaccent" unicode="&#x130;" horiz-adv-x="328" 
d="M72 0v688h184v-688h-184zM88 768v144h152v-144h-152z" />
    <glyph glyph-name="dotlessi" unicode="&#x131;" horiz-adv-x="304" 
d="M64 0v488h176v-488h-176z" />
    <glyph glyph-name="IJ" unicode="&#x132;" horiz-adv-x="936" 
d="M72 0v688h184v-688h-184zM364 219v29h180v-32q0 -80 72 -80t72 92v460h184v-448q0 -252 -256 -252q-117 0 -184.5 56.5t-67.5 174.5z" />
    <glyph glyph-name="ij" unicode="&#x133;" horiz-adv-x="608" 
d="M60 588v144h184v-144h-184zM64 0v488h176v-488h-176zM364 588v144h184v-144h-184zM368 -16v504h176v-504q0 -107 -45.5 -155.5t-166.5 -48.5h-52v128h28q34 0 47 18t13 58z" />
    <glyph glyph-name="Jcircumflex" unicode="&#x134;" horiz-adv-x="608" 
d="M36 219v29h180v-32q0 -80 72 -80t72 92v460h184v-448q0 -252 -256 -252q-117 0 -184.5 56.5t-67.5 174.5zM264 768l128 164h119l129 -164h-132l-56 84l-56 -84h-132z" />
    <glyph glyph-name="jcircumflex" unicode="&#x135;" horiz-adv-x="304" 
d="M64 -16v504h176v-504q0 -107 -45.5 -155.5t-166.5 -48.5h-52v128h28q34 0 47 18t13 58zM-36 568l128 164h119l129 -164h-132l-56 84l-56 -84h-132z" />
    <glyph glyph-name="Kcommaaccent" unicode="&#x136;" horiz-adv-x="748" 
d="M72 0v688h184v-275l252 275h212l-274 -291l294 -397h-212l-200 271l-72 -76v-195h-184zM304 -52h152v-100l-64 -116h-68l44 100h-64v116z" />
    <glyph glyph-name="kcommaaccent" unicode="&#x137;" horiz-adv-x="604" 
d="M64 0v732h176v-408l148 164h196l-184 -195l200 -293h-200l-114 171l-46 -49v-122h-176zM240 -52h152v-100l-64 -116h-68l44 100h-64v116z" />
    <glyph glyph-name="Lacute" unicode="&#x139;" horiz-adv-x="620" 
d="M72 0v688h184v-536h320v-152h-504zM104 768l96 164h172l-152 -164h-116z" />
    <glyph glyph-name="lacute" unicode="&#x13a;" horiz-adv-x="304" 
d="M64 0v732h176v-732h-176zM92 800l96 164h172l-152 -164h-116z" />
    <glyph glyph-name="Lcommaaccent" unicode="&#x13b;" horiz-adv-x="620" 
d="M72 0v688h184v-536h320v-152h-504zM248 -52h152v-100l-64 -116h-68l44 100h-64v116z" />
    <glyph glyph-name="lcommaaccent" unicode="&#x13c;" horiz-adv-x="304" 
d="M64 0v732h176v-732h-176zM76 -52h152v-100l-64 -116h-68l44 100h-64v116z" />
    <glyph glyph-name="Lcaron" unicode="&#x13d;" horiz-adv-x="620" 
d="M72 0v688h184v-536h320v-152h-504zM384 472l44 100h-64v116h152v-100l-64 -116h-68z" />
    <glyph glyph-name="lcaron" unicode="&#x13e;" horiz-adv-x="304" 
d="M324 516l44 100h-64v116h152v-100l-64 -116h-68zM64 0v732h176v-732h-176z" />
    <glyph glyph-name="Ldot" unicode="&#x13f;" horiz-adv-x="620" 
d="M72 0v688h184v-536h320v-152h-504zM348 304v144h152v-144h-152z" />
    <glyph glyph-name="ldot" unicode="&#x140;" horiz-adv-x="456" 
d="M64 0v732h176v-732h-176zM304 244v144h152v-144h-152z" />
    <glyph glyph-name="Lslash" unicode="&#x141;" horiz-adv-x="620" 
d="M4 168v108l68 48v364h184v-235l98 67v-108l-98 -67v-193h320v-152h-504v216z" />
    <glyph glyph-name="lslash" unicode="&#x142;" horiz-adv-x="304" 
d="M8 260l56 45v427h176v-278l56 50v-108l-56 -50v-346h-176v198l-56 -46v108z" />
    <glyph glyph-name="Nacute" unicode="&#x143;" horiz-adv-x="792" 
d="M72 0v688h160l304 -376h4l-4 376h184v-688h-156l-308 380h-4l4 -380h-184zM336 768l96 164h172l-152 -164h-116z" />
    <glyph glyph-name="nacute" unicode="&#x144;" horiz-adv-x="640" 
d="M64 0v488h168v-68h4q21 38 60 59t88 21q86 0 141 -49t55 -156v-295h-176v276q0 96 -76 96q-40 0 -64 -29.5t-24 -82.5v-260h-176zM264 568l96 164h172l-152 -164h-116z" />
    <glyph glyph-name="Ncommaaccent" unicode="&#x145;" horiz-adv-x="792" 
d="M72 0v688h160l304 -376h4l-4 376h184v-688h-156l-308 380h-4l4 -380h-184zM320 -52h152v-100l-64 -116h-68l44 100h-64v116z" />
    <glyph glyph-name="ncommaaccent" unicode="&#x146;" horiz-adv-x="640" 
d="M64 0v488h168v-68h4q21 38 60 59t88 21q86 0 141 -49t55 -156v-295h-176v276q0 96 -76 96q-40 0 -64 -29.5t-24 -82.5v-260h-176zM244 -52h152v-100l-64 -116h-68l44 100h-64v116z" />
    <glyph glyph-name="Ncaron" unicode="&#x147;" horiz-adv-x="792" 
d="M72 0v688h160l304 -376h4l-4 376h184v-688h-156l-308 380h-4l4 -380h-184zM336 768l-128 164h132l56 -84l56 84h132l-129 -164h-119z" />
    <glyph glyph-name="ncaron" unicode="&#x148;" horiz-adv-x="640" 
d="M64 0v488h168v-68h4q21 38 60 59t88 21q86 0 141 -49t55 -156v-295h-176v276q0 96 -76 96q-40 0 -64 -29.5t-24 -82.5v-260h-176zM264 568l-128 164h132l56 -84l56 84h132l-129 -164h-119z" />
    <glyph glyph-name="napostrophe" unicode="&#x149;" horiz-adv-x="640" 
d="M64 0v488h168v-68h4q21 38 60 59t88 21q86 0 141 -49t55 -156v-295h-176v276q0 96 -76 96q-40 0 -64 -29.5t-24 -82.5v-260h-176zM84 568l44 100h-64v116h152v-100l-64 -116h-68z" />
    <glyph glyph-name="Eng" unicode="&#x14a;" horiz-adv-x="792" 
d="M72 0v688h160l308 -376h4l-8 376h184v-696q0 -116 -42.5 -164t-161.5 -48h-72v132h36q36 0 54 18.5t18 61.5v22l-300 366h-4l8 -380h-184z" />
    <glyph glyph-name="eng" unicode="&#x14b;" horiz-adv-x="640" 
d="M404 -16v292q0 96 -76 96q-39 0 -63.5 -28.5t-24.5 -80.5v-263h-176v488h168v-68h4q21 38 60 59t88 21q86 0 141 -48.5t55 -155.5v-312q0 -107 -45.5 -155.5t-166.5 -48.5h-52v128h28q34 0 47 18t13 58z" />
    <glyph glyph-name="Omacron" unicode="&#x14c;" horiz-adv-x="824" 
d="M44 344q0 156 100 256t268 100q165 0 266.5 -100t101.5 -256t-101.5 -256t-266.5 -100q-168 0 -268 100t-100 256zM232 344q0 -91 50 -147.5t130 -56.5t130 57.5t50 146.5t-50 146.5t-130 57.5t-130 -56.5t-50 -147.5zM248 776v108h324v-108h-324z" />
    <glyph glyph-name="omacron" unicode="&#x14d;" horiz-adv-x="632" 
d="M36 244q0 120 78 188t202 68q127 0 203.5 -66.5t76.5 -189.5q0 -120 -78 -188t-202 -68q-127 0 -203.5 66.5t-76.5 189.5zM216 244q0 -63 26.5 -97.5t73.5 -34.5t73.5 34.5t26.5 97.5q0 62 -26.5 96.5t-73.5 34.5t-73.5 -34.5t-26.5 -96.5zM152 596v108h324v-108h-324z
" />
    <glyph glyph-name="Obreve" unicode="&#x14e;" horiz-adv-x="824" 
d="M44 344q0 156 100 256t268 100q165 0 266.5 -100t101.5 -256t-101.5 -256t-266.5 -100q-168 0 -268 100t-100 256zM232 344q0 -91 50 -147.5t130 -56.5t130 57.5t50 146.5t-50 146.5t-130 57.5t-130 -56.5t-50 -147.5zM412 768q-71 0 -117 39t-51 125h88
q6 -35 27.5 -53.5t52.5 -18.5q30 0 52 19.5t28 52.5h88q-5 -86 -51 -125t-117 -39z" />
    <glyph glyph-name="obreve" unicode="&#x14f;" horiz-adv-x="632" 
d="M36 244q0 120 78 188t202 68q127 0 203.5 -66.5t76.5 -189.5q0 -120 -78 -188t-202 -68q-127 0 -203.5 66.5t-76.5 189.5zM216 244q0 -63 26.5 -97.5t73.5 -34.5t73.5 34.5t26.5 97.5q0 62 -26.5 96.5t-73.5 34.5t-73.5 -34.5t-26.5 -96.5zM316 568q-71 0 -117 39
t-51 125h88q6 -35 27.5 -53.5t52.5 -18.5q30 0 52 19.5t28 52.5h88q-5 -86 -51 -125t-117 -39z" />
    <glyph glyph-name="Ohungarumlaut" unicode="&#x150;" horiz-adv-x="824" 
d="M44 344q0 156 100 256t268 100q165 0 266.5 -100t101.5 -256t-101.5 -256t-266.5 -100q-168 0 -268 100t-100 256zM232 344q0 -91 50 -147.5t130 -56.5t130 57.5t50 146.5t-50 146.5t-130 57.5t-130 -56.5t-50 -147.5zM464 768l96 164h172l-152 -164h-116zM244 768
l96 164h172l-152 -164h-116z" />
    <glyph glyph-name="ohungarumlaut" unicode="&#x151;" horiz-adv-x="632" 
d="M36 244q0 120 78 188t202 68q127 0 203.5 -66.5t76.5 -189.5q0 -120 -78 -188t-202 -68q-127 0 -203.5 66.5t-76.5 189.5zM216 244q0 -63 26.5 -97.5t73.5 -34.5t73.5 34.5t26.5 97.5q0 62 -26.5 96.5t-73.5 34.5t-73.5 -34.5t-26.5 -96.5zM368 568l96 164h172l-152 -164
h-116zM148 568l96 164h172l-152 -164h-116z" />
    <glyph glyph-name="OE" unicode="&#x152;" horiz-adv-x="1128" 
d="M416 0q-179 0 -275.5 95t-96.5 249t96.5 249t275.5 95h652v-148h-368v-120h304v-136h-304v-136h380v-148h-664zM232 344q0 -88 49.5 -142t154.5 -54h80v392h-80q-105 0 -154.5 -54t-49.5 -142z" />
    <glyph glyph-name="oe" unicode="&#x153;" horiz-adv-x="984" 
d="M32 244q0 117 77 186.5t203 69.5q120 0 185 -68q66 68 183 68q127 0 197.5 -66.5t70.5 -189.5v-36h-366q12 -104 102 -104q61 0 88 44h168q-13 -69 -82.5 -114.5t-177.5 -45.5q-119 0 -184 67q-64 -67 -184 -67q-126 0 -203 69.5t-77 186.5zM212 244q0 -61 26.5 -96.5
t73.5 -35.5t73.5 35.5t26.5 96.5t-26.5 96.5t-73.5 35.5t-73.5 -35.5t-26.5 -96.5zM680 388q-79 0 -96 -88h184q-14 88 -88 88z" />
    <glyph glyph-name="Racute" unicode="&#x154;" horiz-adv-x="744" 
d="M72 0v688h336q131 0 201.5 -60t70.5 -166q0 -72 -36 -127t-103 -83l167 -252h-200l-143 228h-109v-228h-184zM392 548h-136v-184h136q47 0 73.5 26t26.5 70q0 41 -26 64.5t-74 23.5zM284 768l96 164h172l-152 -164h-116z" />
    <glyph glyph-name="racute" unicode="&#x155;" horiz-adv-x="436" 
d="M64 0v488h168v-72h3q41 84 129 84q39 0 68 -20l-24 -148q-32 16 -60 16q-53 0 -80.5 -36.5t-27.5 -100.5v-211h-176zM184 568l96 164h172l-152 -164h-116z" />
    <glyph glyph-name="Rcommaaccent" unicode="&#x156;" horiz-adv-x="744" 
d="M72 0v688h336q131 0 201.5 -60t70.5 -166q0 -72 -36 -127t-103 -83l167 -252h-200l-143 228h-109v-228h-184zM392 548h-136v-184h136q47 0 73.5 26t26.5 70q0 41 -26 64.5t-74 23.5zM292 -52h152v-100l-64 -116h-68l44 100h-64v116z" />
    <glyph glyph-name="rcommaaccent" unicode="&#x157;" horiz-adv-x="436" 
d="M64 0v488h168v-72h3q41 84 129 84q39 0 68 -20l-24 -148q-32 16 -60 16q-53 0 -80.5 -36.5t-27.5 -100.5v-211h-176zM72 -52h152v-100l-64 -116h-68l44 100h-64v116z" />
    <glyph glyph-name="Rcaron" unicode="&#x158;" horiz-adv-x="744" 
d="M72 0v688h336q131 0 201.5 -60t70.5 -166q0 -72 -36 -127t-103 -83l167 -252h-200l-143 228h-109v-228h-184zM392 548h-136v-184h136q47 0 73.5 26t26.5 70q0 41 -26 64.5t-74 23.5zM284 768l-128 164h132l56 -84l56 84h132l-129 -164h-119z" />
    <glyph glyph-name="rcaron" unicode="&#x159;" horiz-adv-x="436" 
d="M64 0v488h168v-72h3q41 84 129 84q39 0 68 -20l-24 -148q-32 16 -60 16q-53 0 -80.5 -36.5t-27.5 -100.5v-211h-176zM184 568l-128 164h132l56 -84l56 84h132l-129 -164h-119z" />
    <glyph glyph-name="Sacute" unicode="&#x15a;" horiz-adv-x="692" 
d="M44 196h176q0 -40 33 -60t87 -20q57 0 90.5 20t33.5 56q0 31 -30 46.5t-86 25.5l-48 8q-41 7 -69.5 14t-64.5 22.5t-57.5 36.5t-37 57t-15.5 82q0 93 78 154.5t210 61.5q130 0 205 -55t75 -145h-176q0 35 -28.5 53.5t-75.5 18.5q-49 0 -78.5 -18t-29.5 -50
q0 -33 33.5 -49t98.5 -27l48 -8q50 -8 84.5 -19t71.5 -33t56.5 -60t19.5 -92q0 -104 -80.5 -166t-227.5 -62q-146 0 -221 54t-75 154zM284 768l96 164h172l-152 -164h-116z" />
    <glyph glyph-name="sacute" unicode="&#x15b;" 
d="M28 140h164q0 -48 84 -48t84 40q0 21 -15.5 30t-52.5 14l-84 12q-82 12 -123 46t-41 98q0 82 65.5 125t174.5 43q110 0 173 -38.5t63 -109.5h-160q0 44 -78 44q-33 0 -51.5 -10.5t-18.5 -25.5q0 -19 14 -28t54 -15l84 -12q49 -7 84 -20.5t61.5 -45t26.5 -79.5
q0 -86 -71 -129t-189 -43q-115 0 -181.5 37t-66.5 115zM224 568l96 164h172l-152 -164h-116z" />
    <glyph glyph-name="Scircumflex" unicode="&#x15c;" horiz-adv-x="692" 
d="M44 196h176q0 -40 33 -60t87 -20q57 0 90.5 20t33.5 56q0 31 -30 46.5t-86 25.5l-48 8q-41 7 -69.5 14t-64.5 22.5t-57.5 36.5t-37 57t-15.5 82q0 93 78 154.5t210 61.5q130 0 205 -55t75 -145h-176q0 35 -28.5 53.5t-75.5 18.5q-49 0 -78.5 -18t-29.5 -50
q0 -33 33.5 -49t98.5 -27l48 -8q50 -8 84.5 -19t71.5 -33t56.5 -60t19.5 -92q0 -104 -80.5 -166t-227.5 -62q-146 0 -221 54t-75 154zM156 768l128 164h119l129 -164h-132l-56 84l-56 -84h-132z" />
    <glyph glyph-name="scircumflex" unicode="&#x15d;" 
d="M28 140h164q0 -48 84 -48t84 40q0 21 -15.5 30t-52.5 14l-84 12q-82 12 -123 46t-41 98q0 82 65.5 125t174.5 43q110 0 173 -38.5t63 -109.5h-160q0 44 -78 44q-33 0 -51.5 -10.5t-18.5 -25.5q0 -19 14 -28t54 -15l84 -12q49 -7 84 -20.5t61.5 -45t26.5 -79.5
q0 -86 -71 -129t-189 -43q-115 0 -181.5 37t-66.5 115zM96 568l128 164h119l129 -164h-132l-56 84l-56 -84h-132z" />
    <glyph glyph-name="Scedilla" unicode="&#x15e;" horiz-adv-x="692" 
d="M280 -92l31 81q-132 5 -199.5 58.5t-67.5 148.5h176q0 -40 33 -60t87 -20q57 0 90.5 20t33.5 56q0 31 -30 46.5t-86 25.5l-48 8q-41 7 -69.5 14t-64.5 22.5t-57.5 36.5t-37 57t-15.5 82q0 93 78 154.5t210 61.5q130 0 205 -55t75 -145h-176q0 35 -28.5 53.5t-75.5 18.5
q-49 0 -78.5 -18t-29.5 -50q0 -33 33.5 -49t98.5 -27l48 -8q50 -8 84.5 -19t71.5 -33t56.5 -60t19.5 -92q0 -99 -73 -160t-207 -67v-29q44 -1 68 -24t24 -60q0 -42 -30 -69t-90 -27h-80v68h56q40 0 40 32q0 28 -40 28h-36z" />
    <glyph glyph-name="scedilla" unicode="&#x15f;" 
d="M216 -92l31 81q-219 10 -219 151h164q0 -48 84 -48t84 40q0 21 -15.5 30t-52.5 14l-84 12q-82 12 -123 46t-41 98q0 82 65.5 125t174.5 43q110 0 173 -38.5t63 -109.5h-160q0 44 -78 44q-33 0 -51.5 -10.5t-18.5 -25.5q0 -19 14 -28t54 -15l84 -12q49 -7 84 -20.5
t61.5 -45t26.5 -79.5q0 -81 -62.5 -123t-169.5 -48v-29q44 -1 68 -24t24 -60q0 -42 -30 -69t-90 -27h-80v68h56q40 0 40 32q0 28 -40 28h-36z" />
    <glyph glyph-name="Scaron" unicode="&#x160;" horiz-adv-x="692" 
d="M44 196h176q0 -40 33 -60t87 -20q57 0 90.5 20t33.5 56q0 31 -30 46.5t-86 25.5l-48 8q-41 7 -69.5 14t-64.5 22.5t-57.5 36.5t-37 57t-15.5 82q0 93 78 154.5t210 61.5q130 0 205 -55t75 -145h-176q0 35 -28.5 53.5t-75.5 18.5q-49 0 -78.5 -18t-29.5 -50
q0 -33 33.5 -49t98.5 -27l48 -8q50 -8 84.5 -19t71.5 -33t56.5 -60t19.5 -92q0 -104 -80.5 -166t-227.5 -62q-146 0 -221 54t-75 154zM284 768l-128 164h132l56 -84l56 84h132l-129 -164h-119z" />
    <glyph glyph-name="scaron" unicode="&#x161;" 
d="M28 140h164q0 -48 84 -48t84 40q0 21 -15.5 30t-52.5 14l-84 12q-82 12 -123 46t-41 98q0 82 65.5 125t174.5 43q110 0 173 -38.5t63 -109.5h-160q0 44 -78 44q-33 0 -51.5 -10.5t-18.5 -25.5q0 -19 14 -28t54 -15l84 -12q49 -7 84 -20.5t61.5 -45t26.5 -79.5
q0 -86 -71 -129t-189 -43q-115 0 -181.5 37t-66.5 115zM224 568l-128 164h132l56 -84l56 84h132l-129 -164h-119z" />
    <glyph glyph-name="Tcommaaccent" unicode="&#x162;" horiz-adv-x="648" 
d="M264 -92l36 92h-68v536h-224v152h632v-152h-224v-536h-64v-40q44 -1 68 -24t24 -60q0 -42 -30 -69t-90 -27h-80v68h56q40 0 40 32q0 28 -40 28h-36z" />
    <glyph glyph-name="tcommaaccent" unicode="&#x163;" horiz-adv-x="400" 
d="M172 -92l33 98q-67 12 -92 54.5t-25 135.5v168h-92v124h92v148h176v-148h112v-124h-112v-156q0 -41 13.5 -56.5t54.5 -15.5h44v-136h-85q-21 0 -31 1v-41q44 -1 68 -24t24 -60q0 -42 -30 -69t-90 -27h-80v68h56q40 0 40 32q0 28 -40 28h-36z" />
    <glyph glyph-name="Tcaron" unicode="&#x164;" horiz-adv-x="648" 
d="M8 536v152h632v-152h-224v-536h-184v536h-224zM264 768l-128 164h132l56 -84l56 84h132l-129 -164h-119z" />
    <glyph glyph-name="tcaron" unicode="&#x165;" horiz-adv-x="400" 
d="M88 196v168h-92v124h92v148h176v-148h112v-124h-112v-156q0 -41 13.5 -56.5t54.5 -15.5h44v-136h-85q-121 0 -162 40.5t-41 155.5zM312 544l44 100h-64v116h152v-100l-64 -116h-68z" />
    <glyph glyph-name="Tbar" unicode="&#x166;" horiz-adv-x="648" 
d="M8 536v152h631v-152h-223v-204h164v-88h-164v-244h-184v244h-164v88h164v204h-224z" />
    <glyph glyph-name="tbar" unicode="&#x167;" horiz-adv-x="400" 
d="M-4 208v80h92v76h-92v124h92v148h176v-148h112v-124h-112v-76h112v-80h-112v-8q0 -35 14 -49.5t54 -14.5h44v-136h-88q-112 0 -156 37t-44 135v36h-92z" />
    <glyph glyph-name="Utilde" unicode="&#x168;" horiz-adv-x="768" 
d="M64 280v408h184v-404q0 -71 34.5 -107.5t101.5 -36.5t101.5 36.5t34.5 107.5v404h184v-408q0 -82 -23 -140t-67.5 -90.5t-100.5 -47t-129 -14.5t-129 14.5t-100.5 47t-67.5 90.5t-23 140zM196 768q0 144 112 144q33 0 85 -20t71 -20q32 0 32 48h76q0 -144 -112 -144
q-33 0 -85 20t-71 20q-32 0 -32 -48h-76z" />
    <glyph glyph-name="utilde" unicode="&#x169;" horiz-adv-x="636" 
d="M56 193v295h176v-276q0 -96 76 -96q40 0 64 29.5t24 82.5v260h176v-488h-168v68h-4q-21 -38 -60 -59t-88 -21q-86 0 -141 49t-55 156zM130 576q0 144 112 144q33 0 85 -20t71 -20q32 0 32 48h76q0 -144 -112 -144q-33 0 -85 20t-71 20q-32 0 -32 -48h-76z" />
    <glyph glyph-name="Umacron" unicode="&#x16a;" horiz-adv-x="768" 
d="M64 280v408h184v-404q0 -71 34.5 -107.5t101.5 -36.5t101.5 36.5t34.5 107.5v404h184v-408q0 -82 -23 -140t-67.5 -90.5t-100.5 -47t-129 -14.5t-129 14.5t-100.5 47t-67.5 90.5t-23 140zM220 776v108h324v-108h-324z" />
    <glyph glyph-name="umacron" unicode="&#x16b;" horiz-adv-x="636" 
d="M56 193v295h176v-276q0 -96 76 -96q40 0 64 29.5t24 82.5v260h176v-488h-168v68h-4q-21 -38 -60 -59t-88 -21q-86 0 -141 49t-55 156zM154 596v108h324v-108h-324z" />
    <glyph glyph-name="Ubreve" unicode="&#x16c;" horiz-adv-x="768" 
d="M64 280v408h184v-404q0 -71 34.5 -107.5t101.5 -36.5t101.5 36.5t34.5 107.5v404h184v-408q0 -82 -23 -140t-67.5 -90.5t-100.5 -47t-129 -14.5t-129 14.5t-100.5 47t-67.5 90.5t-23 140zM384 768q-71 0 -117 39t-51 125h88q6 -35 27.5 -53.5t52.5 -18.5q30 0 52 19.5
t28 52.5h88q-5 -86 -51 -125t-117 -39z" />
    <glyph glyph-name="ubreve" unicode="&#x16d;" horiz-adv-x="636" 
d="M56 193v295h176v-276q0 -96 76 -96q40 0 64 29.5t24 82.5v260h176v-488h-168v68h-4q-21 -38 -60 -59t-88 -21q-86 0 -141 49t-55 156zM318 568q-71 0 -117 39t-51 125h88q6 -35 27.5 -53.5t52.5 -18.5q30 0 52 19.5t28 52.5h88q-5 -86 -51 -125t-117 -39z" />
    <glyph glyph-name="Uring" unicode="&#x16e;" horiz-adv-x="768" 
d="M64 280v408h184v-404q0 -71 34.5 -107.5t101.5 -36.5t101.5 36.5t34.5 107.5v404h184v-408q0 -82 -23 -140t-67.5 -90.5t-100.5 -47t-129 -14.5t-129 14.5t-100.5 47t-67.5 90.5t-23 140zM384 744q-51 0 -83.5 31t-32.5 77q0 48 33 78t83 30t83 -30t33 -78
q0 -46 -32.5 -77t-83.5 -31zM384 808q18 0 31 12t13 32t-13 32t-31 12t-31 -12t-13 -32t13 -32t31 -12z" />
    <glyph glyph-name="uring" unicode="&#x16f;" horiz-adv-x="636" 
d="M56 193v295h176v-276q0 -96 76 -96q40 0 64 29.5t24 82.5v260h176v-488h-168v68h-4q-21 -38 -60 -59t-88 -21q-86 0 -141 49t-55 156zM318 544q-51 0 -83.5 31t-32.5 77q0 48 33 78t83 30t83 -30t33 -78q0 -46 -32.5 -77t-83.5 -31zM318 608q18 0 31 12t13 32t-13 32
t-31 12t-31 -12t-13 -32t13 -32t31 -12z" />
    <glyph glyph-name="Uhungarumlaut" unicode="&#x170;" horiz-adv-x="768" 
d="M64 280v408h184v-404q0 -71 34.5 -107.5t101.5 -36.5t101.5 36.5t34.5 107.5v404h184v-408q0 -82 -23 -140t-67.5 -90.5t-100.5 -47t-129 -14.5t-129 14.5t-100.5 47t-67.5 90.5t-23 140zM436 768l96 164h172l-152 -164h-116zM216 768l96 164h172l-152 -164h-116z" />
    <glyph glyph-name="uhungarumlaut" unicode="&#x171;" horiz-adv-x="636" 
d="M56 193v295h176v-276q0 -96 76 -96q40 0 64 29.5t24 82.5v260h176v-488h-168v68h-4q-21 -38 -60 -59t-88 -21q-86 0 -141 49t-55 156zM370 568l96 164h172l-152 -164h-116zM150 568l96 164h172l-152 -164h-116z" />
    <glyph glyph-name="Uogonek" unicode="&#x172;" horiz-adv-x="768" 
d="M324 -120q0 64 79 108h-19q-73 0 -129 14.5t-100.5 47t-67.5 90.5t-23 140v408h184v-404q0 -71 34.5 -107.5t101.5 -36.5t101.5 36.5t34.5 107.5v404h184v-408q0 -192 -140 -260q-136 -66 -136 -116q0 -36 44 -36h32v-88h-40q-140 0 -140 100z" />
    <glyph glyph-name="uogonek" unicode="&#x173;" horiz-adv-x="636" 
d="M408 -128q0 34 19.5 61.5t64.5 66.5h-88v68h-4q-21 -38 -60 -59t-88 -21q-86 0 -141 49t-55 156v295h176v-276q0 -96 76 -96q40 0 64 29.5t24 82.5v260h176v-488q-60 -63 -60 -96q0 -36 44 -36h32v-88h-40q-76 0 -108 22.5t-32 69.5z" />
    <glyph glyph-name="Wcircumflex" unicode="&#x174;" horiz-adv-x="1028" 
d="M176 0l-168 688h200l96 -488h4l120 488h172l128 -488h4l92 488h196l-168 -688h-224l-114 440h-4l-110 -440h-224zM326 768l128 164h119l129 -164h-132l-56 84l-56 -84h-132z" />
    <glyph glyph-name="wcircumflex" unicode="&#x175;" horiz-adv-x="836" 
d="M152 0l-144 488h172l76 -320h4l84 320h152l84 -320h4l76 320h168l-144 -488h-188l-76 304h-4l-76 -304h-188zM230 568l128 164h119l129 -164h-132l-56 84l-56 -84h-132z" />
    <glyph glyph-name="Ycircumflex" unicode="&#x176;" horiz-adv-x="732" 
d="M272 0v255l-264 433h208l150 -264h4l158 264h196l-268 -433v-255h-184zM178 768l128 164h119l129 -164h-132l-56 84l-56 -84h-132z" />
    <glyph glyph-name="ycircumflex" unicode="&#x177;" horiz-adv-x="576" 
d="M180 0l-176 488h192l96 -324h4l96 324h180l-180 -530q-63 -186 -224 -186h-72v132h28q45 0 71.5 17t40.5 63l5 16h-61zM100 568l128 164h119l129 -164h-132l-56 84l-56 -84h-132z" />
    <glyph glyph-name="Ydieresis" unicode="&#x178;" horiz-adv-x="732" 
d="M272 0v255l-264 433h208l150 -264h4l158 264h196l-268 -433v-255h-184zM410 768v144h152v-144h-152zM170 768v144h152v-144h-152z" />
    <glyph glyph-name="Zacute" unicode="&#x179;" horiz-adv-x="644" 
d="M40 540v148h572v-100l-331 -440h331v-148h-580v100l334 440h-326zM262 768l96 164h172l-152 -164h-116z" />
    <glyph glyph-name="zacute" unicode="&#x17a;" horiz-adv-x="520" 
d="M32 360v128h452v-92l-227 -268h231v-128h-456v92l229 268h-229zM200 568l96 164h172l-152 -164h-116z" />
    <glyph glyph-name="Zdotaccent" unicode="&#x17b;" horiz-adv-x="644" 
d="M40 540v148h572v-100l-331 -440h331v-148h-580v100l334 440h-326zM246 768v144h152v-144h-152z" />
    <glyph glyph-name="zdotaccent" unicode="&#x17c;" horiz-adv-x="520" 
d="M32 360v128h452v-92l-227 -268h231v-128h-456v92l229 268h-229zM184 588v144h152v-144h-152z" />
    <glyph glyph-name="Zcaron" unicode="&#x17d;" horiz-adv-x="644" 
d="M40 540v148h572v-100l-331 -440h331v-148h-580v100l334 440h-326zM262 768l-128 164h132l56 -84l56 84h132l-129 -164h-119z" />
    <glyph glyph-name="zcaron" unicode="&#x17e;" horiz-adv-x="520" 
d="M32 360v128h452v-92l-227 -268h231v-128h-456v92l229 268h-229zM200 568l-128 164h132l56 -84l56 84h132l-129 -164h-119z" />
    <glyph glyph-name="longs" unicode="&#x17f;" horiz-adv-x="380" 
d="M92 0v364h-92v124h92v48q0 106 45.5 151t158.5 45h92v-128h-44q-46 0 -61 -14t-15 -58v-532h-176z" />
    <glyph glyph-name="florin" unicode="&#x192;" 
d="M40 260v100h125l15 140q12 109 65 154.5t151 45.5q89 0 134.5 -46.5t39.5 -137.5l-2 -32h-144l1 16q3 44 -3.5 62t-25.5 18t-27 -17.5t-13 -62.5l-15 -140h127v-100h-138l-26 -252q-12 -109 -65 -154.5t-151 -45.5q-89 0 -134.5 46.5t-39.5 137.5l2 32h144l-1 -16
q-3 -44 3.5 -62t25.5 -18t27 17.5t13 62.5l26 252h-114z" />
    <glyph glyph-name="AEacute" unicode="&#x1fc;" horiz-adv-x="1180" 
d="M-4 0l500 688h624v-148h-360v-120h296v-136h-296v-136h372v-148h-556v148h-268l-104 -148h-208zM572 524l-169 -240h173v240h-4zM608 768l96 164h172l-152 -164h-116z" />
    <glyph glyph-name="aeacute" unicode="&#x1fd;" horiz-adv-x="896" 
d="M52 324q6 90 72.5 133t167.5 43q112 0 165 -45q59 45 147 45q119 0 187.5 -66.5t68.5 -189.5v-36h-343q12 -104 91 -104q48 0 76 44h168q-13 -68 -80.5 -114t-167.5 -46q-125 0 -188 85q-56 -85 -188 -85q-98 0 -145 37.5t-47 102.5q0 126 172 148l92 12q38 5 49 14
t11 30q0 23 -17 39.5t-51 16.5q-70 0 -76 -64h-164zM264 100q39 0 67.5 22.5t28.5 69.5v35q-13 -18 -44 -23l-56 -8q-52 -7 -52 -48q0 -48 56 -48zM604 388q-70 0 -84 -88h163q-3 43 -20.5 65.5t-58.5 22.5zM380 568l96 164h172l-152 -164h-116z" />
    <glyph glyph-name="Oslashacute" unicode="&#x1fe;" horiz-adv-x="824" 
d="M60 -12l84 100q-100 97 -100 256q0 156 100 256t268 100q115 0 204 -53l44 53h104l-85 -101q101 -99 101 -255t-101.5 -256t-266.5 -100q-118 0 -205 51l-43 -51h-104zM232 344q0 -68 28 -118l248 294q-42 28 -96 28q-80 0 -130 -56.5t-50 -147.5zM592 344q0 68 -29 117
l-248 -294q43 -27 97 -27q80 0 130 57.5t50 146.5zM352 768l96 164h172l-152 -164h-116z" />
    <glyph glyph-name="oslashacute" unicode="&#x1ff;" horiz-adv-x="624" 
d="M60 -12l54 64q-82 69 -82 192q0 116 78 186t202 70q86 0 152 -34l28 34h88l-61 -72q73 -70 73 -184q0 -116 -78 -186t-202 -70q-79 0 -141 28l-23 -28h-88zM212 244q0 -38 10 -64l148 175q-25 20 -58 20q-46 0 -73 -35.5t-27 -95.5zM412 244q0 28 -6 50l-143 -169
q20 -13 49 -13q46 0 73 36t27 96zM252 568l96 164h172l-152 -164h-116z" />
    <glyph glyph-name="Scommaaccent" unicode="&#x218;" horiz-adv-x="692" 
d="M44 196h176q0 -40 33 -60t87 -20q57 0 90.5 20t33.5 56q0 31 -30 46.5t-86 25.5l-48 8q-41 7 -69.5 14t-64.5 22.5t-57.5 36.5t-37 57t-15.5 82q0 93 78 154.5t210 61.5q130 0 205 -55t75 -145h-176q0 35 -28.5 53.5t-75.5 18.5q-49 0 -78.5 -18t-29.5 -50
q0 -33 33.5 -49t98.5 -27l48 -8q50 -8 84.5 -19t71.5 -33t56.5 -60t19.5 -92q0 -104 -80.5 -166t-227.5 -62q-146 0 -221 54t-75 154zM264 -52h152v-100l-64 -116h-68l44 100h-64v116z" />
    <glyph glyph-name="scommaaccent" unicode="&#x219;" 
d="M28 140h164q0 -48 84 -48t84 40q0 21 -15.5 30t-52.5 14l-84 12q-82 12 -123 46t-41 98q0 82 65.5 125t174.5 43q110 0 173 -38.5t63 -109.5h-160q0 44 -78 44q-33 0 -51.5 -10.5t-18.5 -25.5q0 -19 14 -28t54 -15l84 -12q49 -7 84 -20.5t61.5 -45t26.5 -79.5
q0 -86 -71 -129t-189 -43q-115 0 -181.5 37t-66.5 115zM200 -52h152v-100l-64 -116h-68l44 100h-64v116z" />
    <glyph glyph-name="uni021A" unicode="&#x21a;" horiz-adv-x="648" 
d="M8 536v152h632v-152h-224v-536h-184v536h-224zM248 -52h152v-100l-64 -116h-68l44 100h-64v116z" />
    <glyph glyph-name="uni021B" unicode="&#x21b;" horiz-adv-x="400" 
d="M88 196v168h-92v124h92v148h176v-148h112v-124h-112v-156q0 -41 13.5 -56.5t54.5 -15.5h44v-136h-85q-121 0 -162 40.5t-41 155.5zM160 -52h152v-100l-64 -116h-68l44 100h-64v116z" />
    <glyph glyph-name="circumflex" unicode="&#x2c6;" horiz-adv-x="616" 
d="M120 568l128 164h119l129 -164h-132l-56 84l-56 -84h-132z" />
    <glyph glyph-name="caron" unicode="&#x2c7;" horiz-adv-x="616" 
d="M248 568l-128 164h132l56 -84l56 84h132l-129 -164h-119z" />
    <glyph glyph-name="uni02C9" unicode="&#x2c9;" horiz-adv-x="616" 
d="M144 596v108h324v-108h-324z" />
    <glyph glyph-name="breve" unicode="&#x2d8;" horiz-adv-x="616" 
d="M308 568q-71 0 -117 39t-51 125h88q6 -35 27.5 -53.5t52.5 -18.5q30 0 52 19.5t28 52.5h88q-5 -86 -51 -125t-117 -39z" />
    <glyph glyph-name="dotaccent" unicode="&#x2d9;" horiz-adv-x="616" 
d="M232 588v144h152v-144h-152z" />
    <glyph glyph-name="ring" unicode="&#x2da;" horiz-adv-x="616" 
d="M308 544q-51 0 -83.5 31t-32.5 77q0 48 33 78t83 30t83 -30t33 -78q0 -46 -32.5 -77t-83.5 -31zM308 608q18 0 31 12t13 32t-13 32t-31 12t-31 -12t-13 -32t13 -32t31 -12z" />
    <glyph glyph-name="ogonek" unicode="&#x2db;" horiz-adv-x="616" 
d="M232 -128q0 34 19.5 61.5t64.5 66.5h80q-60 -63 -60 -96q0 -36 44 -36h32v-88h-40q-76 0 -108 22.5t-32 69.5z" />
    <glyph glyph-name="tilde" unicode="&#x2dc;" horiz-adv-x="616" 
d="M120 576q0 144 112 144q33 0 85 -20t71 -20q32 0 32 48h76q0 -144 -112 -144q-33 0 -85 20t-71 20q-32 0 -32 -48h-76z" />
    <glyph glyph-name="hungarumlaut" unicode="&#x2dd;" horiz-adv-x="616" 
d="M360 568l96 164h172l-152 -164h-116zM140 568l96 164h172l-152 -164h-116z" />
    <glyph glyph-name="uni0394" unicode="&#x394;" horiz-adv-x="680" 
d="M-4 0l256 688h176l256 -688h-688zM338 484h-4l-122 -348h248z" />
    <glyph glyph-name="uni03A9" unicode="&#x3a9;" horiz-adv-x="696" 
d="M392 0v257q46 12 77 54.5t31 104.5q0 73 -43.5 114.5t-108.5 41.5t-108.5 -41.5t-43.5 -114.5q0 -62 31 -104.5t77 -54.5v-257h-260v120h128v65q-70 32 -109 93.5t-39 141.5q0 120 88.5 200t235.5 80t235.5 -80t88.5 -200q0 -80 -39 -141.5t-109 -93.5v-65h128v-120h-260
z" />
    <glyph glyph-name="uni03BC" unicode="&#x3bc;" horiz-adv-x="628" 
d="M404 0v68h-4q-40 -80 -144 -80q-20 0 -36 6q12 -94 12 -170v-44h-176v708h176v-281q0 -91 76 -91q39 0 63.5 29t24.5 83v260h176v-488h-168z" />
    <glyph glyph-name="pi" unicode="&#x3c0;" horiz-adv-x="636" 
d="M64 0v488h508v-488h-176v360h-156v-360h-176z" />
    <glyph glyph-name="Wgrave" unicode="&#x1e80;" horiz-adv-x="1028" 
d="M176 0l-168 688h200l96 -488h4l120 488h172l128 -488h4l92 488h196l-168 -688h-224l-114 440h-4l-110 -440h-224zM458 768l-152 164h172l96 -164h-116z" />
    <glyph glyph-name="wgrave" unicode="&#x1e81;" horiz-adv-x="836" 
d="M152 0l-144 488h172l76 -320h4l84 320h152l84 -320h4l76 320h168l-144 -488h-188l-76 304h-4l-76 -304h-188zM362 568l-152 164h172l96 -164h-116z" />
    <glyph glyph-name="Wacute" unicode="&#x1e82;" horiz-adv-x="1028" 
d="M176 0l-168 688h200l96 -488h4l120 488h172l128 -488h4l92 488h196l-168 -688h-224l-114 440h-4l-110 -440h-224zM454 768l96 164h172l-152 -164h-116z" />
    <glyph glyph-name="wacute" unicode="&#x1e83;" horiz-adv-x="836" 
d="M152 0l-144 488h172l76 -320h4l84 320h152l84 -320h4l76 320h168l-144 -488h-188l-76 304h-4l-76 -304h-188zM358 568l96 164h172l-152 -164h-116z" />
    <glyph glyph-name="Wdieresis" unicode="&#x1e84;" horiz-adv-x="1028" 
d="M176 0l-168 688h200l96 -488h4l120 488h172l128 -488h4l92 488h196l-168 -688h-224l-114 440h-4l-110 -440h-224zM558 768v144h152v-144h-152zM318 768v144h152v-144h-152z" />
    <glyph glyph-name="wdieresis" unicode="&#x1e85;" horiz-adv-x="836" 
d="M152 0l-144 488h172l76 -320h4l84 320h152l84 -320h4l76 320h168l-144 -488h-188l-76 304h-4l-76 -304h-188zM462 588v144h152v-144h-152zM222 588v144h152v-144h-152z" />
    <glyph glyph-name="Ygrave" unicode="&#x1ef2;" horiz-adv-x="732" 
d="M272 0v255l-264 433h208l150 -264h4l158 264h196l-268 -433v-255h-184zM310 768l-152 164h172l96 -164h-116z" />
    <glyph glyph-name="ygrave" unicode="&#x1ef3;" horiz-adv-x="576" 
d="M180 0l-176 488h192l96 -324h4l96 324h180l-180 -530q-63 -186 -224 -186h-72v132h28q45 0 71.5 17t40.5 63l5 16h-61zM232 568l-152 164h172l96 -164h-116z" />
    <glyph glyph-name="endash" unicode="&#x2013;" horiz-adv-x="556" 
d="M44 180v144h468v-144h-468z" />
    <glyph glyph-name="emdash" unicode="&#x2014;" horiz-adv-x="840" 
d="M44 180v144h752v-144h-752z" />
    <glyph glyph-name="quoteleft" unicode="&#x2018;" horiz-adv-x="280" 
d="M60 372v144l52 172h74l-38 -164h72v-152h-160z" />
    <glyph glyph-name="quoteright" unicode="&#x2019;" horiz-adv-x="280" 
d="M94 372l38 164h-72v152h160v-144l-52 -172h-74z" />
    <glyph glyph-name="quotesinglbase" unicode="&#x201a;" horiz-adv-x="280" 
d="M132 0h-72v152h160v-144l-52 -172h-74z" />
    <glyph glyph-name="quotedblleft" unicode="&#x201c;" horiz-adv-x="516" 
d="M60 372v144l52 172h74l-38 -164h72v-152h-160zM296 372v144l52 172h74l-38 -164h72v-152h-160z" />
    <glyph glyph-name="quotedblright" unicode="&#x201d;" horiz-adv-x="516" 
d="M94 372l38 164h-72v152h160v-144l-52 -172h-74zM330 372l38 164h-72v152h160v-144l-52 -172h-74z" />
    <glyph glyph-name="quotedblbase" unicode="&#x201e;" horiz-adv-x="516" 
d="M132 0h-72v152h160v-144l-52 -172h-74zM368 0h-72v152h160v-144l-52 -172h-74z" />
    <glyph glyph-name="dagger" unicode="&#x2020;" horiz-adv-x="504" 
d="M44 404v116h136v168h144v-168h136v-116h-136v-404h-144v404h-136z" />
    <glyph glyph-name="daggerdbl" unicode="&#x2021;" horiz-adv-x="504" 
d="M44 428v116h136v144h144v-144h136v-116h-136v-172h136v-116h-136v-140h-144v140h-136v116h136v172h-136z" />
    <glyph glyph-name="bullet" unicode="&#x2022;" horiz-adv-x="488" 
d="M244 80q-73 0 -122.5 49.5t-49.5 122.5t49.5 122.5t122.5 49.5t122.5 -49.5t49.5 -122.5t-49.5 -122.5t-122.5 -49.5z" />
    <glyph glyph-name="ellipsis" unicode="&#x2026;" horiz-adv-x="912" 
d="M668 0v168h184v-168h-184zM364 0v168h184v-168h-184zM60 0v168h184v-168h-184z" />
    <glyph glyph-name="perthousand" unicode="&#x2030;" horiz-adv-x="1236" 
d="M192 336q-84 0 -130 49.5t-46 130.5t46 130.5t130 49.5t130 -49.5t46 -130.5t-46 -130.5t-130 -49.5zM192 432q52 0 52 84t-52 84t-52 -84t52 -84zM204 -12l348 712h96l-348 -712h-96zM660 -8q-84 0 -130 49.5t-46 130.5t46 130.5t130 49.5t130 -49.5t46 -130.5
t-46 -130.5t-130 -49.5zM660 88q52 0 52 84t-52 84t-52 -84t52 -84zM1044 -8q-84 0 -130 49.5t-46 130.5t46 130.5t130 49.5t130 -49.5t46 -130.5t-46 -130.5t-130 -49.5zM1044 88q52 0 52 84t-52 84t-52 -84t52 -84z" />
    <glyph glyph-name="guilsinglleft" unicode="&#x2039;" horiz-adv-x="376" 
d="M188 48l-144 204l144 204h144l-108 -204l108 -204h-144z" />
    <glyph glyph-name="guilsinglright" unicode="&#x203a;" horiz-adv-x="376" 
d="M44 48l108 204l-108 204h144l144 -204l-144 -204h-144z" />
    <glyph glyph-name="fraction" unicode="&#x2044;" horiz-adv-x="84" 
d="M-180 -12l348 712h96l-348 -712h-96z" />
    <glyph glyph-name="uni2070" unicode="&#x2070;" horiz-adv-x="384" 
d="M192 488q-84 0 -130 49.5t-46 130.5t46 130.5t130 49.5t130 -49.5t46 -130.5t-46 -130.5t-130 -49.5zM192 584q52 0 52 84t-52 84t-52 -84t52 -84z" />
    <glyph glyph-name="uni2074" unicode="&#x2074;" horiz-adv-x="384" 
d="M16 548v64l188 232h112v-208h44v-88h-44v-52h-128v52h-172zM128 636h60v77z" />
    <glyph glyph-name="uni2075" unicode="&#x2075;" horiz-adv-x="384" 
d="M28 588h125q4 -30 35 -30q36 0 36 42t-36 42q-27 0 -35 -26l-113 16l16 208h272v-88h-175l-4 -60h3q24 20 76 20q45 0 80.5 -25.5t35.5 -82.5q0 -54 -42.5 -85t-109.5 -31q-150 0 -164 100z" />
    <glyph glyph-name="uni2076" unicode="&#x2076;" horiz-adv-x="384" 
d="M348 744h-116q-3 28 -32 28q-19 0 -29.5 -16t-13.5 -67q21 23 79 23q47 0 83.5 -25.5t36.5 -82.5q0 -54 -42.5 -85t-109.5 -31q-176 0 -176 172q0 97 47.5 142.5t128.5 45.5q139 0 144 -104zM200 642q-36 0 -36 -42t36 -42t36 42t-36 42z" />
    <glyph glyph-name="uni2077" unicode="&#x2077;" horiz-adv-x="384" 
d="M72 496l144 244h-184v100h328v-72l-160 -272h-128z" />
    <glyph glyph-name="uni2078" unicode="&#x2078;" horiz-adv-x="384" 
d="M28 584q0 33 19 55.5t49 28.5v4q-60 16 -60 76q0 46 42 73t114 27t114 -27t42 -73q0 -60 -60 -76v-4q30 -6 49 -28.5t19 -55.5q0 -96 -164 -96t-164 96zM152 598q0 -17 10.5 -27.5t29.5 -10.5t29.5 10.5t10.5 27.5t-10.5 27.5t-29.5 10.5t-29.5 -10.5t-10.5 -27.5z
M156 740q0 -36 36 -36t36 36t-36 36t-36 -36z" />
    <glyph glyph-name="uni2079" unicode="&#x2079;" horiz-adv-x="384" 
d="M32 592h116q3 -28 32 -28q37 0 42 81q-18 -25 -78 -25q-48 0 -84 23.5t-36 80.5q0 55 43 89.5t109 34.5q176 0 176 -172q0 -188 -176 -188q-139 0 -144 104zM180 694q36 0 36 42t-36 42t-36 -42t36 -42z" />
    <glyph glyph-name="uni2080" unicode="&#x2080;" horiz-adv-x="384" 
d="M192 -160q-84 0 -130 49.5t-46 130.5t46 130.5t130 49.5t130 -49.5t46 -130.5t-46 -130.5t-130 -49.5zM192 -64q52 0 52 84t-52 84t-52 -84t52 -84z" />
    <glyph glyph-name="uni2081" unicode="&#x2081;" horiz-adv-x="384" 
d="M84 16l-48 84l160 92h76v-252h92v-92h-316v92h92v107z" />
    <glyph glyph-name="uni2082" unicode="&#x2082;" horiz-adv-x="384" 
d="M24 -152q0 79 33.5 121.5t96.5 67.5l10 4q43 17 57.5 25.5t14.5 21.5q0 28 -40 28q-44 0 -44 -44h-124q1 62 48.5 95t115.5 33q78 0 123 -30t45 -78q0 -43 -20.5 -67t-77.5 -46l-10 -4q-10 -4 -21 -8.5t-17 -6.5t-12.5 -5t-10 -4.5t-6.5 -3.5t-4 -3.5t-1 -3.5h176v-92
h-332z" />
    <glyph glyph-name="uni2083" unicode="&#x2083;" horiz-adv-x="384" 
d="M36 -44h116q0 -44 40 -44q19 0 29.5 10.5t10.5 27.5q0 38 -48 38h-12v68h12q44 0 44 36t-36 36t-36 -40h-112q3 54 43 83t105 29q72 0 114 -27t42 -73q0 -60 -60 -76v-4q68 -14 68 -76q0 -104 -164 -104q-76 0 -114.5 28t-41.5 88z" />
    <glyph glyph-name="uni2084" unicode="&#x2084;" horiz-adv-x="384" 
d="M16 -100v64l188 232h112v-208h44v-88h-44v-52h-128v52h-172zM128 -12h60v77z" />
    <glyph glyph-name="uni2085" unicode="&#x2085;" horiz-adv-x="384" 
d="M28 -60h125q4 -30 35 -30q36 0 36 42t-36 42q-27 0 -35 -26l-113 16l16 208h272v-88h-175l-4 -60h3q24 20 76 20q45 0 80.5 -25.5t35.5 -82.5q0 -54 -42.5 -85t-109.5 -31q-150 0 -164 100z" />
    <glyph glyph-name="uni2086" unicode="&#x2086;" horiz-adv-x="384" 
d="M348 96h-116q-3 28 -32 28q-19 0 -29.5 -16t-13.5 -67q21 23 79 23q47 0 83.5 -25.5t36.5 -82.5q0 -54 -42.5 -85t-109.5 -31q-176 0 -176 172q0 97 47.5 142.5t128.5 45.5q139 0 144 -104zM200 -6q-36 0 -36 -42t36 -42t36 42t-36 42z" />
    <glyph glyph-name="uni2087" unicode="&#x2087;" horiz-adv-x="384" 
d="M72 -152l144 244h-184v100h328v-72l-160 -272h-128z" />
    <glyph glyph-name="uni2088" unicode="&#x2088;" horiz-adv-x="384" 
d="M28 -64q0 33 19 55.5t49 28.5v4q-60 16 -60 76q0 46 42 73t114 27t114 -27t42 -73q0 -60 -60 -76v-4q30 -6 49 -28.5t19 -55.5q0 -96 -164 -96t-164 96zM152 -50q0 -17 10.5 -27.5t29.5 -10.5t29.5 10.5t10.5 27.5t-10.5 27.5t-29.5 10.5t-29.5 -10.5t-10.5 -27.5z
M156 92q0 -36 36 -36t36 36t-36 36t-36 -36z" />
    <glyph glyph-name="uni2089" unicode="&#x2089;" horiz-adv-x="384" 
d="M32 -56h116q3 -28 32 -28q37 0 42 81q-18 -25 -78 -25q-48 0 -84 23.5t-36 80.5q0 55 43 89.5t109 34.5q176 0 176 -172q0 -188 -176 -188q-139 0 -144 104zM180 46q36 0 36 42t-36 42t-36 -42t36 -42z" />
    <glyph glyph-name="Euro" unicode="&#x20ac;" 
d="M0 368l24 80h43q18 117 81.5 184.5t175.5 67.5q103 0 159.5 -57.5t72.5 -154.5h-164q-15 76 -68 76q-66 0 -79 -116h159l-24 -80h-140v-52h136l-24 -80h-107q7 -58 26 -85t53 -27q52 0 68 76h164q-19 -97 -75.5 -154.5t-156.5 -57.5q-111 0 -174 66t-82 182h-84l24 80h52
v52h-60z" />
    <glyph glyph-name="afii61289" unicode="&#x2113;" horiz-adv-x="412" 
d="M129 26q-38 41 -38 139v74l-2 1l-59 -41l-12 24q38 31 73 61v136q0 102 18 157t55 89q37 33 85 33q47 0 74 -34.5t27 -93.5q0 -46 -17.5 -89.5t-50 -80.5t-55.5 -58.5t-58 -48.5v-109q0 -138 91 -138q63 0 118 80l22 -16q-24 -58 -68 -90.5t-101 -32.5q-66 0 -102 38z
M171 342q121 103 121 230q0 91 -55 91q-68 0 -68 -179v-141z" />
    <glyph glyph-name="afii61352" unicode="&#x2116;" horiz-adv-x="1216" 
d="M56 0v688h160l304 -372h4l-4 372h184v-688h-156l-308 376h-4l4 -376h-184zM800 516q0 83 52 131.5t144 48.5t144 -48.5t52 -131.5t-52 -131.5t-144 -48.5t-144 48.5t-52 131.5zM804 0v88h383v-88h-383zM804 172v88h383v-88h-383zM932 516q0 -84 64 -84t64 84t-64 84
t-64 -84z" />
    <glyph glyph-name="trademark" unicode="&#x2122;" horiz-adv-x="856" 
d="M372 344v344h164l60 -192h4l60 192h164v-344h-116l4 216h-4l-68 -216h-84l-68 216h-4l4 -216h-116zM4 588v100h332v-100h-108v-244h-116v244h-108z" />
    <glyph glyph-name="Omega" unicode="&#x2126;" horiz-adv-x="696" 
d="M392 0v257q46 12 77 54.5t31 104.5q0 73 -43.5 114.5t-108.5 41.5t-108.5 -41.5t-43.5 -114.5q0 -62 31 -104.5t77 -54.5v-257h-260v120h128v65q-70 32 -109 93.5t-39 141.5q0 120 88.5 200t235.5 80t235.5 -80t88.5 -200q0 -80 -39 -141.5t-109 -93.5v-65h128v-120h-260
z" />
    <glyph glyph-name="estimated" unicode="&#x212e;" horiz-adv-x="850" 
d="M184 113q98 -103 243 -103q76 0 142 31t113 86h58q-55 -64 -137.5 -101.5t-176.5 -37.5q-165 0 -281 104t-116 252t116.5 252t280.5 104t280 -104t116 -252v-10h-641q-7 0 -7 -4v-194q0 -11 10 -23zM181 355h492q4 0 4 6v193q0 14 -10 24q-98 100 -240 100t-242 -103
q-11 -11 -11 -26v-188q0 -6 7 -6z" />
    <glyph glyph-name="uni2153" unicode="&#x2153;" horiz-adv-x="852" 
d="M504 108h116q0 -44 40 -44q19 0 29.5 10.5t10.5 27.5q0 38 -48 38h-12v68h12q44 0 44 36t-36 36t-36 -40h-112q3 54 43 83t105 29q72 0 114 -27t42 -73q0 -60 -60 -76v-4q68 -14 68 -76q0 -104 -164 -104q-76 0 -114.5 28t-41.5 88zM84 512l-48 84l160 92h76v-252h92v-92
h-316v92h92v107zM232 -12l348 712h96l-348 -712h-96z" />
    <glyph glyph-name="uni2154" unicode="&#x2154;" horiz-adv-x="852" 
d="M24 344q0 79 33.5 121.5t96.5 67.5l10 4q43 17 57.5 25.5t14.5 21.5q0 28 -40 28q-44 0 -44 -44h-124q1 62 48.5 95t115.5 33q78 0 123 -30t45 -78q0 -43 -20.5 -67t-77.5 -46l-10 -4q-10 -4 -21 -8.5t-17 -6.5t-12.5 -5t-10 -4.5t-6.5 -3.5t-4 -3.5t-1 -3.5h176v-92
h-332zM504 108h116q0 -44 40 -44q19 0 29.5 10.5t10.5 27.5q0 38 -48 38h-12v68h12q44 0 44 36t-36 36t-36 -40h-112q3 54 43 83t105 29q72 0 114 -27t42 -73q0 -60 -60 -76v-4q68 -14 68 -76q0 -104 -164 -104q-76 0 -114.5 28t-41.5 88zM228 -12l348 712h96l-348 -712h-96
z" />
    <glyph glyph-name="uni2155" unicode="&#x2155;" horiz-adv-x="852" 
d="M496 92h125q4 -30 35 -30q36 0 36 42t-36 42q-27 0 -35 -26l-113 16l16 208h272v-88h-175l-4 -60h3q24 20 76 20q45 0 80.5 -25.5t35.5 -82.5q0 -54 -42.5 -85t-109.5 -31q-150 0 -164 100zM84 512l-48 84l160 92h76v-252h92v-92h-316v92h92v107zM220 -12l348 712h96
l-348 -712h-96z" />
    <glyph glyph-name="uni2156" unicode="&#x2156;" horiz-adv-x="852" 
d="M24 344q0 79 33.5 121.5t96.5 67.5l10 4q43 17 57.5 25.5t14.5 21.5q0 28 -40 28q-44 0 -44 -44h-124q1 62 48.5 95t115.5 33q78 0 123 -30t45 -78q0 -43 -20.5 -67t-77.5 -46l-10 -4q-10 -4 -21 -8.5t-17 -6.5t-12.5 -5t-10 -4.5t-6.5 -3.5t-4 -3.5t-1 -3.5h176v-92
h-332zM496 92h125q4 -30 35 -30q36 0 36 42t-36 42q-27 0 -35 -26l-113 16l16 208h272v-88h-175l-4 -60h3q24 20 76 20q45 0 80.5 -25.5t35.5 -82.5q0 -54 -42.5 -85t-109.5 -31q-150 0 -164 100zM216 -12l348 712h96l-348 -712h-96z" />
    <glyph glyph-name="uni2157" unicode="&#x2157;" horiz-adv-x="852" 
d="M496 92h125q4 -30 35 -30q36 0 36 42t-36 42q-27 0 -35 -26l-113 16l16 208h272v-88h-175l-4 -60h3q24 20 76 20q45 0 80.5 -25.5t35.5 -82.5q0 -54 -42.5 -85t-109.5 -31q-150 0 -164 100zM36 452h116q0 -44 40 -44q19 0 29.5 10.5t10.5 27.5q0 38 -48 38h-12v68h12
q44 0 44 36t-36 36t-36 -40h-112q3 54 43 83t105 29q72 0 114 -27t42 -73q0 -60 -60 -76v-4q68 -14 68 -76q0 -104 -164 -104q-76 0 -114.5 28t-41.5 88zM196 -12l348 712h96l-348 -712h-96z" />
    <glyph glyph-name="uni2158" unicode="&#x2158;" horiz-adv-x="852" 
d="M496 92h125q4 -30 35 -30q36 0 36 42t-36 42q-27 0 -35 -26l-113 16l16 208h272v-88h-175l-4 -60h3q24 20 76 20q45 0 80.5 -25.5t35.5 -82.5q0 -54 -42.5 -85t-109.5 -31q-150 0 -164 100zM16 396v64l188 232h112v-208h44v-88h-44v-52h-128v52h-172zM204 -12l348 712h96
l-348 -712h-96zM128 484h60v77z" />
    <glyph glyph-name="uni2159" unicode="&#x2159;" horiz-adv-x="852" 
d="M816 248h-116q-3 28 -32 28q-19 0 -29.5 -16.5t-13.5 -67.5h3q20 24 76 24q47 0 83.5 -25.5t36.5 -82.5q0 -54 -42.5 -85t-109.5 -31q-176 0 -176 172q0 97 47.5 142.5t128.5 45.5q139 0 144 -104zM84 512l-48 84l160 92h76v-252h92v-92h-316v92h92v107zM232 -12l348 712
h96l-348 -712h-96zM668 146q-16 0 -26 -10.5t-10 -27.5v-4q0 -42 36 -42t36 42t-36 42z" />
    <glyph glyph-name="uni215A" unicode="&#x215a;" horiz-adv-x="852" 
d="M816 248h-116q-3 28 -32 28q-19 0 -29.5 -16.5t-13.5 -67.5h3q20 24 76 24q47 0 83.5 -25.5t36.5 -82.5q0 -54 -42.5 -85t-109.5 -31q-176 0 -176 172q0 97 47.5 142.5t128.5 45.5q139 0 144 -104zM28 436h125q4 -30 35 -30q36 0 36 42t-36 42q-27 0 -35 -26l-113 16
l16 208h272v-88h-175l-4 -60h3q24 20 76 20q45 0 80.5 -25.5t35.5 -82.5q0 -54 -42.5 -85t-109.5 -31q-150 0 -164 100zM204 -12l348 712h96l-348 -712h-96zM668 146q-36 0 -36 -42t36 -42t36 42t-36 42z" />
    <glyph glyph-name="uni215B" unicode="&#x215b;" horiz-adv-x="852" 
d="M496 88q0 33 19 55.5t49 28.5v4q-60 16 -60 76q0 46 42 73t114 27t114 -27t42 -73q0 -60 -60 -76v-4q30 -6 49 -28.5t19 -55.5q0 -96 -164 -96t-164 96zM84 512l-48 84l160 92h76v-252h92v-92h-316v92h92v107zM228 -12l348 712h96l-348 -712h-96zM620 102
q0 -17 10.5 -27.5t29.5 -10.5t29.5 10.5t10.5 27.5t-10.5 27.5t-29.5 10.5t-29.5 -10.5t-10.5 -27.5zM624 244q0 -36 36 -36t36 36t-36 36t-36 -36z" />
    <glyph glyph-name="uni215C" unicode="&#x215c;" horiz-adv-x="852" 
d="M496 88q0 33 19 55.5t49 28.5v4q-60 16 -60 76q0 46 42 73t114 27t114 -27t42 -73q0 -60 -60 -76v-4q30 -6 49 -28.5t19 -55.5q0 -96 -164 -96t-164 96zM36 452h116q0 -44 40 -44q19 0 29.5 10.5t10.5 27.5q0 38 -48 38h-12v68h12q44 0 44 36t-36 36t-36 -40h-112
q3 54 43 83t105 29q72 0 114 -27t42 -73q0 -60 -60 -76v-4q68 -14 68 -76q0 -104 -164 -104q-76 0 -114.5 28t-41.5 88zM208 -12l348 712h96l-348 -712h-96zM620 102q0 -17 10.5 -27.5t29.5 -10.5t29.5 10.5t10.5 27.5t-10.5 27.5t-29.5 10.5t-29.5 -10.5t-10.5 -27.5z
M624 244q0 -36 36 -36t36 36t-36 36t-36 -36z" />
    <glyph glyph-name="uni215D" unicode="&#x215d;" horiz-adv-x="852" 
d="M496 88q0 33 19 55.5t49 28.5v4q-60 16 -60 76q0 46 42 73t114 27t114 -27t42 -73q0 -60 -60 -76v-4q30 -6 49 -28.5t19 -55.5q0 -96 -164 -96t-164 96zM28 436h125q4 -30 35 -30q36 0 36 42t-36 42q-27 0 -35 -26l-113 16l16 208h272v-88h-175l-4 -60h3q24 20 76 20
q45 0 80.5 -25.5t35.5 -82.5q0 -54 -42.5 -85t-109.5 -31q-150 0 -164 100zM204 -12l348 712h96l-348 -712h-96zM620 102q0 -17 10.5 -27.5t29.5 -10.5t29.5 10.5t10.5 27.5t-10.5 27.5t-29.5 10.5t-29.5 -10.5t-10.5 -27.5zM624 244q0 -36 36 -36t36 36t-36 36t-36 -36z
" />
    <glyph glyph-name="uni215E" unicode="&#x215e;" horiz-adv-x="852" 
d="M496 88q0 33 19 55.5t49 28.5v4q-60 16 -60 76q0 46 42 73t114 27t114 -27t42 -73q0 -60 -60 -76v-4q30 -6 49 -28.5t19 -55.5q0 -96 -164 -96t-164 96zM176 -12l348 712h96l-348 -712h-96zM72 344l144 244h-184v100h328v-72l-160 -272h-128zM620 102q0 -17 10.5 -27.5
t29.5 -10.5t29.5 10.5t10.5 27.5t-10.5 27.5t-29.5 10.5t-29.5 -10.5t-10.5 -27.5zM624 244q0 -36 36 -36t36 36t-36 36t-36 -36z" />
    <glyph glyph-name="uni2190" unicode="&#x2190;" horiz-adv-x="660" 
d="M28 252l272 272l92 -88l-116 -116q85 4 160 4h196v-144h-196q-75 0 -160 4l116 -116l-92 -88z" />
    <glyph glyph-name="uni2191" unicode="&#x2191;" horiz-adv-x="660" 
d="M339 554l272 -272l-88 -92l-116 116q4 -87 4 -160v-196h-144v196q0 73 4 160l-116 -116l-88 92z" />
    <glyph glyph-name="uni2192" unicode="&#x2192;" horiz-adv-x="660" 
d="M632 252l-272 -272l-92 88l116 116q-87 -4 -160 -4h-196v144h196q73 0 160 -4l-116 116l92 88z" />
    <glyph glyph-name="uni2193" unicode="&#x2193;" horiz-adv-x="660" 
d="M330 -50l-272 272l88 92l116 -116q-4 85 -4 160v196h144v-196q0 -75 -4 -160l116 116l88 -92z" />
    <glyph glyph-name="uni2196" unicode="&#x2196;" horiz-adv-x="660" 
d="M64 464h388v-128h-160q21 -19 43 -40.5t42 -41t27 -26.5l140 -140l-100 -100l-140 136q-42 42 -112 120v-168h-128v388z" />
    <glyph glyph-name="uni2197" unicode="&#x2197;" horiz-adv-x="660" 
d="M544 464v-388h-128v168q-70 -78 -112 -120l-140 -136l-100 100l140 140q76 76 111 108h-159v128h388z" />
    <glyph glyph-name="uni2198" unicode="&#x2198;" horiz-adv-x="660" 
d="M544 -12h-388v128h159q-53 47 -111 108l-140 140l100 100l140 -136q42 -42 112 -120v168h128v-388z" />
    <glyph glyph-name="uni2199" unicode="&#x2199;" horiz-adv-x="660" 
d="M64 -12v388h128v-168q70 78 112 120l140 136l100 -100l-140 -140q-74 -74 -112 -108h160v-128h-388z" />
    <glyph glyph-name="partialdiff" unicode="&#x2202;" 
d="M12 196q0 64 21 113.5t55.5 76.5t73 40.5t78.5 13.5q47 0 83.5 -14.5t51.5 -37.5q1 8 1 24q0 160 -80 160q-56 0 -72 -56h-164q18 85 79 134.5t165 49.5q108 0 174 -70t66 -222q0 -116 -25 -200.5t-69 -131t-97 -67.5t-117 -21q-95 0 -159.5 55.5t-64.5 152.5zM256 116
q41 0 64.5 33.5t23.5 78.5q0 84 -72 84q-39 0 -65.5 -29t-26.5 -87q0 -41 21 -60.5t55 -19.5z" />
    <glyph glyph-name="Delta" unicode="&#x2206;" horiz-adv-x="680" 
d="M-4 0l256 688h176l256 -688h-688zM338 484h-4l-122 -348h248z" />
    <glyph glyph-name="product" unicode="&#x220f;" horiz-adv-x="760" 
d="M72 0v688h616v-688h-176v552h-264v-552h-176z" />
    <glyph glyph-name="summation" unicode="&#x2211;" horiz-adv-x="576" 
d="M4 0v53l232 283l-224 292v60h528v-132h-274l162 -208l-169 -216h281v-132h-536z" />
    <glyph glyph-name="minus" unicode="&#x2212;" 
d="M60 192v128h448v-128h-448z" />
    <glyph glyph-name="uni2215" unicode="&#x2215;" horiz-adv-x="84" 
d="M-180 -12l348 712h96l-348 -712h-96z" />
    <glyph glyph-name="uni2219" unicode="&#x2219;" horiz-adv-x="304" 
d="M60 172v164h184v-164h-184z" />
    <glyph glyph-name="radical" unicode="&#x221a;" horiz-adv-x="632" 
d="M24 252v128l200 64l86 -252h4l158 496h164l-228 -688h-188l-104 282z" />
    <glyph glyph-name="infinity" unicode="&#x221e;" horiz-adv-x="708" 
d="M196 88q-76 0 -122 46.5t-46 121.5t46 121.5t122 46.5q88 0 160 -93q75 93 156 93q76 0 122 -46.5t46 -121.5t-46 -121.5t-122 -46.5q-89 0 -161 93q-72 -93 -155 -93zM196 196q42 0 86 60q-44 60 -86 60q-25 0 -40.5 -16.5t-15.5 -43.5q0 -26 15.5 -43t40.5 -17z
M426 256q44 -60 86 -60q25 0 40.5 17t15.5 43q0 27 -15.5 43.5t-40.5 16.5q-42 0 -86 -60z" />
    <glyph glyph-name="integral" unicode="&#x222b;" horiz-adv-x="364" 
d="M12 -56h44q42 0 54 28t6 100l-36 504q-9 129 36 190.5t164 61.5h64v-128h-44q-42 0 -54 -28t-6 -100l36 -504q9 -129 -36 -190.5t-164 -61.5h-64v128z" />
    <glyph glyph-name="approxequal" unicode="&#x2248;" 
d="M40 276q0 101 43.5 150.5t104.5 49.5q51 0 108 -32t76 -32q44 0 44 72h116q0 -101 -43.5 -150.5t-104.5 -49.5q-51 0 -108 32t-76 32q-44 0 -44 -72h-116zM40 24q0 101 43.5 150.5t104.5 49.5q51 0 108 -32t76 -32q44 0 44 72h116q0 -101 -43.5 -150.5t-104.5 -49.5
q-51 0 -108 32t-76 32q-44 0 -44 -72h-116z" />
    <glyph glyph-name="notequal" unicode="&#x2260;" 
d="M56 304v128h257l63 128l88 -44l-41 -84h89v-128h-151l-49 -100h200v-128h-262l-62 -128l-88 44l41 84h-85v128h147l48 100h-195z" />
    <glyph glyph-name="lessequal" unicode="&#x2264;" 
d="M72 336v136l424 156v-144l-249 -80l249 -84v-144zM72 0v128h424v-128h-424z" />
    <glyph glyph-name="greaterequal" unicode="&#x2265;" 
d="M496 468v-136l-424 -156v144l248 79l-248 85v144zM72 0v128h424v-128h-424z" />
    <glyph glyph-name="uni25A0" unicode="&#x25a0;" horiz-adv-x="688" 
d="M0 0v688h688v-688h-688z" />
    <glyph glyph-name="uni25A1" unicode="&#x25a1;" horiz-adv-x="688" 
d="M0 0v688h688v-688h-688zM148 136h392v416h-392v-416z" />
    <glyph glyph-name="uni25B6" unicode="&#x25b6;" horiz-adv-x="502" 
d="M44 -12v512l446 -256z" />
    <glyph glyph-name="uni25B7" unicode="&#x25b7;" horiz-adv-x="502" 
d="M44 -12v512l446 -256zM151 166l137 78l-137 78v-156z" />
    <glyph glyph-name="uni25C0" unicode="&#x25c0;" horiz-adv-x="502" 
d="M12 244l446 256v-512z" />
    <glyph glyph-name="uni25C1" unicode="&#x25c1;" horiz-adv-x="502" 
d="M12 244l446 256v-512zM214 244l137 -78v156z" />
    <glyph glyph-name="lozenge" unicode="&#x25ca;" horiz-adv-x="684" 
d="M264 0l-252 344l252 344h156l252 -344l-252 -344h-156zM346 540h-8l-144 -199l146 -197h4l146 197z" />
    <glyph glyph-name="uni25CB" unicode="&#x25cb;" horiz-adv-x="552" 
d="M16 244q0 109 73.5 182.5t186.5 73.5q114 0 187 -72.5t73 -183.5q0 -109 -73.5 -182.5t-186.5 -73.5q-114 0 -187 72.5t-73 183.5zM160 244q0 -55 33 -91.5t83 -36.5q52 0 84 36t32 92q0 55 -33 91.5t-83 36.5q-52 0 -84 -36t-32 -92z" />
    <glyph glyph-name="uni25CF" unicode="&#x25cf;" horiz-adv-x="552" 
d="M16 244q0 109 73.5 182.5t186.5 73.5q114 0 187 -72.5t73 -183.5q0 -109 -73.5 -182.5t-186.5 -73.5q-114 0 -187 72.5t-73 183.5z" />
    <glyph glyph-name="uni25FB" unicode="&#x25fb;" horiz-adv-x="488" 
d="M0 0v488h488v-488h-488zM132 128h224v232h-224v-232z" />
    <glyph glyph-name="uni25FC" unicode="&#x25fc;" horiz-adv-x="488" 
d="M0 0v488h488v-488h-488z" />
    <glyph glyph-name="uni2605" unicode="&#x2605;" horiz-adv-x="546" 
d="M106 13l68 183l-162 108l5 16l195 -9l53 189h16l52 -189l196 9l5 -16l-163 -108l69 -183l-14 -10l-153 121l-153 -121z" />
    <glyph glyph-name="dotlessj" unicode="&#xf6be;" horiz-adv-x="304" 
d="M64 -16v504h176v-504q0 -107 -45.5 -155.5t-166.5 -48.5h-52v128h28q34 0 47 18t13 58z" />
    <glyph glyph-name="commaaccent" unicode="&#xf6c3;" horiz-adv-x="616" 
d="M232 -52h152v-100l-64 -116h-68l44 100h-64v116z" />
    <glyph glyph-name="at.sc" horiz-adv-x="840" 
d="M228 96q0 97 124 112l64 8q27 3 37.5 10t10.5 22q0 16 -11 26t-29 10q-43 0 -48 -44h-132q4 71 54 103.5t126 32.5q184 0 184 -148v-100q0 -29 8 -42.5t32 -13.5q60 0 60 132q0 116 -79.5 186t-204.5 70q-132 0 -212 -81.5t-80 -202.5q0 -123 77 -199.5t207 -76.5
q90 0 140 44h108q-80 -116 -248 -116q-162 0 -265 99.5t-103 248.5q0 151 104 253.5t272 102.5q161 0 264.5 -91t103.5 -237q0 -108 -52.5 -160t-135.5 -52q-97 0 -123 54q-42 -54 -125 -54q-64 0 -96 28t-32 76zM464 132v31q-9 -12 -32 -15l-28 -4q-32 -5 -32 -32
q0 -32 40 -32q20 0 36 11.5t16 40.5z" />
    <glyph glyph-name="a.sc" horiz-adv-x="624" 
d="M4 0l204 520h208l204 -520h-188l-25 76h-198l-25 -76h-180zM308 368l-57 -168h116l-55 168h-4z" />
    <glyph glyph-name="b.sc" horiz-adv-x="644" 
d="M72 0v520h336q87 0 131.5 -35.5t44.5 -100.5q0 -85 -84 -106v-4q54 -8 81 -40.5t27 -81.5q0 -67 -47 -109.5t-133 -42.5h-356zM376 212h-128v-98h128q25 0 38.5 13.5t13.5 35.5q0 23 -14 36t-38 13zM360 406h-112v-86h112q48 0 48 45q0 18 -12 29.5t-36 11.5z" />
    <glyph glyph-name="c.sc" horiz-adv-x="616" 
d="M32 260q0 123 78.5 197.5t217.5 74.5q105 0 175.5 -54t84.5 -146h-172q-21 60 -92 60q-53 0 -82.5 -35t-29.5 -97q0 -65 30.5 -98.5t81.5 -33.5q64 0 92 60h172q-14 -90 -84 -145t-180 -55q-139 0 -215.5 75t-76.5 197z" />
    <glyph glyph-name="d.sc" horiz-adv-x="652" 
d="M72 0v520h268q135 0 207.5 -70.5t72.5 -189.5q0 -115 -73.5 -187.5t-207.5 -72.5h-267zM308 388h-60v-256h60q68 0 100 35.5t32 92.5q0 128 -132 128z" />
    <glyph glyph-name="e.sc" horiz-adv-x="584" 
d="M72 0v520h456v-124h-280v-76h228v-116h-228v-80h292v-124h-468z" />
    <glyph glyph-name="f.sc" horiz-adv-x="552" 
d="M72 0v520h440v-124h-264v-108h216v-120h-216v-168h-176z" />
    <glyph glyph-name="g.sc" horiz-adv-x="664" 
d="M344 184v112h256v-296h-112l-8 37h-4q-56 -49 -148 -49q-137 0 -214.5 75t-77.5 197q0 119 82.5 195.5t221.5 76.5q112 0 182 -53t78 -131h-172q-5 17 -28.5 32.5t-59.5 15.5q-56 0 -90 -37t-34 -99q0 -67 34.5 -103.5t93.5 -36.5q42 0 68.5 17.5t33.5 46.5h-102z" />
    <glyph glyph-name="h.sc" horiz-adv-x="680" 
d="M72 0v520h176v-188h184v188h176v-520h-176v192h-184v-192h-176z" />
    <glyph glyph-name="i.sc" horiz-adv-x="320" 
d="M72 0v520h176v-520h-176z" />
    <glyph glyph-name="j.sc" horiz-adv-x="532" 
d="M36 176v20h172v-32q0 -19 11.5 -31.5t32.5 -12.5t32.5 12.5t11.5 31.5v356h176v-320q0 -212 -220 -212q-101 0 -158.5 47.5t-57.5 140.5z" />
    <glyph glyph-name="k.sc" horiz-adv-x="648" 
d="M72 0v520h176v-189l171 189h200l-211 -223l232 -297h-205l-138 179l-49 -52v-127h-176z" />
    <glyph glyph-name="l.sc" horiz-adv-x="524" 
d="M72 0v520h176v-380h248v-140h-424z" />
    <glyph glyph-name="m.sc" horiz-adv-x="836" 
d="M72 0v520h244l101 -292h2l109 292h236v-520h-172l11 312h-3l-124 -312h-124l-116 312h-4l12 -312h-172z" />
    <glyph glyph-name="n.sc" horiz-adv-x="680" 
d="M72 0v520h148l212 -248h4l-4 248h176v-520h-144l-216 248h-5l5 -248h-176z" />
    <glyph glyph-name="o.sc" horiz-adv-x="672" 
d="M32 260q0 120 82 196t222 76q137 0 220.5 -76.5t83.5 -195.5q0 -120 -82 -196t-222 -76q-137 0 -220.5 76.5t-83.5 195.5zM212 260q0 -58 35 -95t89 -37q55 0 89.5 36t34.5 96q0 58 -35 95t-89 37q-55 0 -89.5 -36t-34.5 -96z" />
    <glyph glyph-name="p.sc" horiz-adv-x="620" 
d="M72 0v520h304q98 0 155 -50.5t57 -133.5q0 -87 -57 -139.5t-155 -52.5h-128v-144h-176zM340 396h-92v-128h92q32 0 50 17t18 47q0 29 -18 46.5t-50 17.5z" />
    <glyph glyph-name="q.sc" horiz-adv-x="672" 
d="M32 260q0 120 82 196t222 76q137 0 220.5 -76.5t83.5 -195.5q0 -111 -72 -186l92 -94l-102 -96l-115 118q-56 -14 -107 -14q-137 0 -220.5 76.5t-83.5 195.5zM212 260q0 -58 35 -95t89 -37q55 0 89.5 36t34.5 96q0 58 -35 95t-89 37q-55 0 -89.5 -36t-34.5 -96z" />
    <glyph glyph-name="r.sc" horiz-adv-x="640" 
d="M72 0v520h304q102 0 157 -46.5t55 -129.5q0 -56 -27 -99t-77 -65l128 -180h-188l-108 160h-68v-160h-176zM344 396h-96v-116h96q30 0 47 16t17 44q0 26 -17 41t-47 15z" />
    <glyph glyph-name="s.sc" horiz-adv-x="584" 
d="M36 152h172q0 -52 80 -52t80 48q0 20 -20 28t-64 13l-32 4q-36 5 -58.5 9t-54 15.5t-50 27.5t-32 44.5t-13.5 66.5q0 78 63.5 127t184.5 49q115 0 175.5 -44t60.5 -116h-168q0 24 -19.5 36t-48.5 12q-72 0 -72 -44q0 -19 21 -28t63 -14l32 -4q36 -5 59 -9t55 -15.5
t51 -27.5t33 -44.5t14 -65.5q0 -84 -66 -132t-194 -48q-124 0 -188 43t-64 121z" />
    <glyph glyph-name="t.sc" 
d="M28 380v140h512v-140h-168v-380h-176v380h-168z" />
    <glyph glyph-name="u.sc" horiz-adv-x="648" 
d="M56 216v304h176v-296q0 -44 24 -68t68 -24t68 24t24 68v296h176v-304q0 -126 -70 -177t-198 -51q-62 0 -108.5 11t-83.5 36t-56.5 70.5t-19.5 110.5z" />
    <glyph glyph-name="v.sc" horiz-adv-x="616" 
d="M200 0l-196 520h192l112 -368h4l124 368h176l-192 -520h-220z" />
    <glyph glyph-name="w.sc" horiz-adv-x="856" 
d="M136 0l-128 520h188l66 -344h4l90 344h148l94 -344h4l58 344h188l-132 -520h-212l-72 288h-4l-76 -288h-216z" />
    <glyph glyph-name="x.sc" horiz-adv-x="620" 
d="M4 0l200 264l-192 256h208l96 -140l88 140h200l-188 -256l200 -264h-204l-108 152l-100 -152h-200z" />
    <glyph glyph-name="y.sc" horiz-adv-x="616" 
d="M220 0v188l-216 332h196l108 -180h4l116 180h184l-216 -326v-194h-176z" />
    <glyph glyph-name="z.sc" horiz-adv-x="552" 
d="M36 384v136h484v-92l-238 -292h238v-136h-488v92l243 292h-239z" />
    <glyph glyph-name="ampersand.sc" horiz-adv-x="636" 
d="M28 136q0 82 115 138q-47 53 -47 110q0 62 47.5 103t144.5 41q184 0 184 -136q0 -80 -121 -133l84 -76q13 31 13 69v8h136v-16q0 -88 -49 -150l105 -94h-184l-21 18q-69 -30 -155 -30q-252 0 -252 148zM280 92q24 0 57 9l-117 101q-40 -22 -40 -50q0 -26 25.5 -43
t74.5 -17zM240 392q0 -28 34 -63q62 29 62 59q0 22 -13.5 35t-34.5 13q-19 0 -33.5 -12t-14.5 -32z" />
    <glyph glyph-name="fi.sc" horiz-adv-x="872" 
d="M72 0v520h440v-124h-264v-112h216v-120h-216v-164h-176zM624 0v520h176v-520h-176z" />
    <glyph glyph-name="fl.sc" horiz-adv-x="1076" 
d="M72 0v520h440v-124h-264v-112h216v-120h-216v-164h-176zM624 0v520h176v-380h248v-140h-424z" />
    <glyph glyph-name="germandbls.sc" horiz-adv-x="1156" 
d="M36 152h172q0 -52 80 -52t80 48q0 20 -20 28t-64 13l-32 4q-36 5 -58.5 9t-54 15.5t-50 27.5t-32 44.5t-13.5 66.5q0 78 63.5 127t184.5 49q115 0 175.5 -44t60.5 -116h-168q0 24 -19.5 36t-48.5 12q-72 0 -72 -44q0 -19 21 -28t63 -14l32 -4q36 -5 59 -9t55 -15.5
t51 -27.5t33 -44.5t14 -65.5q0 -84 -66 -132t-194 -48q-124 0 -188 43t-64 121zM608 152h172q0 -52 80 -52t80 48q0 20 -20 28t-64 13l-32 4q-36 5 -58.5 9t-54 15.5t-50 27.5t-32 44.5t-13.5 66.5q0 78 63.5 127t184.5 49q115 0 175.5 -44t60.5 -116h-168q0 24 -19.5 36
t-48.5 12q-72 0 -72 -44q0 -19 21 -28t63 -14l32 -4q36 -5 59 -9t55 -15.5t51 -27.5t33 -44.5t14 -65.5q0 -84 -66 -132t-194 -48q-124 0 -188 43t-64 121z" />
    <glyph glyph-name="t_f" horiz-adv-x="700" 
d="M412 0v364h-152v-156q0 -41 13.5 -56.5t54.5 -15.5h16v-136h-57q-121 0 -162 40.5t-41 155.5v168h-92v124h92v148h176v-148h152v32q0 114 46.5 163t169.5 49h80v-128h-44q-43 0 -59.5 -15.5t-16.5 -56.5v-44h104v-124h-104v-364h-176z" />
    <glyph glyph-name="t_t" horiz-adv-x="728" 
d="M416 196v168h-152v-156q0 -41 13.5 -56.5t54.5 -15.5h24v-136h-65q-121 0 -162 40.5t-41 155.5v168h-92v124h92v148h176v-148h152v148h176v-148h112v-124h-112v-156q0 -41 13.5 -56.5t54.5 -15.5h44v-136h-85q-121 0 -162 40.5t-41 155.5z" />
    <glyph glyph-name="slashedzero" 
d="M284 -12q-135 0 -199.5 97.5t-64.5 258.5t64.5 258.5t199.5 97.5t199.5 -97.5t64.5 -258.5t-64.5 -258.5t-199.5 -97.5zM284 124q43 0 63.5 52.5t20.5 167.5q0 49 -5 94l-132 -285q19 -29 53 -29zM200 344q0 -59 4 -94l132 284q-20 30 -52 30q-43 0 -63.5 -52.5
t-20.5 -167.5z" />
    <glyph glyph-name="zero.PPF" horiz-adv-x="640" 
d="M320 -12q-145 0 -214.5 99.5t-69.5 256.5t69.5 256.5t214.5 99.5t214.5 -99.5t69.5 -256.5t-69.5 -256.5t-214.5 -99.5zM320 124q104 0 104 220t-104 220t-104 -220t104 -220z" />
    <glyph glyph-name="one.PPF" horiz-adv-x="432" 
d="M76 404l-68 120l244 164h104v-688h-176v473z" />
    <glyph glyph-name="two.PPF" horiz-adv-x="576" 
d="M28 0q3 129 39.5 205t124.5 127l84 48q46 26 69 50.5t23 57.5q0 76 -78 76q-86 0 -86 -92h-176q3 121 75.5 174.5t188.5 53.5q117 0 186.5 -54.5t69.5 -149.5q0 -76 -35 -126.5t-117 -97.5l-84 -48q-42 -24 -57.5 -41.5t-18.5 -46.5h308v-136h-516z" />
    <glyph glyph-name="three.PPF" horiz-adv-x="596" 
d="M20 208h176q0 -43 25 -69.5t71 -26.5q44 0 70 25.5t26 62.5q0 39 -24.5 63.5t-71.5 24.5h-48v132h48q38 0 61 22.5t23 56.5t-22.5 55.5t-61.5 21.5q-41 0 -62.5 -22t-21.5 -62h-164q0 102 67.5 155t180.5 53t182.5 -50t69.5 -138q0 -52 -29 -94.5t-79 -57.5v-4
q60 -12 96 -56.5t36 -107.5q0 -97 -76 -150.5t-200 -53.5q-125 0 -198.5 56t-73.5 164z" />
    <glyph glyph-name="four.PPF" horiz-adv-x="608" 
d="M12 124v104l332 460h152v-428h100v-136h-100v-124h-176v124h-308zM180 260h140v192z" />
    <glyph glyph-name="five.PPF" horiz-adv-x="592" 
d="M28 184h171q6 -25 29.5 -46.5t61.5 -21.5q42 0 68 27t26 71q0 43 -26.5 70.5t-67.5 27.5q-59 0 -86 -52l-152 16l28 412h440v-136h-288l-10 -144h4q36 32 106 32q58 0 107.5 -20.5t85 -72t35.5 -127.5q0 -110 -74.5 -171t-187.5 -61q-128 0 -194.5 52t-75.5 144z" />
    <glyph glyph-name="six.PPF" horiz-adv-x="620" 
d="M36 328q0 191 80 281.5t212 90.5q113 0 176 -52t72 -140h-168q-5 28 -25.5 46t-54.5 18q-47 0 -76 -37.5t-36 -144.5q18 22 58.5 36t89.5 14q41 0 80 -12t73 -37t54.5 -69t20.5 -102q0 -108 -77 -170t-187 -62q-292 0 -292 340zM322 312q-42 0 -68 -27t-26 -71t26 -71
t68 -27t68 27t26 71t-26 71t-68 27z" />
    <glyph glyph-name="seven.PPF" horiz-adv-x="524" 
d="M68 0l252 540h-304v148h492v-96l-260 -592h-180z" />
    <glyph glyph-name="eight.PPF" horiz-adv-x="600" 
d="M24 188q0 65 38.5 112t93.5 56v4q-49 12 -78.5 52t-29.5 96q0 90 70.5 141t181.5 51t181.5 -51t70.5 -141q0 -53 -30 -94.5t-78 -53.5v-4q55 -9 93.5 -56t38.5 -112q0 -97 -74.5 -148.5t-201.5 -51.5t-201.5 51.5t-74.5 148.5zM204 200q0 -38 26 -63t70 -25t70 25t26 63
t-26 63t-70 25t-70 -25t-26 -63zM300 420q37 0 60.5 22t23.5 56t-23.5 56t-60.5 22t-60.5 -22t-23.5 -56t23.5 -56t60.5 -22z" />
    <glyph glyph-name="nine.PPF" horiz-adv-x="620" 
d="M584 360q0 -191 -80 -281.5t-212 -90.5q-113 0 -176 52t-72 140h168q5 -28 25.5 -46t54.5 -18q47 0 76 37.5t35 143.5q-18 -22 -58 -35.5t-89 -13.5q-41 0 -80 12t-73 37t-54.5 69t-20.5 102q0 108 77 170t187 62q292 0 292 -340zM298 376q42 0 68 27t26 71t-26 71
t-68 27t-68 -27t-26 -71t26 -71t68 -27z" />
    <glyph glyph-name="slashedzero.PPF" horiz-adv-x="640" 
d="M320 -12q-145 0 -214.5 99.5t-69.5 256.5t69.5 256.5t214.5 99.5t214.5 -99.5t69.5 -256.5t-69.5 -256.5t-214.5 -99.5zM320 124q104 0 104 220q0 74 -12 122l-148 -320q22 -22 56 -22zM216 344q0 -72 11 -122l149 320q-22 22 -56 22q-104 0 -104 -220z" />
    <glyph glyph-name="zero.sc" horiz-adv-x="504" 
d="M252 -12q-120 0 -176 74.5t-56 197.5t56 197.5t176 74.5t176 -74.5t56 -197.5t-56 -197.5t-176 -74.5zM252 112q29 0 42.5 34t13.5 114t-13 114t-43 34q-29 0 -42.5 -34t-13.5 -114q0 -81 13 -114.5t43 -33.5z" />
    <glyph glyph-name="one.sc" horiz-adv-x="504" 
d="M108 276l-64 112l212 132h100v-392h112v-128h-408v128h124v191z" />
    <glyph glyph-name="two.sc" horiz-adv-x="504" 
d="M32 0q3 117 36 176.5t104 91.5l72 32q33 15 46.5 29.5t13.5 34.5t-12.5 32t-35.5 12q-56 0 -56 -64h-164q3 95 65.5 141.5t158.5 46.5q95 0 153.5 -43.5t58.5 -116.5q0 -58 -24.5 -98t-91.5 -70l-72 -32q-7 -3 -20 -8.5t-18 -8t-11.5 -7t-8.5 -9t-2 -11.5h240v-128h-432z
" />
    <glyph glyph-name="three.sc" horiz-adv-x="504" 
d="M24 164h160q0 -72 60 -72q27 0 43.5 17t16.5 47q0 64 -64 64h-32v98h36q25 0 38.5 16t13.5 42q0 24 -13 39t-39 15t-39 -16t-13 -42h-152q1 77 57 118.5t147 41.5q212 0 212 -148q0 -83 -76 -112v-4q92 -31 92 -128q0 -75 -63.5 -113.5t-168.5 -38.5q-216 0 -216 176z
" />
    <glyph glyph-name="four.sc" horiz-adv-x="504" 
d="M24 80v96l252 344h148v-320h60v-120h-60v-80h-168v80h-232zM167 200h89v125z" />
    <glyph glyph-name="five.sc" horiz-adv-x="504" 
d="M32 144h164q9 -48 56 -48q56 0 56 68t-56 68q-19 0 -34 -11t-19 -29l-151 16l20 312h368v-128h-236l-7 -88h3q35 28 104 28q28 0 54 -7t53.5 -23.5t44 -51t16.5 -82.5q0 -89 -59 -134.5t-153 -45.5q-108 0 -159 38.5t-65 117.5z" />
    <glyph glyph-name="six.sc" horiz-adv-x="504" 
d="M264 424q-29 0 -44 -26.5t-19 -102.5q32 37 107 37q27 0 53.5 -7t54 -24t44 -51t16.5 -82q0 -83 -62.5 -131.5t-149.5 -48.5q-111 0 -171.5 58.5t-60.5 201.5q0 284 232 284q92 0 142 -41.5t58 -110.5h-152q-8 44 -48 44zM260 232q-56 0 -56 -68t56 -68t56 68t-56 68z
" />
    <glyph glyph-name="seven.sc" horiz-adv-x="504" 
d="M88 0l196 380h-244v140h432v-88l-208 -432h-176z" />
    <glyph glyph-name="eight.sc" horiz-adv-x="504" 
d="M40 384q0 74 59 111t153 37t153 -37t59 -111q0 -83 -76 -112v-4q92 -31 92 -128q0 -75 -62 -113.5t-166 -38.5t-166 38.5t-62 113.5q0 97 92 128v4q-76 29 -76 112zM192 156q0 -31 17 -47.5t43 -16.5t43 16.5t17 47.5t-17 47.5t-43 16.5t-43 -16.5t-17 -47.5zM200 376
q0 -26 13.5 -42t38.5 -16t38.5 16t13.5 42t-13.5 42t-38.5 16t-38.5 -16t-13.5 -42z" />
    <glyph glyph-name="nine.sc" horiz-adv-x="504" 
d="M236 96q28 0 44 27t19 102q-14 -16 -44 -26.5t-63 -10.5q-27 0 -53.5 7t-54 24t-44 51t-16.5 82q0 83 62.5 131.5t149.5 48.5q111 0 171.5 -58.5t60.5 -201.5q0 -284 -232 -284q-92 0 -142 41.5t-58 110.5h152q8 -44 48 -44zM240 288q56 0 56 68t-56 68t-56 -68t56 -68z
" />
    <glyph glyph-name="slashedzero.sc" horiz-adv-x="504" 
d="M252 -12q-120 0 -176 74.5t-56 197.5t56 197.5t176 74.5t176 -74.5t56 -197.5t-56 -197.5t-176 -74.5zM196 260q0 -33 1 -47l87 179q-12 16 -32 16q-29 0 -42.5 -34t-13.5 -114zM252 112q29 0 42.5 34t13.5 114q0 33 -1 47l-88 -180q12 -15 33 -15z" />
    <glyph glyph-name="zero.scppf" 
d="M284 -12q-88 0 -145.5 39.5t-80 98t-22.5 134.5t22.5 134.5t80 98t145.5 39.5t145.5 -39.5t80 -98t22.5 -134.5t-22.5 -134.5t-80 -98t-145.5 -39.5zM284 112q72 0 72 148t-72 148t-72 -148t72 -148z" />
    <glyph glyph-name="one.scppf" horiz-adv-x="396" 
d="M76 276l-64 112l212 132h100v-520h-172v319z" />
    <glyph glyph-name="two.scppf" horiz-adv-x="536" 
d="M32 0q3 114 40.5 174.5t111.5 93.5l72 32q37 17 54.5 31t17.5 33q0 20 -15.5 32t-44.5 12q-68 0 -68 -64h-164q3 95 68.5 141.5t167.5 46.5q101 0 162.5 -43.5t61.5 -116.5q0 -111 -128 -168l-72 -32q-8 -4 -20.5 -9t-18.5 -7.5t-13 -6.5t-9.5 -9t-2.5 -12h256v-128h-456
z" />
    <glyph glyph-name="three.scppf" horiz-adv-x="524" 
d="M24 164h160q0 -72 72 -72q33 0 52.5 17t19.5 47q0 64 -76 64h-32v98h36q31 0 47.5 16t16.5 42q0 24 -16 39t-48 15q-30 0 -47 -16.5t-17 -41.5h-152q1 77 60 118.5t156 41.5q224 0 224 -148q0 -83 -76 -112v-4q92 -31 92 -128q0 -75 -66.5 -113.5t-177.5 -38.5
q-228 0 -228 176z" />
    <glyph glyph-name="four.scppf" horiz-adv-x="532" 
d="M20 80v96l272 344h148v-320h68v-120h-68v-80h-168v80h-252zM166 200h106v136z" />
    <glyph glyph-name="five.scppf" horiz-adv-x="524" 
d="M28 144h166q14 -48 70 -48q31 0 51.5 17t20.5 51t-20.5 51t-51.5 17q-49 0 -69 -40l-151 16l20 312h400v-128h-268l-7 -88h3q35 28 120 28q31 0 60 -7t58.5 -23.5t47.5 -51t18 -82.5q0 -89 -64 -134.5t-164 -45.5q-114 0 -170 38.5t-70 117.5z" />
    <glyph glyph-name="six.scppf" horiz-adv-x="540" 
d="M284 424q-37 0 -56 -26.5t-23 -102.5q16 16 50 26.5t73 10.5q32 0 61.5 -7t58.5 -24t46.5 -51t17.5 -82q0 -84 -66 -132t-162 -48q-120 0 -184 58t-64 202q0 284 248 284q101 0 154.5 -41.5t61.5 -110.5h-152q-8 44 -64 44zM280 232q-31 0 -51.5 -17t-20.5 -51t20.5 -51
t51.5 -17t51.5 17t20.5 51t-20 51t-52 17z" />
    <glyph glyph-name="seven.scppf" horiz-adv-x="464" 
d="M64 0l196 380h-244v140h432v-88l-208 -432h-176z" />
    <glyph glyph-name="eight.scppf" horiz-adv-x="536" 
d="M28 140q0 97 92 128v4q-76 29 -76 112q0 74 62 111t162 37t162 -37t62 -111q0 -83 -76 -112v-4q92 -31 92 -128q0 -75 -65 -113.5t-175 -38.5t-175 38.5t-65 113.5zM196 156q0 -31 20 -47.5t52 -16.5t52 16.5t20 47.5t-20 47.5t-52 16.5t-52 -16.5t-20 -47.5zM204 376
q0 -26 16.5 -42t47.5 -16t47.5 16t16.5 42t-16.5 42t-47.5 16t-47.5 -16t-16.5 -42z" />
    <glyph glyph-name="nine.scppf" horiz-adv-x="540" 
d="M256 96q37 0 55.5 26t22.5 102q-33 -36 -122 -36q-32 0 -61.5 7t-58.5 24t-46.5 51t-17.5 82q0 84 66 132t162 48q120 0 184 -58t64 -202q0 -284 -248 -284q-101 0 -154.5 41.5t-61.5 110.5h152q8 -44 64 -44zM260 288q31 0 51.5 17t20.5 51t-20.5 51t-51.5 17t-51.5 -17
t-20.5 -51t20 -51t52 -17z" />
    <glyph glyph-name="slashedzero.scppf" 
d="M284 -12q-88 0 -145.5 39.5t-80 98t-22.5 134.5t22.5 134.5t80 98t145.5 39.5t145.5 -39.5t80 -98t22.5 -134.5t-22.5 -134.5t-80 -98t-145.5 -39.5zM212 260q0 -38 5 -71l101 208q-14 11 -34 11q-72 0 -72 -148zM284 112q72 0 72 148q0 41 -6 71l-101 -208
q14 -11 35 -11z" />
    <glyph glyph-name="zero.TOSF" 
d="M20 244q0 113 69 184.5t195 71.5t195 -71.5t69 -184.5t-69 -184.5t-195 -71.5t-195 71.5t-69 184.5zM192 244q0 -63 25 -95.5t67 -32.5q41 0 66.5 33.5t25.5 94.5q0 63 -25 95.5t-67 32.5t-67 -32.5t-25 -95.5z" />
    <glyph glyph-name="one.TOSF" 
d="M120 220l-64 112l232 156h100v-364h148v-124h-476v124h160v162z" />
    <glyph glyph-name="two.TOSF" 
d="M32 0q0 117 49 177.5t135 86.5l40 12q6 2 18.5 5.5t17.5 5t15 5t14.5 5.5t11.5 5.5t10 7t6.5 8.5t5 10.5t1.5 11.5q0 20 -16.5 32t-47.5 12q-38 0 -57 -18.5t-19 -49.5h-172q3 93 73 138.5t175 45.5q106 0 171 -42.5t65 -117.5q0 -32 -11 -57.5t-24 -40.5t-39.5 -28.5
t-42 -18.5t-47.5 -15l-40 -12q-83 -25 -88 -48h284v-120h-488z" />
    <glyph glyph-name="three.TOSF" 
d="M20 8h176q0 -48 22.5 -72t57.5 -24q37 0 58.5 22t21.5 66q0 40 -22 64t-58 24h-56v132h56q32 0 54 21.5t22 58.5q0 35 -21.5 55.5t-54.5 20.5q-34 0 -55 -21.5t-21 -62.5h-160q0 100 67.5 154t168.5 54q106 0 175 -50.5t69 -137.5q0 -50 -27.5 -92t-72.5 -60v-4
q55 -18 85.5 -62t30.5 -106q0 -96 -71 -148t-189 -52q-256 0 -256 220z" />
    <glyph glyph-name="four.TOSF" 
d="M16 -52v104l312 452h152v-420h72v-136h-72v-148h-176v148h-288zM182 84h122v176z" />
    <glyph glyph-name="five.TOSF" 
d="M40 -16h172q15 -68 74 -68q34 0 54 26.5t20 73.5q0 44 -20.5 70t-53.5 26q-53 0 -70 -56l-160 24l24 408h420v-136h-268l-10 -136h6q34 24 96 24q98 0 155 -57.5t57 -162.5q0 -115 -68.5 -173.5t-179.5 -58.5q-116 0 -177.5 52t-70.5 144z" />
    <glyph glyph-name="six.TOSF" 
d="M28 328q0 194 77 283t199 89q104 0 159.5 -49.5t64.5 -134.5h-168q-4 17 -9 27.5t-18 19.5t-33 9q-78 0 -90 -179q36 47 122 47q38 0 74 -12t67.5 -37t51 -69t19.5 -102q0 -108 -72 -170t-176 -62q-123 0 -195.5 80.5t-72.5 259.5zM294 312q-34 0 -54 -26t-20 -72t20 -72
t54 -26t54 26.5t20 73.5q0 45 -20 70.5t-54 25.5z" />
    <glyph glyph-name="seven.TOSF" 
d="M100 -200l252 540h-316v148h504v-96l-260 -592h-180z" />
    <glyph glyph-name="eight.TOSF" 
d="M24 188q0 62 30.5 106t85.5 62v4q-45 15 -72.5 56t-27.5 92q0 90 68 141t176 51t176 -51t68 -141q0 -51 -27.5 -92t-72.5 -56v-4q55 -18 85.5 -62t30.5 -106q0 -96 -71 -148t-189 -52t-189 52t-71 148zM204 200q0 -43 22.5 -65.5t57.5 -22.5t57.5 22.5t22.5 65.5
q0 40 -22 64t-58 24t-58 -24t-22 -64zM284 420q33 0 54.5 21t21.5 59q0 35 -21.5 55.5t-54.5 20.5t-54.5 -20.5t-21.5 -55.5q0 -38 21.5 -59t54.5 -21z" />
    <glyph glyph-name="nine.TOSF" 
d="M536 160q0 -372 -272 -372q-104 0 -161.5 49.5t-66.5 134.5h168q2 -56 64 -56q41 0 61.5 40t24.5 139q-36 -47 -118 -47q-86 0 -151 54.5t-65 165.5q0 108 72 170t176 62q123 0 195.5 -80.5t72.5 -259.5zM270 176q34 0 54 26t20 72t-20 72t-54 26t-54 -26.5t-20 -73.5
q0 -45 20 -70.5t54 -25.5z" />
    <glyph glyph-name="slashedzero.TOSF" 
d="M20 244q0 113 69 184.5t195 71.5t195 -71.5t69 -184.5t-69 -184.5t-195 -71.5t-195 71.5t-69 184.5zM192 244q0 -36 7 -60l130 176q-19 12 -45 12q-42 0 -67 -32.5t-25 -95.5zM376 244q0 33 -8 60l-130 -176q20 -12 46 -12q41 0 66.5 33.5t25.5 94.5z" />
    <glyph glyph-name="zero.oldstyle" horiz-adv-x="640" 
d="M32 244q0 110 75.5 183t212.5 73t212.5 -73t75.5 -183t-75.5 -183t-212.5 -73t-212.5 73t-75.5 183zM204 244q0 -62 33.5 -95t82.5 -33t82.5 33t33.5 95t-33.5 95t-82.5 33t-82.5 -33t-33.5 -95z" />
    <glyph glyph-name="one.oldstyle" horiz-adv-x="436" 
d="M80 204l-68 120l244 164h104v-488h-176v273z" />
    <glyph glyph-name="two.oldstyle" horiz-adv-x="560" 
d="M28 0q0 117 49 177.5t135 86.5l40 12q6 2 18.5 5.5t17.5 5t15 5t14.5 5.5t11.5 5.5t10 7t6.5 8.5t5 10.5t1.5 11.5q0 44 -68 44q-35 0 -53.5 -19t-18.5 -49h-172q3 93 73 138.5t175 45.5q106 0 171 -42.5t65 -117.5q0 -32 -11 -57.5t-24 -40.5t-39.5 -28.5t-42 -18.5
t-47.5 -15l-40 -12q-83 -25 -88 -48h284v-120h-488z" />
    <glyph glyph-name="three.oldstyle" horiz-adv-x="596" 
d="M20 8h176q0 -43 25 -69.5t71 -26.5q44 0 70 25.5t26 62.5q0 39 -24.5 63.5t-71.5 24.5h-48v132h48q38 0 61 22.5t23 56.5t-22.5 55.5t-61.5 21.5q-41 0 -62.5 -22t-21.5 -62h-164q0 102 67.5 155t180.5 53t182.5 -50t69.5 -138q0 -52 -29 -94.5t-79 -57.5v-4
q60 -12 96 -56.5t36 -107.5q0 -97 -76 -150.5t-200 -53.5q-125 0 -198.5 56t-73.5 164z" />
    <glyph glyph-name="four.oldstyle" horiz-adv-x="604" 
d="M12 -52v104l332 452h152v-420h100v-136h-100v-148h-176v148h-308zM181 84h139v186z" />
    <glyph glyph-name="five.oldstyle" horiz-adv-x="576" 
d="M28 -16h171q6 -25 29.5 -46.5t61.5 -21.5q42 0 68 27t26 71q0 43 -26.5 70.5t-67.5 27.5q-59 0 -86 -52l-152 16l28 412h440v-136h-288l-10 -144h4q36 32 106 32q58 0 107.5 -20.5t85 -72t35.5 -127.5q0 -110 -74.5 -171t-187.5 -61q-128 0 -194.5 52t-75.5 144z" />
    <glyph glyph-name="six.oldstyle" horiz-adv-x="620" 
d="M36 328q0 191 80 281.5t212 90.5q113 0 176 -52t72 -140h-168q-5 28 -25.5 46t-54.5 18q-47 0 -76 -37.5t-36 -144.5q18 22 58.5 36t89.5 14q41 0 80 -12t73 -37t54.5 -69t20.5 -102q0 -108 -77 -170t-187 -62q-292 0 -292 340zM322 312q-42 0 -68 -27t-26 -71t26 -71
t68 -27t68 27t26 71t-26 71t-68 27z" />
    <glyph glyph-name="seven.oldstyle" horiz-adv-x="524" 
d="M68 -200l252 540h-304v148h492v-96l-260 -592h-180z" />
    <glyph glyph-name="eight.oldstyle" horiz-adv-x="600" 
d="M24 188q0 65 38.5 112t93.5 56v4q-49 12 -78.5 52t-29.5 96q0 90 70.5 141t181.5 51t181.5 -51t70.5 -141q0 -53 -30 -94.5t-78 -53.5v-4q55 -9 93.5 -56t38.5 -112q0 -97 -74.5 -148.5t-201.5 -51.5t-201.5 51.5t-74.5 148.5zM204 200q0 -38 26 -63t70 -25t70 25t26 63
t-26 63t-70 25t-70 -25t-26 -63zM300 420q37 0 60.5 22t23.5 56t-23.5 56t-60.5 22t-60.5 -22t-23.5 -56t23.5 -56t60.5 -22z" />
    <glyph glyph-name="nine.oldstyle" horiz-adv-x="620" 
d="M588 160q0 -191 -80 -281.5t-212 -90.5q-113 0 -176 52t-72 140h168q5 -28 25.5 -46t54.5 -18q47 0 76 37.5t35 143.5q-18 -22 -58 -35.5t-89 -13.5q-41 0 -80 12t-73 37t-54.5 69t-20.5 102q0 108 77 170t187 62q292 0 292 -340zM302 176q42 0 68 27t26 71t-26 71
t-68 27t-68 -27t-26 -71t26 -71t68 -27z" />
    <glyph glyph-name="slashedzero.oldstyle" horiz-adv-x="640" 
d="M32 244q0 110 75.5 183t212.5 73t212.5 -73t75.5 -183t-75.5 -183t-212.5 -73t-212.5 73t-75.5 183zM204 244q0 -45 19 -77l144 195q-23 10 -47 10q-49 0 -82.5 -33t-33.5 -95zM436 244q0 44 -20 76l-144 -195q22 -9 48 -9q49 0 82.5 33t33.5 95z" />
    <glyph glyph-name="percent.sc" horiz-adv-x="644" 
d="M145 254q-64 0 -98.5 37.5t-34.5 98.5t34.5 98.5t98.5 37.5t98.5 -37.5t34.5 -98.5t-34.5 -98.5t-98.5 -37.5zM145 327q39 0 39 63q0 64 -39 64t-39 -64q0 -63 39 -63zM136 -9l302 538h73l-302 -538h-73zM499 -6q-64 0 -98.5 37.5t-34.5 98.5t34.5 98.5t98.5 37.5
t98.5 -37.5t34.5 -98.5t-34.5 -98.5t-98.5 -37.5zM499 67q39 0 39 63q0 64 -39 64t-39 -64q0 -63 39 -63z" />
    <glyph glyph-name="perthousand.sc" horiz-adv-x="952" 
d="M145 254q-64 0 -98.5 37.5t-34.5 98.5t34.5 98.5t98.5 37.5t98.5 -37.5t34.5 -98.5t-34.5 -98.5t-98.5 -37.5zM145 327q39 0 39 63q0 64 -39 64t-39 -64q0 -63 39 -63zM136 -9l302 538h73l-302 -538h-73zM499 -6q-64 0 -98.5 37.5t-34.5 98.5t34.5 98.5t98.5 37.5
t98.5 -37.5t34.5 -98.5t-34.5 -98.5t-98.5 -37.5zM499 67q39 0 39 63q0 64 -39 64t-39 -64q0 -63 39 -63zM807 -6q-64 0 -98.5 37.5t-34.5 98.5t34.5 98.5t98.5 37.5t98.5 -37.5t34.5 -98.5t-34.5 -98.5t-98.5 -37.5zM807 67q39 0 39 63q0 64 -39 64t-39 -64q0 -63 39 -63z
" />
    <glyph glyph-name="a.inferior" horiz-adv-x="424" 
d="M32 -64q0 48 27.5 74.5t88.5 33.5l64 8q27 4 35.5 10.5t8.5 21.5q0 14 -11.5 23t-32.5 9q-48 0 -52 -44h-116q4 65 51 96.5t117 31.5q87 0 129.5 -34t42.5 -106v-212h-124v40h-4q-37 -48 -108 -48q-57 0 -86.5 25.5t-29.5 70.5zM256 -18v25q-7 -12 -28 -15l-32 -4
q-36 -4 -36 -32q0 -32 40 -32q56 0 56 58z" />
    <glyph glyph-name="b.inferior" horiz-adv-x="456" 
d="M40 -152v516h128v-108q0 -54 -4 -112h4q30 56 112 56q61 0 104.5 -45t43.5 -131q0 -91 -45.5 -137.5t-110.5 -46.5q-78 0 -104 56h-4v-48h-124zM168 20q0 -38 16.5 -61t47.5 -23q64 0 64 88q0 35 -16.5 57.5t-47.5 22.5q-29 0 -45.5 -21t-18.5 -56v-7z" />
    <glyph glyph-name="c.inferior" horiz-adv-x="428" 
d="M28 20q0 84 51.5 132t144.5 48q83 0 129 -39.5t51 -96.5h-124q-9 36 -54 36q-32 0 -49 -22.5t-17 -57.5q0 -37 17 -58.5t49 -21.5q45 0 54 36h124q-5 -57 -51 -96.5t-129 -39.5q-93 0 -144.5 48t-51.5 132z" />
    <glyph glyph-name="d.inferior" horiz-adv-x="456" 
d="M28 16q0 91 45.5 137.5t110.5 46.5q78 0 104 -56h3q-3 59 -3 128v92h128v-516h-124v48h-4q-26 -56 -112 -56q-61 0 -104.5 45t-43.5 131zM160 16q0 -35 16.5 -57.5t47.5 -22.5t47.5 23t16.5 61t-16.5 61t-47.5 23q-64 0 -64 -88z" />
    <glyph glyph-name="e.inferior" horiz-adv-x="440" 
d="M28 20q0 81 52.5 130.5t139.5 49.5q90 0 141 -48t51 -140v-24h-254q12 -60 70 -60q42 0 56 24h124q-10 -50 -58.5 -81t-129.5 -31q-88 0 -140 49.5t-52 130.5zM220 112q-50 0 -61 -52h120q-10 52 -59 52z" />
    <glyph glyph-name="f.inferior" horiz-adv-x="292" 
d="M76 -152v240h-64v104h64v16q0 85 32.5 120.5t115.5 35.5h68v-108h-42q-23 0 -32.5 -8.5t-9.5 -35.5v-20h72v-104h-72v-240h-132z" />
    <glyph glyph-name="g.inferior" horiz-adv-x="456" 
d="M44 -192h120q4 -18 16.5 -25t39.5 -7q44 0 58 25.5t14 86.5v8h-4q-28 -56 -112 -56q-61 0 -104.5 45t-43.5 131q0 91 45.5 137.5t110.5 46.5q78 0 104 -56h4v48h124v-300q0 -115 -48 -159.5t-152 -44.5q-81 0 -122 28t-50 92zM160 16q0 -35 16.5 -57.5t47.5 -22.5
t47.5 23t16.5 61t-16.5 61t-47.5 23q-64 0 -64 -88z" />
    <glyph glyph-name="h.inferior" horiz-adv-x="444" 
d="M40 -152v516h128v-112q0 -54 -3 -108h3q28 56 108 56q56 0 94 -33.5t38 -102.5v-216h-128v188q0 64 -52 64q-27 0 -43.5 -17t-16.5 -51v-184h-128z" />
    <glyph glyph-name="i.inferior" horiz-adv-x="208" 
d="M36 248v116h136v-116h-136zM40 -152v344h128v-344h-128z" />
    <glyph glyph-name="j.inferior" horiz-adv-x="208" 
d="M36 248v116h136v-116h-136zM40 -140v332h128v-328q0 -95 -29 -133.5t-119 -38.5h-40v112h20q24 0 32 12t8 44z" />
    <glyph glyph-name="k.inferior" horiz-adv-x="424" 
d="M40 -152v516h132v-280l96 108h140l-128 -137l140 -207h-144l-80 116l-24 -26v-90h-132z" />
    <glyph glyph-name="l.inferior" horiz-adv-x="208" 
d="M40 -152v516h128v-516h-128z" />
    <glyph glyph-name="m.inferior" horiz-adv-x="668" 
d="M40 -152v344h124v-48h4q29 56 104 56q83 0 114 -66q36 66 118 66q55 0 91.5 -33t36.5 -103v-216h-128v188q0 64 -48 64q-56 0 -56 -66v-186h-128v188q0 64 -48 64q-56 0 -56 -67v-185h-128z" />
    <glyph glyph-name="n.inferior" horiz-adv-x="444" 
d="M40 -152v344h124v-48h4q28 56 108 56q56 0 94 -33.5t38 -102.5v-216h-128v188q0 64 -52 64q-60 0 -60 -66v-186h-128z" />
    <glyph glyph-name="o.inferior" horiz-adv-x="448" 
d="M28 20q0 83 52 131.5t144 48.5t144 -48.5t52 -131.5t-52 -131.5t-144 -48.5t-144 48.5t-52 131.5zM160 20q0 -84 64 -84t64 84t-64 84t-64 -84z" />
    <glyph glyph-name="p.inferior" horiz-adv-x="456" 
d="M168 -216v-92h-128v500h124v-48h4q26 56 112 56q61 0 104.5 -45t43.5 -131q0 -91 -45.5 -137.5t-110.5 -46.5q-78 0 -104 56h-4q4 -58 4 -112zM296 24q0 35 -16.5 57.5t-47.5 22.5q-29 0 -45.5 -21t-18.5 -56v-7q0 -38 16.5 -61t47.5 -23q64 0 64 88z" />
    <glyph glyph-name="q.inferior" horiz-adv-x="456" 
d="M288 -216q0 54 3 112h-3q-26 -56 -112 -56q-61 0 -104.5 45t-43.5 131q0 91 44 137.5t108 46.5q82 0 108 -56h4v48h124v-500h-128v92zM160 16q0 -35 16.5 -57.5t47.5 -22.5t47.5 23t16.5 61v7q-2 35 -18.5 56t-45.5 21q-64 0 -64 -88z" />
    <glyph glyph-name="r.inferior" horiz-adv-x="316" 
d="M40 -152v344h128v-64h4q28 72 88 72q29 0 48 -16l-16 -116q-19 12 -44 12q-38 0 -57 -33t-19 -83v-116h-132z" />
    <glyph glyph-name="s.inferior" horiz-adv-x="404" 
d="M24 -48h116q2 -15 18.5 -25.5t41.5 -10.5q52 0 52 28q0 11 -8.5 17t-15.5 7.5t-24 3.5l-36 4q-74 8 -107 32.5t-33 71.5q0 57 47 88.5t125 31.5q77 0 120 -30t48 -78h-116q-10 32 -52 32q-48 0 -48 -26q0 -12 10 -17t38 -9l36 -5q80 -11 112 -31.5t32 -75.5
q0 -61 -50 -90.5t-130 -29.5t-125.5 29.5t-50.5 82.5z" />
    <glyph glyph-name="t.inferior" horiz-adv-x="300" 
d="M72 -20v108h-64v104h64v104h128v-104h80v-104h-80v-84q0 -28 9.5 -38t38.5 -10h32v-108h-52q-92 0 -124 27t-32 105z" />
    <glyph glyph-name="u.inferior" horiz-adv-x="444" 
d="M36 -24v216h128v-188q0 -64 52 -64q60 0 60 71v181h128v-344h-124v48h-4q-28 -56 -108 -56q-56 0 -94 33.5t-38 102.5z" />
    <glyph glyph-name="v.inferior" horiz-adv-x="416" 
d="M128 -152l-124 344h140l66 -221l70 221h132l-120 -344h-164z" />
    <glyph glyph-name="w.inferior" horiz-adv-x="600" 
d="M104 -152l-100 344h128l54 -224l58 224h112l57 -224l55 224h128l-100 -344h-140l-56 209l-56 -209h-140z" />
    <glyph glyph-name="x.inferior" horiz-adv-x="392" 
d="M4 -152l128 168l-120 176h140l48 -80l56 80h132l-124 -168l124 -176h-140l-56 84l-56 -84h-132z" />
    <glyph glyph-name="y.inferior" horiz-adv-x="416" 
d="M120 -152l-116 344h140l65 -225l71 225h132l-124 -360q-24 -69 -63 -104.5t-105 -35.5h-48v108h20q32 0 50.5 9.5t28.5 38.5h-51z" />
    <glyph glyph-name="z.inferior" horiz-adv-x="368" 
d="M24 84v108h316v-80l-135 -156h139v-108h-320v80l135 156h-135z" />
    <glyph glyph-name="dollar.inferior" horiz-adv-x="384" 
d="M28 -52h116q1 -38 52 -38q40 0 40 30q0 15 -14 21t-54 13l-24 4q-24 4 -41 9.5t-34.5 17t-27 31.5t-9.5 48q0 41 29.5 72t86.5 40v56h88v-56q51 -9 80 -37.5t32 -66.5h-116q0 15 -11 24.5t-29 9.5q-40 0 -40 -30q0 -14 13.5 -19.5t42.5 -10.5l24 -4q26 -4 44 -9.5
t38.5 -16.5t31 -31.5t10.5 -48.5q0 -99 -120 -114v-62h-88v63q-115 13 -120 105z" />
    <glyph glyph-name="cent.inferior" horiz-adv-x="384" 
d="M28 16q0 52 31.5 84t88.5 40v60h88v-59q55 -9 85.5 -39t34.5 -66h-125q-2 14 -12 23t-25 9q-42 0 -42 -52t42 -52q15 0 25 9t12 23h125q-4 -37 -34.5 -67t-85.5 -38v-51h-88v51q-57 9 -88.5 40.5t-31.5 84.5z" />
    <glyph glyph-name="euro.inferior" horiz-adv-x="384" 
d="M8 -20l8 28h28v24h-28l8 28h23q9 64 50.5 102t118.5 38q126 0 148 -120h-116q-6 28 -34 28q-35 0 -40 -48h74l-8 -28h-68v-24h64l-8 -28h-54q3 -26 12.5 -37t27.5 -11q28 0 34 28h116q-22 -120 -148 -120q-77 0 -118.5 37.5t-50.5 102.5h-39z" />
    <glyph glyph-name="plus.inferior" horiz-adv-x="384" 
d="M44 -24v92h100v100h96v-100h100v-92h-100v-100h-96v100h-100z" />
    <glyph glyph-name="minus.inferior" horiz-adv-x="384" 
d="M44 -24v92h296v-92h-296z" />
    <glyph glyph-name="equal.inferior" horiz-adv-x="384" 
d="M44 44v92h296v-92h-296zM44 -96v92h296v-92h-296z" />
    <glyph glyph-name="comma.inferior" horiz-adv-x="224" 
d="M56 -152v116h112v-112l-36 -132h-56l28 128h-48z" />
    <glyph glyph-name="period.inferior" horiz-adv-x="224" 
d="M56 -152v116h112v-116h-112z" />
    <glyph glyph-name="hyphen.inferior" horiz-adv-x="300" 
d="M32 -24v92h236v-92h-236z" />
    <glyph glyph-name="parenleft.inferior" horiz-adv-x="264" 
d="M140 -224q-32 39 -56 105.5t-24 138.5t24 138.5t56 105.5h116q-30 -37 -55 -105t-25 -139t25 -139t55 -105h-116z" />
    <glyph glyph-name="parenright.inferior" horiz-adv-x="264" 
d="M8 -224q30 37 55 105t25 139t-25 139t-55 105h116q32 -39 56 -105.5t24 -138.5t-24 -138.5t-56 -105.5h-116z" />
    <glyph glyph-name="a.denominator" horiz-adv-x="424" 
d="M32 88q0 48 27.5 74.5t88.5 33.5l64 8q27 4 35.5 10.5t8.5 21.5q0 14 -11.5 23t-32.5 9q-48 0 -52 -44h-116q4 65 51 96.5t117 31.5q87 0 129.5 -34t42.5 -106v-212h-124v40h-4q-37 -48 -108 -48q-57 0 -86.5 25.5t-29.5 70.5zM256 134v25q-7 -12 -28 -15l-32 -4
q-36 -4 -36 -32q0 -32 40 -32q56 0 56 58z" />
    <glyph glyph-name="b.denominator" horiz-adv-x="456" 
d="M40 0v516h128v-108q0 -54 -4 -112h4q30 56 112 56q61 0 104.5 -45t43.5 -131q0 -91 -45.5 -137.5t-110.5 -46.5q-78 0 -104 56h-4v-48h-124zM168 172q0 -38 16.5 -61t47.5 -23q64 0 64 88q0 35 -16.5 57.5t-47.5 22.5q-29 0 -45.5 -21t-18.5 -56v-7z" />
    <glyph glyph-name="c.denominator" horiz-adv-x="428" 
d="M28 172q0 84 51.5 132t144.5 48q83 0 129 -39.5t51 -96.5h-124q-9 36 -54 36q-32 0 -49 -22.5t-17 -57.5q0 -37 17 -58.5t49 -21.5q45 0 54 36h124q-5 -57 -51 -96.5t-129 -39.5q-93 0 -144.5 48t-51.5 132z" />
    <glyph glyph-name="d.denominator" horiz-adv-x="456" 
d="M28 168q0 91 45.5 137.5t110.5 46.5q78 0 104 -56h3q-3 59 -3 128v92h128v-516h-124v48h-4q-26 -56 -112 -56q-61 0 -104.5 45t-43.5 131zM160 168q0 -35 16.5 -57.5t47.5 -22.5t47.5 23t16.5 61t-16.5 61t-47.5 23q-64 0 -64 -88z" />
    <glyph glyph-name="e.denominator" horiz-adv-x="440" 
d="M28 172q0 81 52.5 130.5t139.5 49.5q90 0 141 -48t51 -140v-24h-254q12 -60 70 -60q42 0 56 24h124q-10 -50 -58.5 -81t-129.5 -31q-88 0 -140 49.5t-52 130.5zM220 264q-50 0 -61 -52h120q-10 52 -59 52z" />
    <glyph glyph-name="f.denominator" horiz-adv-x="292" 
d="M76 0v240h-64v104h64v16q0 85 32.5 120.5t115.5 35.5h68v-108h-42q-23 0 -32.5 -8.5t-9.5 -35.5v-20h72v-104h-72v-240h-132z" />
    <glyph glyph-name="g.denominator" horiz-adv-x="456" 
d="M44 -40h120q4 -18 16.5 -25t39.5 -7q44 0 58 25.5t14 86.5v8h-4q-28 -56 -112 -56q-61 0 -104.5 45t-43.5 131q0 91 45.5 137.5t110.5 46.5q78 0 104 -56h4v48h124v-300q0 -115 -48 -159.5t-152 -44.5q-81 0 -122 28t-50 92zM160 168q0 -35 16.5 -57.5t47.5 -22.5
t47.5 23t16.5 61t-16.5 61t-47.5 23q-64 0 -64 -88z" />
    <glyph glyph-name="h.denominator" horiz-adv-x="444" 
d="M40 0v516h128v-112q0 -54 -3 -108h3q28 56 108 56q56 0 94 -33.5t38 -102.5v-216h-128v188q0 64 -52 64q-27 0 -43.5 -17t-16.5 -51v-184h-128z" />
    <glyph glyph-name="i.denominator" horiz-adv-x="208" 
d="M36 400v116h136v-116h-136zM40 0v344h128v-344h-128z" />
    <glyph glyph-name="j.denominator" horiz-adv-x="208" 
d="M36 400v116h136v-116h-136zM40 12v332h128v-328q0 -95 -29 -133.5t-119 -38.5h-40v112h20q24 0 32 12t8 44z" />
    <glyph glyph-name="k.denominator" horiz-adv-x="424" 
d="M40 0v516h132v-280l96 108h140l-128 -137l140 -207h-144l-80 116l-24 -26v-90h-132z" />
    <glyph glyph-name="l.denominator" horiz-adv-x="208" 
d="M40 0v516h128v-516h-128z" />
    <glyph glyph-name="m.denominator" horiz-adv-x="668" 
d="M40 0v344h124v-48h4q29 56 104 56q83 0 114 -66q36 66 118 66q55 0 91.5 -33t36.5 -103v-216h-128v188q0 64 -48 64q-56 0 -56 -66v-186h-128v188q0 64 -48 64q-56 0 -56 -67v-185h-128z" />
    <glyph glyph-name="n.denominator" horiz-adv-x="444" 
d="M40 0v344h124v-48h4q28 56 108 56q56 0 94 -33.5t38 -102.5v-216h-128v188q0 64 -52 64q-60 0 -60 -66v-186h-128z" />
    <glyph glyph-name="o.denominator" horiz-adv-x="448" 
d="M28 172q0 83 52 131.5t144 48.5t144 -48.5t52 -131.5t-52 -131.5t-144 -48.5t-144 48.5t-52 131.5zM160 172q0 -84 64 -84t64 84t-64 84t-64 -84z" />
    <glyph glyph-name="p.denominator" horiz-adv-x="456" 
d="M168 -64v-92h-128v500h124v-48h4q26 56 112 56q61 0 104.5 -45t43.5 -131q0 -91 -45.5 -137.5t-110.5 -46.5q-78 0 -104 56h-4q4 -58 4 -112zM296 176q0 35 -16.5 57.5t-47.5 22.5q-29 0 -45.5 -21t-18.5 -56v-7q0 -38 16.5 -61t47.5 -23q64 0 64 88z" />
    <glyph glyph-name="q.denominator" horiz-adv-x="456" 
d="M288 -64q0 54 3 112h-3q-26 -56 -112 -56q-61 0 -104.5 45t-43.5 131q0 91 44 137.5t108 46.5q82 0 108 -56h4v48h124v-500h-128v92zM160 168q0 -35 16.5 -57.5t47.5 -22.5t47.5 23t16.5 61v7q-2 35 -18.5 56t-45.5 21q-64 0 -64 -88z" />
    <glyph glyph-name="r.denominator" horiz-adv-x="316" 
d="M40 0v344h128v-64h4q28 72 88 72q29 0 48 -16l-16 -116q-19 12 -44 12q-38 0 -57 -33t-19 -83v-116h-132z" />
    <glyph glyph-name="s.denominator" horiz-adv-x="404" 
d="M24 104h116q2 -15 18.5 -25.5t41.5 -10.5q52 0 52 28q0 11 -8.5 17t-15.5 7.5t-24 3.5l-36 4q-74 8 -107 32.5t-33 71.5q0 57 47 88.5t125 31.5q77 0 120 -30t48 -78h-116q-10 32 -52 32q-48 0 -48 -26q0 -12 10 -17t38 -9l36 -5q80 -11 112 -31.5t32 -75.5
q0 -61 -50 -90.5t-130 -29.5t-125.5 29.5t-50.5 82.5z" />
    <glyph glyph-name="t.denominator" horiz-adv-x="300" 
d="M72 132v108h-64v104h64v104h128v-104h80v-104h-80v-84q0 -28 9.5 -38t38.5 -10h32v-108h-52q-92 0 -124 27t-32 105z" />
    <glyph glyph-name="u.denominator" horiz-adv-x="444" 
d="M36 128v216h128v-188q0 -64 52 -64q60 0 60 71v181h128v-344h-124v48h-4q-28 -56 -108 -56q-56 0 -94 33.5t-38 102.5z" />
    <glyph glyph-name="v.denominator" horiz-adv-x="416" 
d="M128 0l-124 344h140l66 -221l70 221h132l-120 -344h-164z" />
    <glyph glyph-name="w.denominator" horiz-adv-x="600" 
d="M104 0l-100 344h128l54 -224l58 224h112l57 -224l55 224h128l-100 -344h-140l-56 209l-56 -209h-140z" />
    <glyph glyph-name="x.denominator" horiz-adv-x="392" 
d="M4 0l128 168l-120 176h140l48 -80l56 80h132l-124 -168l124 -176h-140l-56 84l-56 -84h-132z" />
    <glyph glyph-name="y.denominator" horiz-adv-x="416" 
d="M120 0l-116 344h140l65 -225l71 225h132l-124 -360q-24 -69 -63 -104.5t-105 -35.5h-48v108h20q32 0 50.5 9.5t28.5 38.5h-51z" />
    <glyph glyph-name="z.denominator" horiz-adv-x="368" 
d="M24 236v108h316v-80l-135 -156h139v-108h-320v80l135 156h-135z" />
    <glyph glyph-name="zero.denominator" horiz-adv-x="384" 
d="M192 -8q-84 0 -130 49.5t-46 130.5t46 130.5t130 49.5t130 -49.5t46 -130.5t-46 -130.5t-130 -49.5zM192 88q52 0 52 84t-52 84t-52 -84t52 -84z" />
    <glyph glyph-name="one.denominator" horiz-adv-x="384" 
d="M84 168l-48 84l160 92h76v-252h92v-92h-316v92h92v107z" />
    <glyph glyph-name="two.denominator" horiz-adv-x="384" 
d="M24 0q0 79 33.5 121.5t96.5 67.5l10 4q43 17 57.5 25.5t14.5 21.5q0 28 -40 28q-44 0 -44 -44h-124q1 62 48.5 95t115.5 33q78 0 123 -30t45 -78q0 -43 -20.5 -67t-77.5 -46l-10 -4q-10 -4 -21 -8.5t-17 -6.5t-12.5 -5t-10 -4.5t-6.5 -3.5t-4 -3.5t-1 -3.5h176v-92h-332z
" />
    <glyph glyph-name="three.denominator" horiz-adv-x="384" 
d="M36 108h116q0 -44 40 -44q19 0 29.5 10.5t10.5 27.5q0 38 -48 38h-12v68h12q44 0 44 36t-36 36t-36 -40h-112q3 54 43 83t105 29q72 0 114 -27t42 -73q0 -60 -60 -76v-4q68 -14 68 -76q0 -104 -164 -104q-76 0 -114.5 28t-41.5 88z" />
    <glyph glyph-name="four.denominator" horiz-adv-x="384" 
d="M16 52v64l188 232h112v-208h44v-88h-44v-52h-128v52h-172zM128 140h60v77z" />
    <glyph glyph-name="five.denominator" horiz-adv-x="384" 
d="M28 92h125q4 -30 35 -30q36 0 36 42t-36 42q-27 0 -35 -26l-113 16l16 208h272v-88h-175l-4 -60h3q24 20 76 20q45 0 80.5 -25.5t35.5 -82.5q0 -54 -42.5 -85t-109.5 -31q-150 0 -164 100z" />
    <glyph glyph-name="six.denominator" horiz-adv-x="384" 
d="M348 248h-116q-3 28 -32 28q-19 0 -29.5 -16t-13.5 -67q21 23 79 23q47 0 83.5 -25.5t36.5 -82.5q0 -54 -42.5 -85t-109.5 -31q-176 0 -176 172q0 97 47.5 142.5t128.5 45.5q139 0 144 -104zM200 146q-36 0 -36 -42t36 -42t36 42t-36 42z" />
    <glyph glyph-name="seven.denominator" horiz-adv-x="384" 
d="M72 0l144 244h-184v100h328v-72l-160 -272h-128z" />
    <glyph glyph-name="eight.denominator" horiz-adv-x="384" 
d="M28 88q0 33 19 55.5t49 28.5v4q-60 16 -60 76q0 46 42 73t114 27t114 -27t42 -73q0 -60 -60 -76v-4q30 -6 49 -28.5t19 -55.5q0 -96 -164 -96t-164 96zM152 102q0 -17 10.5 -27.5t29.5 -10.5t29.5 10.5t10.5 27.5t-10.5 27.5t-29.5 10.5t-29.5 -10.5t-10.5 -27.5z
M156 244q0 -36 36 -36t36 36t-36 36t-36 -36z" />
    <glyph glyph-name="nine.denominator" horiz-adv-x="384" 
d="M32 96h116q3 -28 32 -28q37 0 42 81q-18 -25 -78 -25q-48 0 -84 23.5t-36 80.5q0 55 43 89.5t109 34.5q176 0 176 -172q0 -188 -176 -188q-139 0 -144 104zM180 198q36 0 36 42t-36 42t-36 -42t36 -42z" />
    <glyph glyph-name="dollar.denominator" horiz-adv-x="384" 
d="M28 100h116q1 -38 51 -38q41 0 41 30q0 15 -14 21t-54 13l-24 4q-24 4 -41 9.5t-34.5 17t-27 31.5t-9.5 48q0 41 29.5 72t86.5 40v56h88v-56q51 -9 80 -37.5t32 -66.5h-116q0 15 -11 24.5t-29 9.5q-40 0 -40 -30q0 -14 13.5 -19.5t42.5 -10.5l24 -4q26 -4 44 -9.5
t38.5 -16.5t31 -31.5t10.5 -48.5q0 -99 -120 -114v-62h-88v63q-115 13 -120 105z" />
    <glyph glyph-name="cent.denominator" horiz-adv-x="384" 
d="M28 168q0 52 31.5 84t88.5 40v60h88v-59q55 -9 85.5 -39t34.5 -66h-125q-2 14 -12 23t-25 9q-42 0 -42 -52t42 -52q15 0 25 9t12 23h125q-4 -37 -34.5 -67t-85.5 -38v-51h-88v51q-57 9 -88.5 40.5t-31.5 84.5z" />
    <glyph glyph-name="euro.denominator" horiz-adv-x="384" 
d="M8 132l8 28h28v24h-28l8 28h23q9 64 50.5 102t118.5 38q126 0 148 -120h-116q-6 28 -34 28q-35 0 -40 -48h74l-8 -28h-68v-24h64l-8 -28h-54q3 -26 12.5 -37t27.5 -11q28 0 34 28h116q-22 -120 -148 -120q-77 0 -118.5 37.5t-50.5 102.5h-39z" />
    <glyph glyph-name="plus.denominator" horiz-adv-x="384" 
d="M44 128v92h100v100h96v-100h100v-92h-100v-100h-96v100h-100z" />
    <glyph glyph-name="minus.denominator" horiz-adv-x="384" 
d="M44 128v92h296v-92h-296z" />
    <glyph glyph-name="equal.denominator" horiz-adv-x="384" 
d="M44 196v92h296v-92h-296zM44 56v92h296v-92h-296z" />
    <glyph glyph-name="comma.denominator" horiz-adv-x="224" 
d="M56 0v116h112v-112l-36 -132h-56l28 128h-48z" />
    <glyph glyph-name="period.denominator" horiz-adv-x="224" 
d="M56 0v116h112v-116h-112z" />
    <glyph glyph-name="hyphen.denominator" horiz-adv-x="300" 
d="M32 128v92h236v-92h-236z" />
    <glyph glyph-name="parenleft.denominator" horiz-adv-x="264" 
d="M140 -72q-32 39 -56 105.5t-24 138.5t24 138.5t56 105.5h116q-30 -37 -55 -105t-25 -139t25 -139t55 -105h-116z" />
    <glyph glyph-name="parenright.denominator" horiz-adv-x="264" 
d="M8 -72q30 37 55 105t25 139t-25 139t-55 105h116q32 -39 56 -105.5t24 -138.5t-24 -138.5t-56 -105.5h-116z" />
    <glyph glyph-name="a.numerator" horiz-adv-x="424" 
d="M32 432q0 48 27.5 74.5t88.5 33.5l64 8q27 4 35.5 10.5t8.5 21.5q0 14 -11.5 23t-32.5 9q-48 0 -52 -44h-116q4 65 51 96.5t117 31.5q87 0 129.5 -34t42.5 -106v-212h-124v40h-4q-37 -48 -108 -48q-57 0 -86.5 25.5t-29.5 70.5zM256 478v25q-7 -12 -28 -15l-32 -4
q-36 -4 -36 -32q0 -32 40 -32q56 0 56 58z" />
    <glyph glyph-name="b.numerator" horiz-adv-x="456" 
d="M40 344v516h128v-108q0 -54 -4 -112h4q30 56 112 56q61 0 104.5 -45t43.5 -131q0 -91 -45.5 -137.5t-110.5 -46.5q-78 0 -104 56h-4v-48h-124zM168 516q0 -38 16.5 -61t47.5 -23q64 0 64 88q0 35 -16.5 57.5t-47.5 22.5q-29 0 -45.5 -21t-18.5 -56v-7z" />
    <glyph glyph-name="c.numerator" horiz-adv-x="428" 
d="M28 516q0 84 51.5 132t144.5 48q83 0 129 -39.5t51 -96.5h-124q-9 36 -54 36q-32 0 -49 -22.5t-17 -57.5q0 -37 17 -58.5t49 -21.5q45 0 54 36h124q-5 -57 -51 -96.5t-129 -39.5q-93 0 -144.5 48t-51.5 132z" />
    <glyph glyph-name="d.numerator" horiz-adv-x="456" 
d="M28 512q0 91 45.5 137.5t110.5 46.5q78 0 104 -56h3q-3 59 -3 128v92h128v-516h-124v48h-4q-26 -56 -112 -56q-61 0 -104.5 45t-43.5 131zM160 512q0 -35 16.5 -57.5t47.5 -22.5t47.5 23t16.5 61t-16.5 61t-47.5 23q-64 0 -64 -88z" />
    <glyph glyph-name="e.numerator" horiz-adv-x="440" 
d="M28 516q0 81 52.5 130.5t139.5 49.5q90 0 141 -48t51 -140v-24h-254q12 -60 70 -60q42 0 56 24h124q-10 -50 -58.5 -81t-129.5 -31q-88 0 -140 49.5t-52 130.5zM220 608q-50 0 -61 -52h120q-10 52 -59 52z" />
    <glyph glyph-name="f.numerator" horiz-adv-x="292" 
d="M76 344v240h-64v104h64v16q0 85 32.5 120.5t115.5 35.5h68v-108h-42q-23 0 -32.5 -8.5t-9.5 -35.5v-20h72v-104h-72v-240h-132z" />
    <glyph glyph-name="g.numerator" horiz-adv-x="456" 
d="M44 304h120q4 -18 16.5 -25t39.5 -7q44 0 58 25.5t14 86.5v8h-4q-28 -56 -112 -56q-61 0 -104.5 45t-43.5 131q0 91 45.5 137.5t110.5 46.5q78 0 104 -56h4v48h124v-300q0 -115 -48 -159.5t-152 -44.5q-81 0 -122 28t-50 92zM160 512q0 -35 16.5 -57.5t47.5 -22.5
t47.5 23t16.5 61t-16.5 61t-47.5 23q-64 0 -64 -88z" />
    <glyph glyph-name="h.numerator" horiz-adv-x="444" 
d="M40 344v516h128v-112q0 -54 -3 -108h3q28 56 108 56q56 0 94 -33.5t38 -102.5v-216h-128v188q0 64 -52 64q-27 0 -43.5 -17t-16.5 -51v-184h-128z" />
    <glyph glyph-name="i.numerator" horiz-adv-x="208" 
d="M36 744v116h136v-116h-136zM40 344v344h128v-344h-128z" />
    <glyph glyph-name="j.numerator" horiz-adv-x="208" 
d="M36 744v116h136v-116h-136zM40 356v332h128v-328q0 -95 -29 -133.5t-119 -38.5h-40v112h20q24 0 32 12t8 44z" />
    <glyph glyph-name="k.numerator" horiz-adv-x="424" 
d="M40 344v516h132v-280l96 108h140l-128 -137l140 -207h-144l-80 116l-24 -26v-90h-132z" />
    <glyph glyph-name="l.numerator" horiz-adv-x="208" 
d="M40 344v516h128v-516h-128z" />
    <glyph glyph-name="m.numerator" horiz-adv-x="668" 
d="M40 344v344h124v-48h4q29 56 104 56q83 0 114 -66q36 66 118 66q55 0 91.5 -33t36.5 -103v-216h-128v188q0 64 -48 64q-56 0 -56 -66v-186h-128v188q0 64 -48 64q-56 0 -56 -67v-185h-128z" />
    <glyph glyph-name="n.numerator" horiz-adv-x="444" 
d="M40 344v344h124v-48h4q28 56 108 56q56 0 94 -33.5t38 -102.5v-216h-128v188q0 64 -52 64q-60 0 -60 -66v-186h-128z" />
    <glyph glyph-name="o.numerator" horiz-adv-x="448" 
d="M28 516q0 83 52 131.5t144 48.5t144 -48.5t52 -131.5t-52 -131.5t-144 -48.5t-144 48.5t-52 131.5zM160 516q0 -84 64 -84t64 84t-64 84t-64 -84z" />
    <glyph glyph-name="p.numerator" horiz-adv-x="456" 
d="M168 280v-92h-128v500h124v-48h4q26 56 112 56q61 0 104.5 -45t43.5 -131q0 -91 -45.5 -137.5t-110.5 -46.5q-78 0 -104 56h-4q4 -58 4 -112zM296 520q0 35 -16.5 57.5t-47.5 22.5q-29 0 -45.5 -21t-18.5 -56v-7q0 -38 16.5 -61t47.5 -23q64 0 64 88z" />
    <glyph glyph-name="q.numerator" horiz-adv-x="456" 
d="M288 280q0 54 3 112h-3q-26 -56 -112 -56q-61 0 -104.5 45t-43.5 131q0 91 44 137.5t108 46.5q82 0 108 -56h4v48h124v-500h-128v92zM160 512q0 -35 16.5 -57.5t47.5 -22.5t47.5 23t16.5 61v7q-2 35 -18.5 56t-45.5 21q-64 0 -64 -88z" />
    <glyph glyph-name="r.numerator" horiz-adv-x="316" 
d="M40 344v344h128v-64h4q28 72 88 72q29 0 48 -16l-16 -116q-19 12 -44 12q-38 0 -57 -33t-19 -83v-116h-132z" />
    <glyph glyph-name="s.numerator" horiz-adv-x="404" 
d="M24 448h116q2 -15 18.5 -25.5t41.5 -10.5q52 0 52 28q0 11 -8.5 17t-15.5 7.5t-24 3.5l-36 4q-74 8 -107 32.5t-33 71.5q0 57 47 88.5t125 31.5q77 0 120 -30t48 -78h-116q-10 32 -52 32q-48 0 -48 -26q0 -12 10 -17t38 -9l36 -5q80 -11 112 -31.5t32 -75.5
q0 -61 -50 -90.5t-130 -29.5t-125.5 29.5t-50.5 82.5z" />
    <glyph glyph-name="t.numerator" horiz-adv-x="300" 
d="M72 476v108h-64v104h64v104h128v-104h80v-104h-80v-84q0 -28 9.5 -38t38.5 -10h32v-108h-52q-92 0 -124 27t-32 105z" />
    <glyph glyph-name="u.numerator" horiz-adv-x="444" 
d="M36 472v216h128v-188q0 -64 52 -64q60 0 60 71v181h128v-344h-124v48h-4q-28 -56 -108 -56q-56 0 -94 33.5t-38 102.5z" />
    <glyph glyph-name="v.numerator" horiz-adv-x="416" 
d="M128 344l-124 344h140l66 -221l70 221h132l-120 -344h-164z" />
    <glyph glyph-name="w.numerator" horiz-adv-x="600" 
d="M104 344l-100 344h128l54 -224l58 224h112l57 -224l55 224h128l-100 -344h-140l-56 209l-56 -209h-140z" />
    <glyph glyph-name="x.numerator" horiz-adv-x="392" 
d="M4 344l128 168l-120 176h140l48 -80l56 80h132l-124 -168l124 -176h-140l-56 84l-56 -84h-132z" />
    <glyph glyph-name="y.numerator" horiz-adv-x="416" 
d="M120 344l-116 344h140l65 -225l71 225h132l-124 -360q-24 -69 -63 -104.5t-105 -35.5h-48v108h20q32 0 50.5 9.5t28.5 38.5h-51z" />
    <glyph glyph-name="z.numerator" horiz-adv-x="368" 
d="M24 580v108h316v-80l-135 -156h139v-108h-320v80l135 156h-135z" />
    <glyph glyph-name="zero.numerator" horiz-adv-x="384" 
d="M192 336q-84 0 -130 49.5t-46 130.5t46 130.5t130 49.5t130 -49.5t46 -130.5t-46 -130.5t-130 -49.5zM192 432q52 0 52 84t-52 84t-52 -84t52 -84z" />
    <glyph glyph-name="one.numerator" horiz-adv-x="384" 
d="M84 512l-48 84l160 92h76v-252h92v-92h-316v92h92v107z" />
    <glyph glyph-name="two.numerator" horiz-adv-x="384" 
d="M24 344q0 79 33.5 121.5t96.5 67.5l10 4q43 17 57.5 25.5t14.5 21.5q0 28 -40 28q-44 0 -44 -44h-124q1 62 48.5 95t115.5 33q78 0 123 -30t45 -78q0 -43 -20.5 -67t-77.5 -46l-10 -4q-10 -4 -21 -8.5t-17 -6.5t-12.5 -5t-10 -4.5t-6.5 -3.5t-4 -3.5t-1 -3.5h176v-92
h-332z" />
    <glyph glyph-name="three.numerator" horiz-adv-x="384" 
d="M36 452h116q0 -44 40 -44q19 0 29.5 10.5t10.5 27.5q0 38 -48 38h-12v68h12q44 0 44 36t-36 36t-36 -40h-112q3 54 43 83t105 29q72 0 114 -27t42 -73q0 -60 -60 -76v-4q68 -14 68 -76q0 -104 -164 -104q-76 0 -114.5 28t-41.5 88z" />
    <glyph glyph-name="four.numerator" horiz-adv-x="384" 
d="M16 396v64l188 232h112v-208h44v-88h-44v-52h-128v52h-172zM128 484h60v77z" />
    <glyph glyph-name="five.numerator" horiz-adv-x="384" 
d="M28 436h125q4 -30 35 -30q36 0 36 42t-36 42q-27 0 -35 -26l-113 16l16 208h272v-88h-175l-4 -60h3q24 20 76 20q45 0 80.5 -25.5t35.5 -82.5q0 -54 -42.5 -85t-109.5 -31q-150 0 -164 100z" />
    <glyph glyph-name="six.numerator" horiz-adv-x="384" 
d="M348 592h-116q-3 28 -32 28q-19 0 -29.5 -16t-13.5 -67q21 23 79 23q47 0 83.5 -25.5t36.5 -82.5q0 -54 -42.5 -85t-109.5 -31q-176 0 -176 172q0 97 47.5 142.5t128.5 45.5q139 0 144 -104zM200 490q-36 0 -36 -42t36 -42t36 42t-36 42z" />
    <glyph glyph-name="seven.numerator" horiz-adv-x="384" 
d="M72 344l144 244h-184v100h328v-72l-160 -272h-128z" />
    <glyph glyph-name="eight.numerator" horiz-adv-x="384" 
d="M28 432q0 33 19 55.5t49 28.5v4q-60 16 -60 76q0 46 42 73t114 27t114 -27t42 -73q0 -60 -60 -76v-4q30 -6 49 -28.5t19 -55.5q0 -96 -164 -96t-164 96zM152 446q0 -17 10.5 -27.5t29.5 -10.5t29.5 10.5t10.5 27.5t-10.5 27.5t-29.5 10.5t-29.5 -10.5t-10.5 -27.5z
M156 588q0 -36 36 -36t36 36t-36 36t-36 -36z" />
    <glyph glyph-name="nine.numerator" horiz-adv-x="384" 
d="M32 440h116q3 -28 32 -28q37 0 42 81q-18 -25 -78 -25q-48 0 -84 23.5t-36 80.5q0 55 43 89.5t109 34.5q176 0 176 -172q0 -188 -176 -188q-139 0 -144 104zM180 542q36 0 36 42t-36 42t-36 -42t36 -42z" />
    <glyph glyph-name="dollar.numerator" horiz-adv-x="384" 
d="M28 444h116q1 -38 51 -38q41 0 41 30q0 15 -14 21t-54 13l-24 4q-24 4 -41 9.5t-34.5 17t-27 31.5t-9.5 48q0 41 29.5 72t86.5 40v56h88v-56q51 -9 80 -37.5t32 -66.5h-116q0 15 -11 24.5t-29 9.5q-40 0 -40 -30q0 -14 13.5 -19.5t42.5 -10.5l24 -4q26 -4 44 -9.5
t38.5 -16.5t31 -31.5t10.5 -48.5q0 -99 -120 -114v-62h-88v62q-115 14 -120 106z" />
    <glyph glyph-name="cent.numerator" horiz-adv-x="384" 
d="M28 512q0 52 31.5 84t88.5 40v60h88v-59q55 -9 85.5 -39t34.5 -66h-125q-2 14 -12 23t-25 9q-42 0 -42 -52t42 -52q15 0 25 9t12 23h125q-4 -37 -34.5 -67t-85.5 -38v-51h-88v51q-57 9 -88.5 40.5t-31.5 84.5z" />
    <glyph glyph-name="euro.numerator" horiz-adv-x="384" 
d="M8 476l8 28h28v24h-28l8 28h23q9 64 50.5 102t118.5 38q126 0 148 -120h-116q-6 28 -34 28q-35 0 -40 -48h74l-8 -28h-68v-24h64l-8 -28h-54q3 -26 12.5 -37t27.5 -11q28 0 34 28h116q-22 -120 -148 -120q-77 0 -118.5 37.5t-50.5 102.5h-39z" />
    <glyph glyph-name="plus.numerator" horiz-adv-x="384" 
d="M44 472v92h100v100h96v-100h100v-92h-100v-100h-96v100h-100z" />
    <glyph glyph-name="minus.numerator" horiz-adv-x="384" 
d="M44 472v92h296v-92h-296z" />
    <glyph glyph-name="equal.numerator" horiz-adv-x="384" 
d="M44 540v92h296v-92h-296zM44 400v92h296v-92h-296z" />
    <glyph glyph-name="comma.numerator" horiz-adv-x="224" 
d="M56 344v116h112v-112l-36 -132h-56l28 128h-48z" />
    <glyph glyph-name="period.numerator" horiz-adv-x="224" 
d="M56 344v116h112v-116h-112z" />
    <glyph glyph-name="hyphen.numerator" horiz-adv-x="300" 
d="M32 472v92h236v-92h-236z" />
    <glyph glyph-name="parenleft.numerator" horiz-adv-x="264" 
d="M140 272q-32 39 -56 105.5t-24 138.5t24 138.5t56 105.5h116q-30 -37 -55 -105t-25 -139t25 -139t55 -105h-116z" />
    <glyph glyph-name="parenright.numerator" horiz-adv-x="264" 
d="M8 272q30 37 55 105t25 139t-25 139t-55 105h116q32 -39 56 -105.5t24 -138.5t-24 -138.5t-56 -105.5h-116z" />
    <glyph glyph-name="a.superior" horiz-adv-x="424" 
d="M32 584q0 48 27.5 74.5t88.5 33.5l64 8q27 4 35.5 10.5t8.5 21.5q0 14 -11.5 23t-32.5 9q-48 0 -52 -44h-116q4 65 51 96.5t117 31.5q87 0 129.5 -34t42.5 -106v-212h-124v40h-4q-37 -48 -108 -48q-57 0 -86.5 25.5t-29.5 70.5zM256 630v25q-7 -12 -28 -15l-32 -4
q-36 -4 -36 -32q0 -32 40 -32q56 0 56 58z" />
    <glyph glyph-name="b.superior" horiz-adv-x="456" 
d="M40 496v516h128v-108q0 -54 -4 -112h4q30 56 112 56q61 0 104.5 -45t43.5 -131q0 -91 -45.5 -137.5t-110.5 -46.5q-78 0 -104 56h-4v-48h-124zM168 668q0 -38 16.5 -61t47.5 -23q64 0 64 88q0 35 -16.5 57.5t-47.5 22.5q-29 0 -45.5 -21t-18.5 -56v-7z" />
    <glyph glyph-name="c.superior" horiz-adv-x="428" 
d="M28 668q0 84 51.5 132t144.5 48q83 0 129 -39.5t51 -96.5h-124q-9 36 -54 36q-32 0 -49 -22.5t-17 -57.5q0 -37 17 -58.5t49 -21.5q45 0 54 36h124q-5 -57 -51 -96.5t-129 -39.5q-93 0 -144.5 48t-51.5 132z" />
    <glyph glyph-name="d.superior" horiz-adv-x="456" 
d="M28 664q0 91 45.5 137.5t110.5 46.5q78 0 104 -56h3q-3 59 -3 128v92h128v-516h-124v48h-4q-26 -56 -112 -56q-61 0 -104.5 45t-43.5 131zM160 664q0 -35 16.5 -57.5t47.5 -22.5t47.5 23t16.5 61t-16.5 61t-47.5 23q-64 0 -64 -88z" />
    <glyph glyph-name="e.superior" horiz-adv-x="440" 
d="M28 668q0 81 52.5 130.5t139.5 49.5q90 0 141 -48t51 -140v-24h-254q12 -60 70 -60q42 0 56 24h124q-10 -50 -58.5 -81t-129.5 -31q-88 0 -140 49.5t-52 130.5zM220 760q-50 0 -61 -52h120q-10 52 -59 52z" />
    <glyph glyph-name="f.superior" horiz-adv-x="292" 
d="M76 496v240h-64v104h64v16q0 85 32.5 120.5t115.5 35.5h68v-108h-42q-23 0 -32.5 -8.5t-9.5 -35.5v-20h72v-104h-72v-240h-132z" />
    <glyph glyph-name="g.superior" horiz-adv-x="456" 
d="M44 456h120q4 -18 16.5 -25t39.5 -7q44 0 58 25.5t14 86.5v8h-4q-28 -56 -112 -56q-61 0 -104.5 45t-43.5 131q0 91 45.5 137.5t110.5 46.5q78 0 104 -56h4v48h124v-300q0 -115 -48 -159.5t-152 -44.5q-81 0 -122 28t-50 92zM160 664q0 -35 16.5 -57.5t47.5 -22.5
t47.5 23t16.5 61t-16.5 61t-47.5 23q-64 0 -64 -88z" />
    <glyph glyph-name="h.superior" horiz-adv-x="444" 
d="M40 496v516h128v-112q0 -54 -3 -108h3q28 56 108 56q56 0 94 -33.5t38 -102.5v-216h-128v188q0 64 -52 64q-27 0 -43.5 -17t-16.5 -51v-184h-128z" />
    <glyph glyph-name="i.superior" horiz-adv-x="208" 
d="M36 896v116h136v-116h-136zM40 496v344h128v-344h-128z" />
    <glyph glyph-name="j.superior" horiz-adv-x="208" 
d="M36 896v116h136v-116h-136zM40 508v332h128v-328q0 -95 -29 -133.5t-119 -38.5h-40v112h20q24 0 32 12t8 44z" />
    <glyph glyph-name="k.superior" horiz-adv-x="424" 
d="M40 496v516h132v-280l96 108h140l-128 -137l140 -207h-144l-80 116l-24 -26v-90h-132z" />
    <glyph glyph-name="l.superior" horiz-adv-x="208" 
d="M40 496v516h128v-516h-128z" />
    <glyph glyph-name="m.superior" horiz-adv-x="668" 
d="M40 496v344h124v-48h4q29 56 104 56q83 0 114 -66q36 66 118 66q55 0 91.5 -33t36.5 -103v-216h-128v188q0 64 -48 64q-56 0 -56 -66v-186h-128v188q0 64 -48 64q-56 0 -56 -67v-185h-128z" />
    <glyph glyph-name="n.superior" horiz-adv-x="444" 
d="M40 496v344h124v-48h4q28 56 108 56q56 0 94 -33.5t38 -102.5v-216h-128v188q0 64 -52 64q-60 0 -60 -66v-186h-128z" />
    <glyph glyph-name="o.superior" horiz-adv-x="448" 
d="M28 668q0 83 52 131.5t144 48.5t144 -48.5t52 -131.5t-52 -131.5t-144 -48.5t-144 48.5t-52 131.5zM160 668q0 -84 64 -84t64 84t-64 84t-64 -84z" />
    <glyph glyph-name="p.superior" horiz-adv-x="456" 
d="M168 432v-92h-128v500h124v-48h4q26 56 112 56q61 0 104.5 -45t43.5 -131q0 -91 -45.5 -137.5t-110.5 -46.5q-78 0 -104 56h-4q4 -58 4 -112zM296 672q0 35 -16.5 57.5t-47.5 22.5q-29 0 -45.5 -21t-18.5 -56v-7q0 -38 16.5 -61t47.5 -23q64 0 64 88z" />
    <glyph glyph-name="q.superior" horiz-adv-x="456" 
d="M288 432q0 54 3 112h-3q-26 -56 -112 -56q-61 0 -104.5 45t-43.5 131q0 91 44 137.5t108 46.5q82 0 108 -56h4v48h124v-500h-128v92zM160 664q0 -35 16.5 -57.5t47.5 -22.5t47.5 23t16.5 61v7q-2 35 -18.5 56t-45.5 21q-64 0 -64 -88z" />
    <glyph glyph-name="r.superior" horiz-adv-x="316" 
d="M40 496v344h128v-64h4q28 72 88 72q29 0 48 -16l-16 -116q-19 12 -44 12q-38 0 -57 -33t-19 -83v-116h-132z" />
    <glyph glyph-name="s.superior" horiz-adv-x="404" 
d="M24 600h116q2 -15 18.5 -25.5t41.5 -10.5q52 0 52 28q0 11 -8.5 17t-15.5 7.5t-24 3.5l-36 4q-74 8 -107 32.5t-33 71.5q0 57 47 88.5t125 31.5q77 0 120 -30t48 -78h-116q-10 32 -52 32q-48 0 -48 -26q0 -12 10 -17t38 -9l36 -5q80 -11 112 -31.5t32 -75.5
q0 -61 -50 -90.5t-130 -29.5t-125.5 29.5t-50.5 82.5z" />
    <glyph glyph-name="t.superior" horiz-adv-x="300" 
d="M72 628v108h-64v104h64v104h128v-104h80v-104h-80v-84q0 -28 9.5 -38t38.5 -10h32v-108h-52q-92 0 -124 27t-32 105z" />
    <glyph glyph-name="u.superior" horiz-adv-x="444" 
d="M36 624v216h128v-188q0 -64 52 -64q60 0 60 71v181h128v-344h-124v48h-4q-28 -56 -108 -56q-56 0 -94 33.5t-38 102.5z" />
    <glyph glyph-name="v.superior" horiz-adv-x="416" 
d="M128 496l-124 344h140l66 -221l70 221h132l-120 -344h-164z" />
    <glyph glyph-name="w.superior" horiz-adv-x="600" 
d="M104 496l-100 344h128l54 -224l58 224h112l57 -224l55 224h128l-100 -344h-140l-56 209l-56 -209h-140z" />
    <glyph glyph-name="x.superior" horiz-adv-x="392" 
d="M4 496l128 168l-120 176h140l48 -80l56 80h132l-124 -168l124 -176h-140l-56 84l-56 -84h-132z" />
    <glyph glyph-name="y.superior" horiz-adv-x="416" 
d="M120 496l-116 344h140l65 -225l71 225h132l-124 -360q-24 -69 -63 -104.5t-105 -35.5h-48v108h20q32 0 50.5 9.5t28.5 38.5h-51z" />
    <glyph glyph-name="z.superior" horiz-adv-x="368" 
d="M24 732v108h316v-80l-135 -156h139v-108h-320v80l135 156h-135z" />
    <glyph glyph-name="dollar.superior" horiz-adv-x="384" 
d="M28 596h116q1 -38 51 -38q41 0 41 30q0 15 -14 21t-54 13l-24 4q-24 4 -41 9.5t-34.5 17t-27 31.5t-9.5 48q0 41 29.5 72t86.5 40v56h88v-56q51 -9 80 -37.5t32 -66.5h-116q0 15 -11 24.5t-29 9.5q-40 0 -40 -30q0 -14 13.5 -19.5t42.5 -10.5l24 -4q26 -4 44 -9.5
t38.5 -16.5t31 -31.5t10.5 -48.5q0 -99 -120 -114v-62h-88v62q-115 14 -120 106z" />
    <glyph glyph-name="cent.superior" horiz-adv-x="384" 
d="M28 664q0 52 31.5 84t88.5 40v60h88v-59q55 -9 85.5 -39t34.5 -66h-125q-2 14 -12 23t-25 9q-42 0 -42 -52t42 -52q15 0 25 9t12 23h125q-4 -37 -34.5 -67t-85.5 -38v-51h-88v51q-57 9 -88.5 40.5t-31.5 84.5z" />
    <glyph glyph-name="euro.superior" horiz-adv-x="384" 
d="M8 628l8 28h28v24h-28l8 28h23q9 64 50.5 102t118.5 38q126 0 148 -120h-116q-6 28 -34 28q-35 0 -40 -48h74l-8 -28h-68v-24h64l-8 -28h-54q3 -26 12.5 -37t27.5 -11q28 0 34 28h116q-22 -120 -148 -120q-77 0 -118.5 37.5t-50.5 102.5h-39z" />
    <glyph glyph-name="plus.superior" horiz-adv-x="384" 
d="M44 624v92h100v100h96v-100h100v-92h-100v-100h-96v100h-100z" />
    <glyph glyph-name="minus.superior" horiz-adv-x="384" 
d="M44 624v92h296v-92h-296z" />
    <glyph glyph-name="equal.superior" horiz-adv-x="384" 
d="M44 692v92h296v-92h-296zM44 552v92h296v-92h-296z" />
    <glyph glyph-name="comma.superior" horiz-adv-x="224" 
d="M56 496v116h112v-112l-36 -132h-56l28 128h-48z" />
    <glyph glyph-name="period.superior" horiz-adv-x="224" 
d="M56 496v116h112v-116h-112z" />
    <glyph glyph-name="hyphen.superior" horiz-adv-x="300" 
d="M32 624v92h236v-92h-236z" />
    <glyph glyph-name="parenleft.superior" horiz-adv-x="264" 
d="M140 424q-32 39 -56 105.5t-24 138.5t24 138.5t56 105.5h116q-30 -37 -55 -105t-25 -139t25 -139t55 -105h-116z" />
    <glyph glyph-name="parenright.superior" horiz-adv-x="264" 
d="M8 424q30 37 55 105t25 139t-25 139t-55 105h116q32 -39 56 -105.5t24 -138.5t-24 -138.5t-56 -105.5h-116z" />
    <glyph glyph-name="exclam.sc" horiz-adv-x="280" 
d="M88 176l-32 208v136h168v-136l-32 -208h-104zM64 0v136h152v-136h-152z" />
    <glyph glyph-name="question.sc" horiz-adv-x="488" 
d="M156 176v12q0 42 16 71t39 43t46 24t39 22t16 28q0 19 -20 31.5t-56 12.5q-32 0 -50 -16.5t-18 -39.5h-156q0 72 55 120t173 48q108 0 172 -42t64 -118q0 -36 -17.5 -61.5t-42 -39.5t-49 -25t-42 -25t-17.5 -33v-12h-152zM156 0v136h152v-136h-152z" />
    <glyph glyph-name="exclamdown.sc" horiz-adv-x="280" 
d="M64 384v136h152v-136h-152zM56 0v136l32 208h104l32 -208v-136h-168z" />
    <glyph glyph-name="questiondown.sc" horiz-adv-x="488" 
d="M332 344v-12q0 -42 -16 -71t-39 -43t-46 -24t-39 -22t-16 -28q0 -19 20 -31.5t56 -12.5q32 0 50 16.5t18 39.5h156q0 -72 -55 -120t-173 -48q-108 0 -172 42t-64 118q0 36 17.5 61.5t42 39.5t49 25t42 25t17.5 33v12h152zM332 520v-136h-152v136h152z" />
    <glyph glyph-name="hyphen.sc" horiz-adv-x="396" 
d="M44 192v140h308v-140h-308z" />
    <glyph glyph-name="endash.sc" horiz-adv-x="556" 
d="M44 192v140h468v-140h-468z" />
    <glyph glyph-name="emdash.sc" horiz-adv-x="840" 
d="M44 192v140h752v-140h-752z" />
    <glyph glyph-name="periodcentered.sc" horiz-adv-x="268" 
d="M64 194v136h140v-136h-140z" />
    <glyph glyph-name="bullet.sc" horiz-adv-x="408" 
d="M204 128q-55 0 -93.5 38.5t-38.5 93.5t38.5 93.5t93.5 38.5t93.5 -38.5t38.5 -93.5t-38.5 -93.5t-93.5 -38.5z" />
    <glyph glyph-name="guilsinglleft.sc" horiz-adv-x="328" 
d="M156 100l-112 160l112 160h128l-88 -160l88 -160h-128z" />
    <glyph glyph-name="guilsinglright.sc" horiz-adv-x="328" 
d="M44 100l88 160l-88 160h128l112 -160l-112 -160h-128z" />
    <glyph glyph-name="guillemotleft.sc" horiz-adv-x="540" 
d="M368 100l-112 160l112 160h128l-88 -160l88 -160h-128zM156 100l-112 160l112 160h128l-88 -160l88 -160h-128z" />
    <glyph glyph-name="guillemotright.sc" horiz-adv-x="540" 
d="M256 100l88 160l-88 160h128l112 -160l-112 -160h-128zM44 100l88 160l-88 160h128l112 -160l-112 -160h-128z" />
    <glyph glyph-name="parenleft.sc" horiz-adv-x="340" 
d="M328 -92h-152q-45 60 -80.5 152.5t-35.5 199.5t35.5 199.5t80.5 152.5h152q-40 -51 -78 -148.5t-38 -203.5t38 -203.5t78 -148.5z" />
    <glyph glyph-name="parenright.sc" horiz-adv-x="340" 
d="M12 -92q40 51 78 148.5t38 203.5t-38 203.5t-78 148.5h152q45 -60 80.5 -152.5t35.5 -199.5t-35.5 -199.5t-80.5 -152.5h-152z" />
    <glyph glyph-name="bracketleft.sc" horiz-adv-x="328" 
d="M60 -92v704h256v-124h-104v-456h104v-124h-256z" />
    <glyph glyph-name="bracketright.sc" horiz-adv-x="328" 
d="M12 32h104v456h-104v124h256v-704h-256v124z" />
    <glyph glyph-name="braceleft.sc" horiz-adv-x="372" 
d="M100 64v48q0 47 -20 67.5t-76 20.5v124q56 0 76 22.5t20 69.5v40q0 83 43.5 119.5t144.5 36.5h72v-124h-36q-43 0 -57.5 -12t-14.5 -56v-48q0 -83 -96 -108v-4q52 -14 74 -38.5t22 -65.5v-48q0 -45 15 -60.5t57 -15.5h36v-124h-72q-101 0 -144.5 36.5t-43.5 119.5z" />
    <glyph glyph-name="braceright.sc" horiz-adv-x="372" 
d="M12 32h36q42 0 57 15.5t15 60.5v48q0 41 22 65.5t74 38.5v4q-96 25 -96 108v48q0 44 -14.5 56t-57.5 12h-36v124h72q101 0 144.5 -36.5t43.5 -119.5v-40q0 -47 20 -69.5t76 -22.5v-124q-56 0 -76 -20.5t-20 -67.5v-48q0 -83 -43.5 -119.5t-144.5 -36.5h-72v124z" />
    <glyph glyph-name="slash.sc" horiz-adv-x="376" 
d="M0 -12l232 544h144l-232 -544h-144z" />
    <glyph glyph-name="backslash.sc" horiz-adv-x="376" 
d="M232 -12l-232 544h144l232 -544h-144z" />
    <glyph glyph-name="quoteleft.sc" horiz-adv-x="280" 
d="M60 204v144l52 172h74l-38 -164h72v-152h-160z" />
    <glyph glyph-name="quotedblleft.sc" horiz-adv-x="516" 
d="M60 204v144l52 172h74l-38 -164h72v-152h-160zM296 204v144l52 172h74l-38 -164h72v-152h-160z" />
    <glyph glyph-name="quoteright.sc" horiz-adv-x="280" 
d="M94 204l38 164h-72v152h160v-144l-52 -172h-74z" />
    <glyph glyph-name="quotedblright.sc" horiz-adv-x="516" 
d="M94 204l38 164h-72v152h160v-144l-52 -172h-74zM330 204l38 164h-72v152h160v-144l-52 -172h-74z" />
    <glyph glyph-name="asterisk.sc" horiz-adv-x="488" 
d="M182 532h122l-14 -109l99 47l39 -117l-108 -21l74 -79l-98 -73l-54 96l-51 -95l-100 71l74 80l-106 21l37 117l99 -47z" />
    <glyph glyph-name="degree.sc" horiz-adv-x="440" 
d="M220 196q-79 0 -129.5 46.5t-50.5 121.5t50.5 121.5t129.5 46.5t129.5 -46.5t50.5 -121.5t-50.5 -121.5t-129.5 -46.5zM220 436q-28 0 -48 -19.5t-20 -52.5t20 -52.5t48 -19.5t48 19.5t20 52.5t-20 52.5t-48 19.5z" />
    <glyph glyph-name="quotesingle.sc" horiz-adv-x="256" 
d="M72 204l-20 200v116h152v-116l-20 -200h-112z" />
    <glyph glyph-name="quotedbl.sc" horiz-adv-x="476" 
d="M72 204l-20 200v116h152v-116l-20 -200h-112zM292 204l-20 200v116h152v-116l-20 -200h-112z" />
    <glyph glyph-name="ordfeminine.sc" horiz-adv-x="322" 
d="M112 254q-43 0 -65.5 19.5t-22.5 53.5q0 71 88 81l48 6q20 3 27 7.5t7 13.5v3q0 25 -34 25q-36 0 -39 -34h-88q4 50 39 73.5t88 23.5q66 0 98 -25.5t32 -80.5v-160h-93v26h-3q-28 -32 -82 -32zM194 351v26q-5 -9 -22 -11l-24 -3q-27 -2 -27 -24q0 -25 30 -25q17 0 30 10
t13 27z" />
    <glyph glyph-name="ordmasculine.sc" horiz-adv-x="339" 
d="M169 254q-69 0 -108.5 36.5t-39.5 99.5t39.5 99.5t108.5 36.5t109 -36.5t40 -99.5t-40 -99.5t-109 -36.5zM169 330q24 0 36.5 16.5t12.5 43.5t-12.5 44t-36.5 17q-23 0 -35.5 -17t-12.5 -44t12.5 -43.5t35.5 -16.5z" />
    <glyph glyph-name="trademark.sc" horiz-adv-x="660" 
d="M288 260v260h120l48 -136h4l44 136h120v-260h-88l5 148h-1l-56 -148h-56l-56 148h-2l6 -148h-88zM8 436v84h256v-84h-84v-176h-92v176h-80z" />
    <glyph glyph-name="copyright.sc" horiz-adv-x="608" 
d="M32 260q0 115 77.5 193.5t194.5 78.5q119 0 195.5 -77t76.5 -195q0 -115 -77.5 -193.5t-194.5 -78.5q-119 0 -195.5 77t-76.5 195zM108 260q0 -89 55 -146.5t141 -57.5q85 0 140.5 57.5t55.5 146.5t-55 146.5t-141 57.5q-85 0 -140.5 -57.5t-55.5 -146.5zM168 260
q0 62 37.5 99t106.5 37q49 0 84 -28t40 -72h-92q-7 20 -32 20q-44 0 -44 -56t44 -56q9 0 17 4.5t11.5 9t3.5 6.5h92q-5 -43 -40 -71.5t-84 -28.5q-68 0 -106 38.5t-38 97.5z" />
    <glyph glyph-name="registered.sc" horiz-adv-x="608" 
d="M32 260q0 115 77.5 193.5t194.5 78.5q119 0 195.5 -77t76.5 -195q0 -115 -77.5 -193.5t-194.5 -78.5q-119 0 -195.5 77t-76.5 195zM108 260q0 -89 55 -146.5t141 -57.5q85 0 140.5 57.5t55.5 146.5t-55 146.5t-141 57.5q-85 0 -140.5 -57.5t-55.5 -146.5zM180 132v256
h148q53 0 80.5 -25t27.5 -67q0 -57 -50 -81l58 -83h-104l-43 72h-21v-72h-96zM314 318h-38v-52h38q10 0 18 7t8 19t-7.5 19t-18.5 7z" />
    <glyph glyph-name="paragraph.sc" horiz-adv-x="536" 
d="M360 0v520h132v-520h-132zM172 0v188q-132 38 -132 164q0 77 49.5 122.5t142.5 45.5h72v-520h-132z" />
    <glyph glyph-name="dagger.sc" horiz-adv-x="428" 
d="M44 288v104h104v128h132v-128h104v-104h-104v-288h-132v288h-104z" />
    <glyph glyph-name="daggerdbl.sc" horiz-adv-x="428" 
d="M44 316v104h104v100h132v-100h104v-104h-104v-116h104v-104h-104v-96h-132v96h-104v104h104v116h-104z" />
    <glyph glyph-name="section.sc" horiz-adv-x="418" 
d="M12 -48h140q11 -32 52 -32q52 0 52 36q0 17 -12 25.5t-48 18.5l-72 20q-57 16 -82.5 45t-25.5 79q0 38 22.5 72t62.5 52q-81 37 -81 116q0 63 48.5 105.5t147.5 42.5q80 0 132 -32t56 -92h-140q-11 32 -52 32q-52 0 -52 -36q0 -17 12 -25.5t48 -18.5l72 -20
q57 -16 82.5 -45t25.5 -79q0 -38 -23 -72.5t-63 -52.5q82 -37 82 -115q0 -63 -48.5 -105.5t-147.5 -42.5q-80 0 -132 32t-56 92zM208 236l-12 3q-19 -5 -35.5 -22.5t-16.5 -36.5q0 -22 13 -34t51 -22l11 -3q20 5 36.5 22.5t16.5 36.5q0 22 -13 34t-51 22z" />
    <glyph glyph-name="exclamdown.cap" horiz-adv-x="296" 
d="M64 528v160h168v-160h-168zM56 0v184l40 284h104l40 -284v-184h-184z" />
    <glyph glyph-name="questiondown.cap" horiz-adv-x="532" 
d="M192 528v160h168v-160h-168zM12 184q0 46 19 81t46 55.5t54 38t46 41t19 52.5v16h160v-20q0 -48 -17.5 -83.5t-43 -56t-51 -37t-43 -36t-17.5 -43.5q0 -29 20.5 -48.5t59.5 -19.5q49 0 70.5 24t21.5 60h164q0 -94 -62.5 -157t-193.5 -63q-117 0 -184.5 51t-67.5 145z" />
    <glyph glyph-name="hyphen.cap" horiz-adv-x="396" 
d="M44 276v144h308v-144h-308z" />
    <glyph glyph-name="endash.cap" horiz-adv-x="556" 
d="M44 276v144h468v-144h-468z" />
    <glyph glyph-name="emdash.cap" horiz-adv-x="840" 
d="M44 276v144h752v-144h-752z" />
    <glyph glyph-name="periodcentered.cap" horiz-adv-x="304" 
d="M60 264v164h184v-164h-184z" />
    <glyph glyph-name="bullet.cap" horiz-adv-x="488" 
d="M244 176q-73 0 -122.5 49.5t-49.5 122.5t49.5 122.5t122.5 49.5t122.5 -49.5t49.5 -122.5t-49.5 -122.5t-122.5 -49.5z" />
    <glyph glyph-name="guilsinglleft.cap" horiz-adv-x="376" 
d="M188 144l-144 204l144 204h144l-108 -204l108 -204h-144z" />
    <glyph glyph-name="guilsinglright.cap" horiz-adv-x="376" 
d="M44 144l108 204l-108 204h144l144 -204l-144 -204h-144z" />
    <glyph glyph-name="guillemotleft.cap" horiz-adv-x="620" 
d="M432 144l-140 204l140 204h144l-108 -204l108 -204h-144zM184 144l-140 204l140 204h144l-108 -204l108 -204h-144z" />
    <glyph glyph-name="guillemotright.cap" horiz-adv-x="620" 
d="M292 144l108 204l-108 204h144l140 -204l-140 -204h-144zM44 144l108 204l-108 204h144l140 -204l-140 -204h-144z" />
    <glyph glyph-name="parenleft.cap" horiz-adv-x="372" 
d="M200 -68q-59 77 -99.5 185.5t-40.5 226.5t40.5 226.5t99.5 185.5h160q-55 -79 -95.5 -188.5t-40.5 -223.5t40.5 -223.5t95.5 -188.5h-160z" />
    <glyph glyph-name="parenright.cap" horiz-adv-x="372" 
d="M12 -68q55 79 95.5 188.5t40.5 223.5t-40.5 223.5t-95.5 188.5h160q59 -77 99.5 -185.5t40.5 -226.5t-40.5 -226.5t-99.5 -185.5h-160z" />
    <glyph glyph-name="bracketleft.cap" horiz-adv-x="368" 
d="M60 -68v824h296v-132h-136v-560h136v-132h-296z" />
    <glyph glyph-name="bracketright.cap" horiz-adv-x="368" 
d="M12 64h136v560h-136v132h296v-824h-296v132z" />
    <glyph glyph-name="braceleft.cap" horiz-adv-x="416" 
d="M116 96v88q0 50 -23.5 73t-88.5 23v132q65 0 88.5 23t23.5 73v84q0 87 46 125.5t154 38.5h88v-132h-52q-44 0 -60 -16.5t-16 -63.5v-84q0 -43 -23 -70t-77 -42v-4q55 -15 77.5 -40t22.5 -68v-92q0 -47 16 -63.5t60 -16.5h52v-132h-88q-108 0 -154 38.5t-46 125.5z" />
    <glyph glyph-name="braceright.cap" horiz-adv-x="416" 
d="M12 64h52q44 0 60 16.5t16 63.5v92q0 43 22.5 68t77.5 40v4q-54 15 -77 42t-23 70v84q0 47 -16 63.5t-60 16.5h-52v132h88q108 0 154 -38.5t46 -125.5v-84q0 -50 23.5 -73t88.5 -23v-132q-65 0 -88.5 -23t-23.5 -73v-88q0 -87 -46 -125.5t-154 -38.5h-88v132z" />
    <glyph glyph-name="plus.sc" horiz-adv-x="504" 
d="M64 200v124h124v128h128v-128h124v-124h-124v-124h-128v124h-124z" />
    <glyph glyph-name="minus.sc" horiz-adv-x="504" 
d="M64 200v124h376v-124h-376z" />
    <glyph glyph-name="multiply.sc" horiz-adv-x="504" 
d="M156 76l-88 88l96 96l-104 104l88 88l104 -104l104 104l88 -88l-104 -104l96 -96l-88 -88l-96 96z" />
    <glyph glyph-name="divide.sc" horiz-adv-x="504" 
d="M188 372v112h128v-112h-128zM64 200v124h376v-124h-376zM188 36v116h128v-116h-128z" />
    <glyph glyph-name="equal.sc" horiz-adv-x="504" 
d="M64 296v124h376v-124h-376zM64 100v124h376v-124h-376z" />
    <glyph glyph-name="less.sc" horiz-adv-x="504" 
d="M432 188v-136l-360 140v140l360 140v-136l-215 -74z" />
    <glyph glyph-name="greater.sc" horiz-adv-x="504" 
d="M72 336v136l360 -140v-140l-360 -140v136l214 74z" />
    <glyph glyph-name="plusminus.sc" horiz-adv-x="504" 
d="M80 268v116h112v104h120v-104h112v-116h-112v-104h-120v104h-112zM80 0v116h344v-116h-344z" />
    <glyph glyph-name="lessequal.sc" horiz-adv-x="504" 
d="M424 372l-193 -50l193 -50v-124l-344 108v132l344 108v-124zM80 0v116h344v-116h-344z" />
    <glyph glyph-name="greaterequal.sc" horiz-adv-x="505" 
d="M80 372v124l344 -108v-132l-344 -108v124l193 50zM80 116h344v-116h-344v116z" />
    <glyph glyph-name="notequal.sc" horiz-adv-x="505" 
d="M64 296v124h217l47 92l80 -40l-27 -52h59v-124h-122l-36 -72h158v-124h-221l-47 -92l-80 40l26 52h-54v124h117l37 72h-154z" />
    <glyph glyph-name="logicalnot.sc" horiz-adv-x="505" 
d="M64 200v124h376v-248h-128v124h-248z" />
    <glyph glyph-name="asciitilde.sc" horiz-adv-x="505" 
d="M44 184q5 176 124 176q39 0 88.5 -26t63.5 -26q36 0 36 56h112q-5 -176 -124 -176q-34 0 -85.5 26t-66.5 26q-36 0 -36 -56h-112z" />
    <glyph glyph-name="approxequal.sc" horiz-adv-x="505" 
d="M44 64q5 176 124 176q39 0 88.5 -26t63.5 -26q36 0 36 56h112q-5 -176 -124 -176q-34 0 -85.5 26t-66.5 26q-36 0 -36 -56h-112zM44 276q5 176 124 176q39 0 88.5 -26t63.5 -26q36 0 36 56h112q-5 -176 -124 -176q-34 0 -85.5 26t-66.5 26q-36 0 -36 -56h-112z" />
    <glyph glyph-name="infinity.sc" horiz-adv-x="600" 
d="M168 120q-64 0 -102 38t-38 102t38 102t102 38q73 0 132 -71q59 71 132 71q64 0 102 -38t38 -102t-38 -102t-102 -38q-75 0 -132 71q-57 -71 -132 -71zM368 260q24 -44 60 -44q20 0 32 11.5t12 32.5t-12 32.5t-32 11.5q-36 0 -60 -44zM172 216q36 0 60 44q-24 44 -60 44
q-20 0 -32 -11.5t-12 -32.5t12 -32.5t32 -11.5z" />
    <glyph glyph-name="numbersign.sc" horiz-adv-x="576" 
d="M52 312v100h93l19 108h112l-19 -108h112l19 108h112l-19 -108h67v-100h-85l-19 -108h76v-100h-94l-18 -104h-112l18 104h-112l-18 -104h-112l18 104h-62v100h80l19 108h-75zM239 312l-19 -108h112l19 108h-112z" />
    <glyph glyph-name="currency.PPF" horiz-adv-x="496" 
d="M108 130l-72 70l62 62q-22 36 -22 82q0 42 21 78l-57 58l72 70l59 -60q36 18 77 18q40 0 76 -18l60 60l72 -70l-57 -58q21 -36 21 -78q0 -46 -22 -82l62 -62l-72 -70l-67 66q-34 -16 -73 -16q-40 0 -74 16zM248 272q30 0 49 19.5t19 52.5t-19 52.5t-49 19.5t-49 -19.5
t-19 -52.5t19 -52.5t49 -19.5z" />
    <glyph glyph-name="dollar.PPF" horiz-adv-x="592" 
d="M24 200h172q3 -43 30.5 -65.5t69.5 -22.5t67 19t25 57q0 16 -7 28t-21.5 19.5t-28 12t-35.5 10.5q-5 1 -8 2l-72 20q-176 48 -176 204q0 82 51 138.5t141 72.5v109h120v-109q85 -14 136.5 -64t55.5 -123h-172q-4 31 -26 47.5t-54 16.5t-54 -16.5t-22 -47.5
q0 -32 18.5 -46t61.5 -26l72 -20q196 -54 196 -200q0 -91 -55.5 -150.5t-156.5 -73.5v-112h-120v112q-98 12 -152 66t-56 142z" />
    <glyph glyph-name="cent.PPF" horiz-adv-x="600" 
d="M252 -12v109q-102 16 -159 81.5t-57 169.5q0 102 58.5 168.5t161.5 82.5v101h120v-101q89 -14 139.5 -64t56.5 -119h-172q-4 25 -25.5 44.5t-58.5 19.5q-47 0 -73.5 -36.5t-26.5 -95.5t26.5 -95.5t73.5 -36.5q38 0 58 19t26 45h172q-6 -70 -56.5 -121t-143.5 -64v-107
h-120z" />
    <glyph glyph-name="Euro.PPF" horiz-adv-x="660" 
d="M28 368l24 80h45q21 116 94 184t197 68q118 0 183 -58t81 -154h-164q-15 76 -100 76q-89 0 -112 -116h156l-24 -80h-140v-52h136l-24 -80h-103q24 -112 111 -112q38 0 65 19t35 57h164q-19 -97 -84 -154.5t-180 -57.5q-123 0 -195.5 66.5t-94.5 181.5h-86l24 80h52v52
h-60z" />
    <glyph glyph-name="yen.PPF" horiz-adv-x="584" 
d="M188 688l104 -224h4l112 224h192l-214 -392h122v-80h-128v-52h128v-80h-128v-84h-176v84h-128v80h128v52h-128v80h122l-214 392h204z" />
    <glyph glyph-name="sterling.PPF" horiz-adv-x="616" 
d="M60 308v88h70q-26 67 -26 120q0 82 60 133t168 51q97 0 155 -46t61 -130h-152q-4 64 -60 64q-26 0 -43 -17t-17 -47q0 -55 28 -128h164v-88h-135q7 -35 7 -64q0 -46 -15 -92q83 -44 107 -44q48 0 48 56h124q0 -88 -36 -132t-120 -44q-73 0 -170 72q-57 -72 -146 -72
q-60 0 -100 28.5t-40 87.5q0 53 35.5 86.5t96.5 33.5q20 0 52 -7v11q0 39 -13 80h-103zM128 64q36 0 44 69q-24 11 -44 11q-18 0 -29 -12t-11 -28q0 -17 10 -28.5t30 -11.5z" />
    <glyph glyph-name="florin.PPF" 
d="M36 260v100h126l14 140q11 108 68.5 154t159.5 46q192 0 181 -199l-1 -17h-144l1 16q3 43 -5.5 61.5t-31.5 18.5q-24 0 -35.5 -18t-16.5 -62l-14 -140h130v-100h-140l-24 -252q-11 -108 -68.5 -154t-159.5 -46q-192 0 -181 199l1 17h144l-1 -16q-3 -43 5.5 -61.5
t31.5 -18.5q24 0 35.5 18t16.5 62l24 252h-116z" />
    <glyph glyph-name="currency.scppf" horiz-adv-x="496" 
d="M108 46l-72 70l62 62q-22 36 -22 82q0 42 21 78l-57 58l72 70l59 -60q36 18 77 18q40 0 76 -18l60 60l72 -70l-57 -58q21 -36 21 -78q0 -46 -22 -82l62 -62l-72 -70l-67 66q-34 -16 -73 -16q-40 0 -74 16zM248 188q30 0 49 19.5t19 52.5t-19 52.5t-49 19.5t-49 -19.5
t-19 -52.5t19 -52.5t49 -19.5z" />
    <glyph glyph-name="dollar.scppf" horiz-adv-x="532" 
d="M28 156h156q4 -56 80 -56q32 0 50 12.5t18 31.5q0 18 -15 27.5t-49 16.5l-60 12q-172 35 -172 160q0 68 45 112.5t131 55.5v88h112v-88q77 -11 120.5 -51t47.5 -97h-156q-8 40 -68 40t-60 -40q0 -17 13.5 -25.5t46.5 -14.5l60 -12q81 -17 128.5 -53t47.5 -107
t-46.5 -117.5t-133.5 -58.5v-92h-112v91q-90 9 -136 52.5t-48 112.5z" />
    <glyph glyph-name="cent.scppf" horiz-adv-x="516" 
d="M212 -12v76q-87 14 -137.5 65.5t-50.5 130.5q0 82 52 133t140 63v76h108v-76q78 -13 122.5 -56.5t49.5 -95.5h-160q-16 40 -68 40q-37 0 -56.5 -23.5t-19.5 -60.5q0 -38 19 -61t57 -23q50 0 68 40h160q-5 -56 -49 -99t-127 -54v-75h-108z" />
    <glyph glyph-name="Euro.scppf" horiz-adv-x="552" 
d="M0 196l12 48h44v36h-48l12 48h41q17 92 79 146t168 54q99 0 153 -45.5t67 -122.5h-152q-8 48 -64 48q-60 0 -75 -80h103l-12 -48h-96v-36h88l-12 -48h-72q7 -44 25 -64t51 -20q55 0 64 56h156q-16 -80 -71.5 -128t-152.5 -48q-108 0 -170 55t-77 149h-61z" />
    <glyph glyph-name="yen.scppf" horiz-adv-x="496" 
d="M172 520l80 -160h4l84 160h172l-171 -304h87v-56h-96v-48h96v-56h-96v-56h-164v56h-100v56h100v48h-100v56h87l-171 304h188z" />
    <glyph glyph-name="sterling.scppf" horiz-adv-x="528" 
d="M68 236v72h44q-16 34 -16 68q0 74 51 115t149 41q89 0 136 -40t52 -112h-136q-3 48 -52 48q-24 0 -38 -13t-14 -35q0 -26 26 -72h122v-72h-92q8 -29 8 -60q0 -26 -9 -58q45 -26 65 -26q14 0 25 12.5t11 39.5h116q0 -156 -136 -156q-63 0 -124 52q-47 -52 -120 -52
q-57 0 -90.5 24t-33.5 72t30.5 76t85.5 28q13 0 41 -6q-4 21 -20 54h-81zM128 56q36 0 42 57q-22 11 -38 11q-34 0 -34 -36q0 -14 8.5 -23t21.5 -9z" />
    <glyph glyph-name="florin.scppf" horiz-adv-x="504" 
d="M40 156v84h95l13 120q10 94 61.5 133t142.5 39q83 0 125 -39.5t37 -112.5l-2 -28h-136l2 28q3 40 -26 40q-16 0 -24 -13.5t-12 -46.5l-13 -120h101v-84h-110l-18 -176q-10 -94 -61.5 -133t-142.5 -39q-83 0 -125 39.5t-37 112.5l2 28h136l-2 -28q-3 -40 26 -40
q16 0 24 13.5t12 46.5l18 176h-86z" />
    <glyph glyph-name="currency.sc" horiz-adv-x="504" 
d="M112 46l-72 70l62 62q-22 36 -22 82q0 42 21 78l-57 58l72 70l59 -60q36 18 77 18q40 0 76 -18l60 60l72 -70l-57 -58q21 -36 21 -78q0 -46 -22 -82l62 -62l-72 -70l-67 66q-34 -16 -73 -16q-40 0 -74 16zM252 188q30 0 49 19.5t19 52.5t-19 52.5t-49 19.5t-49 -19.5
t-19 -52.5t19 -52.5t49 -19.5z" />
    <glyph glyph-name="dollar.sc" horiz-adv-x="504" 
d="M20 156h156q4 -56 68 -56q26 0 41 12.5t15 31.5q0 34 -52 44l-60 12q-31 6 -54.5 15t-50 26.5t-41 47.5t-14.5 71q0 67 42.5 111.5t121.5 56.5v88h112v-88q71 -12 111.5 -51.5t44.5 -96.5h-156q-8 40 -56 40t-48 -40q0 -31 48 -40l60 -12q79 -16 121.5 -52t42.5 -108
q0 -71 -43.5 -117t-124.5 -58v-93h-112v91q-84 10 -127 53t-45 112z" />
    <glyph glyph-name="cent.sc" horiz-adv-x="504" 
d="M208 -12v77q-82 14 -129 65t-47 130q0 81 49 132t131 64v76h108v-77q72 -13 113.5 -56t46.5 -95h-160q-16 40 -56 40q-32 0 -48 -23.5t-16 -60.5q0 -38 16 -61t48 -23q38 0 56 40h160q-5 -55 -46 -98.5t-118 -54.5v-75h-108z" />
    <glyph glyph-name="Euro.sc" horiz-adv-x="504" 
d="M12 196l12 48h36v36h-40l12 48h33q29 200 219 200q168 0 196 -168h-152q-8 48 -44 48q-43 0 -50 -80h106l-12 -48h-96v-36h88l-12 -48h-75q3 -45 14.5 -64.5t36.5 -19.5q21 0 30 13.5t14 42.5h156q-35 -176 -200 -176q-100 0 -153.5 54.5t-66.5 149.5h-52z" />
    <glyph glyph-name="yen.sc" horiz-adv-x="504" 
d="M72 160v56h88l-164 304h188l72 -160h4l76 160h172l-164 -304h88v-56h-96v-48h96v-56h-96v-56h-164v56h-100v56h100v48h-100z" />
    <glyph glyph-name="sterling.sc" horiz-adv-x="504" 
d="M60 236v72h57q-21 40 -21 76q0 69 46.5 108.5t137.5 39.5q161 0 172 -144h-136q-2 40 -36 40q-36 0 -36 -40q0 -30 25 -80h115v-72h-84q8 -29 8 -60q0 -30 -12 -66q29 -18 44 -18q28 0 28 52h116q0 -78 -28 -117t-92 -39q-58 0 -112 48q-46 -48 -116 -48q-57 0 -90.5 24
t-33.5 72t30.5 76t85.5 28q14 0 42 -8q-4 26 -16 56h-94zM128 56q35 0 42 56q-21 12 -38 12q-34 0 -34 -36q0 -14 8.5 -23t21.5 -9z" />
    <glyph glyph-name="florin.sc" horiz-adv-x="504" 
d="M32 156v84h95l13 120q10 95 58 133.5t138 38.5q83 0 125 -39.5t37 -112.5l-2 -28h-136l2 28q3 40 -22 40q-15 0 -21.5 -12.5t-10.5 -47.5l-13 -120h101v-84h-110l-18 -176q-10 -95 -58 -133.5t-138 -38.5q-83 0 -125 39.5t-37 112.5l2 28h136l-2 -28q-3 -40 22 -40
q15 0 21.5 12.5t10.5 47.5l18 176h-86z" />
    <glyph glyph-name="Gcedilla" horiz-adv-x="792" 
d="M608 0l-12 62h-4q-69 -74 -196 -74q-163 0 -257.5 100.5t-94.5 255.5q0 158 99.5 257t268.5 99q133 0 218 -65t98 -163h-180q-10 33 -44.5 54.5t-91.5 21.5q-82 0 -131 -54.5t-49 -149.5q0 -96 48 -150t132 -54q65 0 107 29.5t48 82.5h-155v128h312v-380h-116zM320 -52
h152v-100l-64 -116h-68l44 100h-64v116z" />
    <glyph glyph-name="Kcedilla" horiz-adv-x="748" 
d="M72 0v688h184v-275l252 275h212l-274 -291l294 -397h-212l-200 271l-72 -76v-195h-184zM304 -52h152v-100l-64 -116h-68l44 100h-64v116z" />
    <glyph glyph-name="Lcedilla" horiz-adv-x="620" 
d="M72 0v688h184v-536h320v-152h-504zM248 -52h152v-100l-64 -116h-68l44 100h-64v116z" />
    <glyph glyph-name="Ncedilla" horiz-adv-x="792" 
d="M72 0v688h160l304 -376h4l-4 376h184v-688h-156l-308 380h-4l4 -380h-184zM320 -52h152v-100l-64 -116h-68l44 100h-64v116z" />
    <glyph glyph-name="Rcedilla" horiz-adv-x="744" 
d="M72 0v688h336q131 0 201.5 -60t70.5 -166q0 -72 -36 -127t-103 -83l167 -252h-200l-143 228h-109v-228h-184zM392 548h-136v-184h136q47 0 73.5 26t26.5 70q0 41 -26 64.5t-74 23.5zM292 -52h152v-100l-64 -116h-68l44 100h-64v116z" />
    <glyph glyph-name="ae.sc" horiz-adv-x="944" 
d="M-8 0l372 520h524v-124h-280v-76h228v-116h-228v-80h292v-124h-468v72h-201l-47 -72h-192zM428 368l-114 -172h118v172h-4z" />
    <glyph glyph-name="aeacute.sc" horiz-adv-x="944" 
d="M-8 0l372 520h524v-124h-280v-76h228v-116h-228v-80h292v-124h-468v72h-201l-47 -72h-192zM428 368l-114 -172h118v172h-4zM456 600l96 164h172l-152 -164h-116z" />
    <glyph glyph-name="agrave.sc" horiz-adv-x="624" 
d="M4 0l204 520h208l204 -520h-188l-25 76h-198l-25 -76h-180zM308 368l-57 -168h116l-55 168h-4zM256 600l-152 164h172l96 -164h-116z" />
    <glyph glyph-name="aacute.sc" horiz-adv-x="624" 
d="M4 0l204 520h208l204 -520h-188l-25 76h-198l-25 -76h-180zM308 368l-57 -168h116l-55 168h-4zM252 600l96 164h172l-152 -164h-116z" />
    <glyph glyph-name="adieresis.sc" horiz-adv-x="624" 
d="M4 0l204 520h208l204 -520h-188l-25 76h-198l-25 -76h-180zM308 368l-57 -168h116l-55 168h-4zM356 600v144h152v-144h-152zM116 600v144h152v-144h-152z" />
    <glyph glyph-name="acircumflex.sc" horiz-adv-x="624" 
d="M4 0l204 520h208l204 -520h-188l-25 76h-198l-25 -76h-180zM308 368l-57 -168h116l-55 168h-4zM124 600l128 164h119l129 -164h-132l-56 84l-56 -84h-132z" />
    <glyph glyph-name="amacron.sc" horiz-adv-x="624" 
d="M4 0l204 520h208l204 -520h-188l-25 76h-198l-25 -76h-180zM308 368l-57 -168h116l-55 168h-4zM148 608v108h324v-108h-324z" />
    <glyph glyph-name="atilde.sc" horiz-adv-x="624" 
d="M4 0l204 520h208l204 -520h-188l-25 76h-198l-25 -76h-180zM308 368l-57 -168h116l-55 168h-4zM124 600q0 144 112 144q33 0 85 -20t71 -20q32 0 32 48h76q0 -144 -112 -144q-33 0 -85 20t-71 20q-32 0 -32 -48h-76z" />
    <glyph glyph-name="aring.sc" horiz-adv-x="624" 
d="M4 0l204 520h208l204 -520h-188l-25 76h-198l-25 -76h-180zM308 368l-57 -168h116l-55 168h-4zM312 576q-51 0 -83.5 31t-32.5 77q0 48 33 78t83 30t83 -30t33 -78q0 -46 -32.5 -77t-83.5 -31zM312 640q18 0 31 12t13 32t-13 32t-31 12t-31 -12t-13 -32t13 -32t31 -12z
" />
    <glyph glyph-name="abreve.sc" horiz-adv-x="624" 
d="M4 0l204 520h208l204 -520h-188l-25 76h-198l-25 -76h-180zM308 368l-57 -168h116l-55 168h-4zM312 600q-71 0 -117 39t-51 125h88q6 -35 27.5 -53.5t52.5 -18.5q30 0 52 19.5t28 52.5h88q-5 -86 -51 -125t-117 -39z" />
    <glyph glyph-name="aogonek.sc" horiz-adv-x="624" 
d="M452 -128q0 34 19.5 61.5t64.5 66.5h-104l-25 76h-198l-25 -76h-180l204 520h208l204 -520h-4q-60 -63 -60 -96q0 -36 44 -36h32v-88h-40q-76 0 -108 22.5t-32 69.5zM308 368l-57 -168h116l-55 168h-4z" />
    <glyph glyph-name="cacute.sc" horiz-adv-x="616" 
d="M32 260q0 123 78.5 197.5t217.5 74.5q105 0 175.5 -54t84.5 -146h-172q-21 60 -92 60q-53 0 -82.5 -35t-29.5 -97q0 -65 30.5 -98.5t81.5 -33.5q64 0 92 60h172q-14 -90 -84 -145t-180 -55q-139 0 -215.5 75t-76.5 197zM268 600l96 164h172l-152 -164h-116z" />
    <glyph glyph-name="cdotaccent.sc" horiz-adv-x="616" 
d="M32 260q0 123 78.5 197.5t217.5 74.5q105 0 175.5 -54t84.5 -146h-172q-21 60 -92 60q-53 0 -82.5 -35t-29.5 -97q0 -65 30.5 -98.5t81.5 -33.5q64 0 92 60h172q-14 -90 -84 -145t-180 -55q-139 0 -215.5 75t-76.5 197zM252 600v144h152v-144h-152z" />
    <glyph glyph-name="ccircumflex.sc" horiz-adv-x="616" 
d="M32 260q0 123 78.5 197.5t217.5 74.5q105 0 175.5 -54t84.5 -146h-172q-21 60 -92 60q-53 0 -82.5 -35t-29.5 -97q0 -65 30.5 -98.5t81.5 -33.5q64 0 92 60h172q-14 -90 -84 -145t-180 -55q-139 0 -215.5 75t-76.5 197zM140 600l128 164h119l129 -164h-132l-56 84
l-56 -84h-132z" />
    <glyph glyph-name="ccaron.sc" horiz-adv-x="616" 
d="M32 260q0 123 78.5 197.5t217.5 74.5q105 0 175.5 -54t84.5 -146h-172q-21 60 -92 60q-53 0 -82.5 -35t-29.5 -97q0 -65 30.5 -98.5t81.5 -33.5q64 0 92 60h172q-14 -90 -84 -145t-180 -55q-139 0 -215.5 75t-76.5 197zM268 600l-128 164h132l56 -84l56 84h132l-129 -164
h-119z" />
    <glyph glyph-name="ccedilla.sc" horiz-adv-x="616" 
d="M264 -92l31 81q-125 8 -194 81.5t-69 189.5q0 123 78.5 197.5t217.5 74.5q105 0 175.5 -54t84.5 -146h-172q-21 60 -92 60q-53 0 -82.5 -35t-29.5 -97q0 -65 30.5 -98.5t81.5 -33.5q64 0 92 60h172q-13 -84 -75 -138t-161 -61v-29q44 -1 68 -24t24 -60q0 -42 -30 -69
t-90 -27h-80v68h56q40 0 40 32q0 28 -40 28h-36z" />
    <glyph glyph-name="eth.sc" horiz-adv-x="652" 
d="M4 220v80h68v220h268q135 0 207.5 -70.5t72.5 -189.5q0 -115 -73.5 -187.5t-207.5 -72.5h-267v220h-68zM308 388h-60v-88h100v-80h-100v-88h60q68 0 100 35.5t32 92.5q0 128 -132 128z" />
    <glyph glyph-name="dcroat.sc" horiz-adv-x="652" 
d="M4 220v80h68v220h268q135 0 207.5 -70.5t72.5 -189.5q0 -115 -73.5 -187.5t-207.5 -72.5h-267v220h-68zM308 388h-60v-88h100v-80h-100v-88h60q68 0 100 35.5t32 92.5q0 128 -132 128z" />
    <glyph glyph-name="dcaron.sc" horiz-adv-x="652" 
d="M72 0v520h268q135 0 207.5 -70.5t72.5 -189.5q0 -115 -73.5 -187.5t-207.5 -72.5h-267zM308 388h-60v-256h60q68 0 100 35.5t32 92.5q0 128 -132 128zM248 600l-128 164h132l56 -84l56 84h132l-129 -164h-119z" />
    <glyph glyph-name="egrave.sc" horiz-adv-x="584" 
d="M72 0v520h456v-124h-280v-76h228v-116h-228v-80h292v-124h-468zM244 600l-152 164h172l96 -164h-116z" />
    <glyph glyph-name="eacute.sc" horiz-adv-x="584" 
d="M72 0v520h456v-124h-280v-76h228v-116h-228v-80h292v-124h-468zM240 600l96 164h172l-152 -164h-116z" />
    <glyph glyph-name="edotaccent.sc" horiz-adv-x="584" 
d="M72 0v520h456v-124h-280v-76h228v-116h-228v-80h292v-124h-468zM224 600v144h152v-144h-152z" />
    <glyph glyph-name="edieresis.sc" horiz-adv-x="584" 
d="M72 0v520h456v-124h-280v-76h228v-116h-228v-80h292v-124h-468zM344 600v144h152v-144h-152zM104 600v144h152v-144h-152z" />
    <glyph glyph-name="ecircumflex.sc" horiz-adv-x="584" 
d="M72 0v520h456v-124h-280v-76h228v-116h-228v-80h292v-124h-468zM112 600l128 164h119l129 -164h-132l-56 84l-56 -84h-132z" />
    <glyph glyph-name="ecaron.sc" horiz-adv-x="584" 
d="M72 0v520h456v-124h-280v-76h228v-116h-228v-80h292v-124h-468zM240 600l-128 164h132l56 -84l56 84h132l-129 -164h-119z" />
    <glyph glyph-name="emacron.sc" horiz-adv-x="584" 
d="M72 0v520h456v-124h-280v-76h228v-116h-228v-80h292v-124h-468zM136 608v108h324v-108h-324z" />
    <glyph glyph-name="ebreve.sc" horiz-adv-x="584" 
d="M72 0v520h456v-124h-280v-76h228v-116h-228v-80h292v-124h-468zM300 600q-71 0 -117 39t-51 125h88q6 -35 27.5 -53.5t52.5 -18.5q30 0 52 19.5t28 52.5h88q-5 -86 -51 -125t-117 -39z" />
    <glyph glyph-name="eogonek.sc" horiz-adv-x="584" 
d="M72 0v520h456v-124h-280v-76h228v-116h-228v-80h292v-124q-60 -63 -60 -96q0 -36 44 -36h32v-88h-40q-76 0 -108 22.5t-32 69.5q0 34 19.5 61.5t64.5 66.5h-388z" />
    <glyph glyph-name="gdotaccent.sc" horiz-adv-x="664" 
d="M344 184v112h256v-296h-112l-8 37h-4q-56 -49 -148 -49q-137 0 -214.5 75t-77.5 197q0 119 82.5 195.5t221.5 76.5q112 0 182 -53t78 -131h-172q-5 17 -28.5 32.5t-59.5 15.5q-56 0 -90 -37t-34 -99q0 -67 34.5 -103.5t93.5 -36.5q42 0 68.5 17.5t33.5 46.5h-102z
M264 600v144h152v-144h-152z" />
    <glyph glyph-name="gcircumflex.sc" horiz-adv-x="664" 
d="M344 184v112h256v-296h-112l-8 37h-4q-56 -49 -148 -49q-137 0 -214.5 75t-77.5 197q0 119 82.5 195.5t221.5 76.5q112 0 182 -53t78 -131h-172q-5 17 -28.5 32.5t-59.5 15.5q-56 0 -90 -37t-34 -99q0 -67 34.5 -103.5t93.5 -36.5q42 0 68.5 17.5t33.5 46.5h-102z
M152 600l128 164h119l129 -164h-132l-56 84l-56 -84h-132z" />
    <glyph glyph-name="gbreve.sc" horiz-adv-x="664" 
d="M344 184v112h256v-296h-112l-8 37h-4q-56 -49 -148 -49q-137 0 -214.5 75t-77.5 197q0 119 82.5 195.5t221.5 76.5q112 0 182 -53t78 -131h-172q-5 17 -28.5 32.5t-59.5 15.5q-56 0 -90 -37t-34 -99q0 -67 34.5 -103.5t93.5 -36.5q42 0 68.5 17.5t33.5 46.5h-102z
M340 600q-71 0 -117 39t-51 125h88q6 -35 27.5 -53.5t52.5 -18.5q30 0 52 19.5t28 52.5h88q-5 -86 -51 -125t-117 -39z" />
    <glyph glyph-name="gcommaaccent.sc" horiz-adv-x="664" 
d="M344 184v112h256v-296h-112l-8 37h-4q-56 -49 -148 -49q-137 0 -214.5 75t-77.5 197q0 119 82.5 195.5t221.5 76.5q112 0 182 -53t78 -131h-172q-5 17 -28.5 32.5t-59.5 15.5q-56 0 -90 -37t-34 -99q0 -67 34.5 -103.5t93.5 -36.5q42 0 68.5 17.5t33.5 46.5h-102z
M252 -52h152v-100l-64 -116h-68l44 100h-64v116z" />
    </font>
</defs>
</svg>
