<svg id="Group_54268" data-name="Group 54268" xmlns="http://www.w3.org/2000/svg" width="125.755" height="29.875" viewBox="0 0 125.755 29.875">
  <g id="Group_54267" data-name="Group 54267">
    <path id="Path_5554" data-name="Path 5554" d="M751.1,764.56q0,6.028,0,12.054c0,.477.007.955-.024,1.43-.04.636-.249.888-.859.9-3.042.085-2.733.25-2.736-2.5q-.013-10.624,0-21.249c0-2.4.128-2.279-2.392-2.291a6.892,6.892,0,0,0-2.411.36,4.1,4.1,0,0,0-2.723,4.506.662.662,0,0,0,.727.569c.816.034,1.634.015,2.45.055.885.045,1.041.2,1.049,1.139.016,2.441.237,2.367-2.28,2.359-.2,0-.41,0-.614,0-1.266.04-1.384.122-1.39,1.425-.021,4.087-.01,8.173-.012,12.258,0,.545.009,1.09,0,1.635-.033,1.7-.092,1.755-1.7,1.765-1.781.01-1.839-.024-1.846-1.807-.013-4.223,0-8.444-.006-12.666,0-.477.012-.955-.01-1.43-.048-1.014-.164-1.174-1.223-1.168-2.149.012-2.072-.013-2.064-2.207a3.334,3.334,0,0,1,.046-.609.73.73,0,0,1,.658-.663,2.5,2.5,0,0,1,.405-.04c2.467.072,2.084-.277,2.271-2.09a6.644,6.644,0,0,1,5.493-6.271,18.13,18.13,0,0,1,6.9-.115c2.383.338,2.3.113,2.3,2.59Q751.1,758.534,751.1,764.56Z" transform="translate(-733.026 -749.642)" fill="#f4d004"/>
    <path id="Path_5555" data-name="Path 5555" d="M768.852,763.936a10.148,10.148,0,0,0-8.147-8.609,10.508,10.508,0,0,0-11.216,4.96,11.085,11.085,0,0,0-1.445,6.688,10.28,10.28,0,0,0,8.773,9.637,12.486,12.486,0,0,0,6.062-.372,9.294,9.294,0,0,0,4.722-3.411c.343-.462.328-.745-.119-1.013-.581-.357-1.177-.685-1.758-1.028a.8.8,0,0,0-1.087.209,6.077,6.077,0,0,1-2.428,1.817,8.35,8.35,0,0,1-7.283-.492,6.163,6.163,0,0,1-2.9-3.56c-.238-.73-.045-1.072.715-1.072,2.517-.015,5.034,0,7.552,0v-.015h6.137c.477,0,.953,0,1.43-.015.834-.045,1.087-.268,1.177-1.072A9.9,9.9,0,0,0,768.852,763.936Zm-4.379.566c-1.7.015-3.411.015-5.109.015h-.819V764.5c-1.966,0-3.947.015-5.913,0-.641-.015-.834-.3-.67-.923a6.194,6.194,0,0,1,3.679-4.364,7.041,7.041,0,0,1,6.658.328,5.991,5.991,0,0,1,2.875,4.036C765.307,764.234,765.129,764.487,764.473,764.5Z" transform="translate(-725.698 -746.948)" fill="#f4d004"/>
    <path id="Path_5556" data-name="Path 5556" d="M773.91,755.178a10.348,10.348,0,0,0-9.577,8.117,13.289,13.289,0,0,0-.179,4.066,10.223,10.223,0,0,0,7.671,9.041,12.65,12.65,0,0,0,4.662.328,9.681,9.681,0,0,0,7.015-3.724c.492-.641.462-.909-.164-1.311-.521-.328-1.057-.611-1.594-.909a.786.786,0,0,0-1.087.208,5.727,5.727,0,0,1-2.607,1.906,8.464,8.464,0,0,1-6.926-.477,6.269,6.269,0,0,1-3.068-3.679c-.238-.73-.06-1.043.7-1.058,2.517-.015,5.034,0,7.552,0v-.015h6.345c.477,0,.953,0,1.43-.03.715-.06.909-.283.953-1.043C785.454,761.091,781.477,754.642,773.91,755.178Zm6.732,9.294c-4.126,0-8.266-.03-12.392-.045a.97.97,0,0,1-.224-.075,1.876,1.876,0,0,1-.089-.566,6.709,6.709,0,0,1,6.658-5.228,6.464,6.464,0,0,1,6.613,4.93C781.387,764.175,781.238,764.473,780.643,764.473Z" transform="translate(-717.827 -746.948)" fill="#f4d004"/>
    <path id="Path_5557" data-name="Path 5557" d="M813.753,755.148a10.828,10.828,0,1,0,10.813,10.933A10.747,10.747,0,0,0,813.753,755.148Zm.089,18.112a7.284,7.284,0,1,1-.059-14.567,7.285,7.285,0,0,1,.059,14.567Z" transform="translate(-698.821 -746.947)" fill="#f4d004"/>
    <path id="Path_5558" data-name="Path 5558" d="M783.275,767.341c0-1.837.016-3.673-.009-5.51-.011-.782-.2-.953-.973-.99-.746-.036-1.5-.024-2.245-.039a.729.729,0,0,1-.8-.733c-.006-.069-.013-.136-.013-.2-.022-2.645-.255-2.572,2.286-2.562.273,0,.545,0,.816-.022.71-.063.9-.264.932-1.049.033-.95.028-1.9.036-2.855a.918.918,0,0,1,.655-.922c.064-.024.125-.057.189-.076,2.741-.809,2.76-1.095,2.735,1.823,0,.545-.01,1.089.006,1.632.043,1.384.091,1.431,1.562,1.464.952.021,1.905-.009,2.857.027.8.03,1,.211,1.013.955.03,2.687.256,2.522-2.288,2.547-3.555.037-3.117-.487-3.147,3.141-.021,2.517-.028,5.034.006,7.55.037,2.666.584,3.174,3.29,3.2.408,0,.818-.012,1.224.007.69.031.862.194.915.813.006.069.006.136.01.2.11,2.184.034,2.28-2.21,2.3a13.557,13.557,0,0,1-2.639-.164,4.661,4.661,0,0,1-4.1-4.419,20.455,20.455,0,0,1-.089-2.242c-.013-1.291,0-2.584,0-3.877Z" transform="translate(-710.416 -748.571)" fill="#f4d004"/>
    <path id="Path_5559" data-name="Path 5559" d="M797.639,765.777q0-4.08,0-8.158c0-.475,0-.953.04-1.425a.69.69,0,0,1,.666-.643,4.88,4.88,0,0,1,.609-.042c2.4-.031,2.292-.007,2.291,2.181q0,8.157,0,16.314c0,.475-.012.952-.055,1.424a.719.719,0,0,1-.673.646,3.623,3.623,0,0,1-.611.039c-2.379.009-2.266.107-2.266-2.179Z" transform="translate(-701.401 -746.773)" fill="#f4d004"/>
    <path id="Path_5560" data-name="Path 5560" d="M793.453,766.06A2.62,2.62,0,0,1,796,768.87a2.662,2.662,0,0,1-5.317-.24A2.59,2.59,0,0,1,793.453,766.06Z" transform="translate(-704.809 -741.607)" fill="#f4d004"/>
    <path id="Path_5561" data-name="Path 5561" d="M799.7,749.819a2.322,2.322,0,0,1,2.285,2.554,2.267,2.267,0,0,1-2.444,2.169,2.345,2.345,0,0,1-2.328-2.327A2.407,2.407,0,0,1,799.7,749.819Z" transform="translate(-701.608 -749.556)" fill="#f4d004"/>
  </g>
</svg>
