<svg xmlns="http://www.w3.org/2000/svg" width="247.171" height="57.157" viewBox="0 0 247.171 57.157">
  <g id="Group_54348" data-name="Group 54348" transform="matrix(0.998, -0.07, 0.07, 0.998, -404.056, -406.099)">
    <path id="Path_16194" data-name="Path 16194" d="M18.634,302.791c59.914-5.136,119.452-9.535,179.455-5.081,2.508.188,2.506-6.373,0-6.542-59.611-4.078-120.191-3.756-179.455,8.882-1.01.214-1.076,2.831,0,2.74Z" transform="translate(364.592 166.918)" fill="#e8e8e8"/>
    <path id="Path_16195" data-name="Path 16195" d="M14.309,299.447c80.874-4.889,161.288-5.668,242.1,2.269,2.829.279,2.793-7,0-7.353-80.3-10.135-161.981-10.434-242.1,3.565-.567.1-.594,1.555,0,1.519Z" transform="translate(359.679 163.266)" fill="#e8e8e8"/>
    <path id="Path_16196" data-name="Path 16196" d="M16.159,324.326C94.925,303.66,175.117,295.7,254.767,298.3c3.174.1,3.168-8.122,0-8.269-80.322-3.75-159.953,8.058-238.818,33.026-.5.159-.283,1.4.209,1.273Z" transform="translate(361.354 166.416)" fill="#e8e8e8"/>
  </g>
</svg>
