<svg id="play-button" xmlns="http://www.w3.org/2000/svg" width="32" height="32" viewBox="0 0 32 32">
  <path id="Path_543" data-name="Path 543" d="M30.229,8.677A16.142,16.142,0,0,0,25.5,3.127a.651.651,0,1,0-.774,1.047,14.834,14.834,0,0,1,4.342,5.1A14.536,14.536,0,0,1,30.7,16,14.7,14.7,0,1,1,16,1.3.651.651,0,1,0,16,0,15.991,15.991,0,1,0,30.229,8.677Z" transform="translate(0 0)" fill="#3b3b40"/>
  <path id="Path_544" data-name="Path 544" d="M106.979,78.266a.622.622,0,0,0-.315.541v13.65a.622.622,0,1,0,1.244,0V79.9l9.209,5.482-6.772,4.363a.622.622,0,1,0,.674,1.046l7.616-4.907a.622.622,0,0,0-.019-1.057L107.6,78.272A.622.622,0,0,0,106.979,78.266Z" transform="translate(-94.74 -69.337)" fill="#3b3b40"/>
</svg>
